<?xml version="1.0" encoding="UTF-8"?>
<!-- Created by Vectric (http://www.vectric.com/) -->
<svg width="4.19678038in" height="1.65433487in" viewBox="0 0 4.19678038 1.65433487" id="svg2" version="1.1" xmlns="http://www.w3.org/2000/svg" xmlns:xlink="http://www.w3.org/1999/xlink" xmlns:inkscape="http://www.inkscape.org/namespaces/inkscape">
    <g inkscape:groupmode="layer" id="85667243-1302-4a85-b3ac-c7bf39b332ec" inkscape:label="Toolpath Previews"/>
    <g inkscape:groupmode="layer" id="fa8c3907-928b-48d8-8d86-37c29a1a0ffb" inkscape:label="Layer 1">
        <path style="fill:none;stroke-width:0.010000;stroke-linecap:round;stroke-linejoin:round;stroke-opacity:1;stroke:#000000;" d="M 0.288865,1.385525 C 0.487554,1.167312 0.528314,1.245653 0.605514,1.321067 C 0.611595,1.332531 0.589763,1.344390 0.559358,1.352920 C 0.552414,1.354869 0.555562,1.360273 0.564706,1.362102 C 0.569703,1.363101 0.573315,1.365350 0.572732,1.367099 C 0.570464,1.373902 0.542983,1.389654 0.522560,1.395858 C 0.510764,1.399441 0.493703,1.405649 0.484648,1.409654 C 0.475592,1.413659 0.466093,1.416935 0.463540,1.416935 L 0.458897,1.416935 L 0.433270,1.426263 C 0.406749,1.435916 0.385861,1.449546 0.359364,1.474490 C 0.339786,1.492920 0.334477,1.504425 0.341811,1.512529 C 0.346780,1.518020 0.346729,1.518657 0.340711,1.526309 C 0.322861,1.549001 0.347527,1.563454 0.378536,1.548472 C 0.385343,1.545184 0.394580,1.542493 0.399065,1.542493 C 0.403549,1.542493 0.411727,1.540863 0.417239,1.538870 C 0.426107,1.535663 0.428730,1.536049 0.440043,1.542229 C 0.451242,1.548347 0.455397,1.548983 0.473581,1.547363 C 0.523276,1.542937 0.537406,1.540714 0.542610,1.536507 C 0.550179,1.530387 0.560884,1.524556 0.564549,1.524556 C 0.566216,1.524556 0.567579,1.529083 0.567579,1.534616 C 0.567579,1.540156 0.570271,1.548098 0.573569,1.552291 C 0.579559,1.559906 0.579559,1.559906 0.594440,1.554467 C 0.614581,1.547106 0.629627,1.537447 0.635741,1.527955 C 0.642052,1.518157 0.642088,1.506321 0.662961,1.492235 C 0.672004,1.486132 0.685870,1.474911 0.693501,1.467105 C 0.708786,1.451469 0.830138,1.370411 0.844882,1.379401 C 0.854201,1.385083 0.867807,1.393020 0.870535,1.393020 C 0.881274,1.393020 0.874486,1.400920 0.856771,1.409038 C 0.846516,1.413738 0.835237,1.418936 0.831705,1.420590 C 0.828174,1.422244 0.818421,1.429602 0.810032,1.436941 C 0.798562,1.446974 0.794779,1.452339 0.794779,1.458574 C 0.794779,1.477881 0.789521,1.484611 0.762424,1.499985 C 0.748157,1.508080 0.730093,1.517517 0.722282,1.520957 C 0.695994,1.532534 0.665419,1.567137 0.670282,1.579808 C 0.672669,1.586029 0.713126,1.586067 0.727977,1.579862 C 0.733880,1.577395 0.740053,1.575377 0.741696,1.575377 L 0.744682,1.575377 L 0.724994,1.596248 C 0.714165,1.607727 0.702972,1.620681 0.700119,1.625034 C 0.695072,1.632737 0.695126,1.633106 0.702113,1.638764 C 0.711805,1.646612 0.741561,1.644921 0.767372,1.635055 C 0.785023,1.628308 0.786497,1.628168 0.789194,1.632988 C 0.790785,1.635830 0.795422,1.638156 0.799498,1.638156 L 0.806910,1.638156 L 0.834476,1.629074 C 0.849637,1.624079 0.867154,1.616450 0.873402,1.612122 C 0.879649,1.607794 0.891757,1.601867 0.900307,1.598951 C 0.915853,1.593649 0.915853,1.593649 0.918842,1.606187 C 0.925703,1.634964 0.931131,1.633794 0.982029,1.592569 C 0.991670,1.584760 1.001710,1.578370 1.004341,1.578369 C 1.018654,1.578363 1.051707,1.541255 1.056267,1.520072 C 1.057329,1.515140 1.063478,1.505240 1.069931,1.498073 C 1.173609,1.255226 1.346592,1.310616 2.197268,1.337910 C 2.202065,1.338108 2.202936,1.337134 2.204621,1.343847 C 2.206572,1.351624 2.200716,1.391486 2.196417,1.399686 L 2.193705,1.404858 L 2.121664,1.470428 L 2.111421,1.473576 C 2.105787,1.475308 2.095461,1.478244 2.088473,1.480102 C 2.059722,1.487743 2.029729,1.506538 2.021792,1.521886 C 2.019069,1.527151 2.014925,1.530535 2.011201,1.530535 L 2.005082,1.530535 L 1.940751,1.560430 L 1.937599,1.560430 C 1.935866,1.560430 1.927568,1.566889 1.919160,1.574782 C 1.901904,1.590984 1.899245,1.601691 1.910517,1.609587 C 1.918939,1.615486 1.938835,1.615566 1.952738,1.609756 C 1.971383,1.601966 1.974281,1.603822 1.963914,1.616913 C 1.952770,1.630983 1.952344,1.637895 1.962058,1.647021 C 1.969916,1.654404 1.975046,1.654098 2.009999,1.644161 C 2.043420,1.634659 2.047694,1.634580 2.060172,1.643227 C 2.071846,1.651318 2.071846,1.651318 2.087064,1.645913 C 2.102282,1.640508 2.102282,1.640508 2.108105,1.648502 C 2.112233,1.654168 2.114858,1.655567 2.117120,1.653305 C 2.118875,1.651550 2.122543,1.650114 2.125270,1.650114 C 2.127998,1.650114 2.138155,1.646095 2.147841,1.641184 C 2.157527,1.636272 2.167727,1.632236 2.170507,1.632215 C 2.173287,1.632194 2.176433,1.630768 2.177498,1.629044 C 2.178675,1.627140 2.184453,1.626664 2.192228,1.627830 C 2.201520,1.629224 2.207789,1.628324 2.215132,1.624544 L 2.225241,1.619340 L 2.256631,1.598271 C 2.291741,1.574705 2.333579,1.535994 2.344999,1.516508 C 2.357085,1.495885 2.380241,1.487357 2.383957,1.502161 C 2.386960,1.514129 2.397705,1.514765 2.414044,1.503943 C 2.423886,1.497423 2.431684,1.494643 2.440248,1.494600 C 2.446954,1.494566 2.465894,1.490003 2.482336,1.484459 C 2.509406,1.475333 2.514253,1.472502 2.533636,1.454502 C 2.556578,1.433196 2.573345,1.405831 2.588708,1.364620 C 2.592998,1.353110 2.600979,1.333604 2.606443,1.321272 C 2.611907,1.308941 2.618088,1.292125 2.620178,1.283904 C 2.622268,1.275683 2.627352,1.260212 2.631475,1.249525 L 2.638971,1.230093 C 3.111544,1.549766 3.609757,1.516356 4.154642,1.355235 C 4.163793,1.353287 4.196780,1.339565 4.196780,1.317876 C 4.196780,1.298672 4.173359,1.294699 4.157070,1.298302 C 3.593566,1.388607 3.074210,1.333914 2.695348,0.887137 C 2.673613,0.865378 2.673613,0.865378 2.676083,0.847441 C 2.677442,0.837576 2.677586,0.813361 2.676403,0.793631 L 2.674253,0.757757 L 2.674529,0.747516 C 2.674681,0.741883 2.673224,0.734484 2.671292,0.731074 C 2.667191,0.723836 2.661118,0.701725 2.656953,0.678869 C 2.649092,0.635734 2.611856,0.571939 2.566022,0.523083 C 2.555996,0.512396 2.545845,0.500825 2.543464,0.497370 C 2.528445,0.475572 2.507750,0.452966 2.495998,0.445523 C 2.475439,0.432500 2.395506,0.367522 2.362757,0.337210 C 2.351247,0.326557 2.330267,0.310262 2.316134,0.300999 L 2.290438,0.284156 L 2.286621,0.279557 C 2.284522,0.277027 2.280459,0.274957 2.277594,0.274957 C 2.274729,0.274957 2.269166,0.272603 2.265234,0.269726 C 2.254245,0.261686 2.245180,0.257020 2.240549,0.257020 C 2.238236,0.257020 2.235659,0.255237 2.234823,0.253056 C 2.233986,0.250876 2.225434,0.245278 2.215819,0.240616 C 2.206203,0.235954 2.196318,0.231015 2.193852,0.229641 C 2.191385,0.228266 2.179278,0.222296 2.166946,0.216373 L 2.144525,0.205605 L 2.044682,0.161357 L 2.037804,0.161086 C 2.031656,0.160844 2.025340,0.157733 1.992062,0.138556 C 1.987130,0.135714 1.977040,0.132222 1.969641,0.130797 C 1.962242,0.129372 1.952739,0.127477 1.948523,0.126587 C 1.943187,0.125460 1.939098,0.121184 1.935070,0.112521 C 1.927996,0.097304 1.918436,0.092347 1.892208,0.090295 C 1.871032,0.088638 1.868116,0.086661 1.868045,0.073915 L 1.867999,0.065694 L 1.830926,0.065694 C 1.793853,0.065694 1.793853,0.065694 1.787737,0.055328 C 1.784373,0.049626 1.778324,0.044134 1.774296,0.043123 C 1.766108,0.041068 1.728232,0.043047 1.713319,0.046309 C 1.704897,0.048151 1.702558,0.047210 1.695464,0.039125 C 1.687316,0.029839 1.687238,0.029821 1.656405,0.029821 C 1.626675,0.029821 1.600564,0.033782 1.594612,0.039195 C 1.589091,0.044217 1.584771,0.041628 1.576294,0.028216 C 1.571359,0.020409 1.564678,0.013889 1.560551,0.012853 L 1.553382,0.011054 L 1.524596,0.012781 C 1.508764,0.013731 1.491602,0.016168 1.486458,0.018198 C 1.477506,0.021731 1.476679,0.021402 1.467129,0.010526 C 1.457153,-0.000837 1.457153,-0.000837 1.433134,0.000726 C 1.419924,0.001585 1.403062,0.004566 1.395663,0.007350 C 1.388264,0.010134 1.375238,0.014507 1.366717,0.017068 C 1.351286,0.021705 1.351187,0.021692 1.341825,0.013814 C 1.334211,0.007408 1.329371,0.005905 1.316353,0.005905 C 1.307513,0.005905 1.296518,0.007399 1.291919,0.009226 C 1.263083,0.020681 1.252740,0.025852 1.245442,0.032462 C 1.240920,0.036557 1.237221,0.038407 1.237221,0.036572 C 1.237221,0.030196 1.227768,0.023842 1.218281,0.023842 C 1.206327,0.023842 1.186355,0.031200 1.152781,0.047973 C 1.129279,0.059714 1.125729,0.060693 1.117676,0.057654 C 1.099773,0.050896 1.030942,0.082119 1.017071,0.103290 C 1.012177,0.110758 1.012177,0.110758 1.008613,0.103921 C 1.006652,0.100160 1.003140,0.097604 1.000808,0.098240 C 0.998476,0.098875 0.993205,0.100007 0.989095,0.100754 C 0.975674,0.103194 0.963161,0.110244 0.947904,0.123961 C 0.935972,0.134689 0.930705,0.137441 0.922107,0.137441 C 0.911633,0.137441 0.886065,0.147379 0.882754,0.152736 C 0.881856,0.154189 0.879106,0.155378 0.876644,0.155378 C 0.871946,0.155378 0.853007,0.168529 0.802639,0.206765 C 0.785984,0.219408 0.760251,0.238560 0.745453,0.249325 L 0.718547,0.268898 L 0.607937,0.378094 L 0.582526,0.409086 C 0.568551,0.426132 0.551735,0.447799 0.545158,0.457234 L 0.533200,0.474389 L 0.475996,0.554473 L 0.465990,0.572410 C 0.460487,0.582275 0.447950,0.602637 0.438131,0.617658 L 0.420279,0.644970 L 0.402725,0.630825 C 0.370012,0.604464 0.348129,0.595702 0.307514,0.592701 C 0.292644,0.591602 0.285821,0.592494 0.278362,0.596511 C 0.268757,0.601684 0.268413,0.601641 0.253222,0.593373 C 0.231762,0.581693 0.178133,0.546048 0.155844,0.528649 C 0.130253,0.508674 0.122597,0.509587 0.108042,0.534349 C 0.099904,0.548192 0.099736,0.549425 0.100158,0.592147 C 0.100536,0.630332 0.101605,0.639128 0.108693,0.662365 C 0.117013,0.689643 0.130265,0.713014 0.145115,0.726599 C 0.168788,0.748257 0.211502,0.768352 0.248804,0.775379 L 0.266345,0.778683 L 0.246109,0.801104 C 0.193879,0.858973 0.149153,0.949050 0.119309,1.056475 C 0.112239,1.081924 0.106860,1.114936 0.101248,1.167315 C 0.099310,1.185401 0.093889,1.219032 0.089201,1.242051 L 0.080676,1.283904 L 0.072979,1.304238 C 0.068746,1.315422 0.063352,1.327529 0.060992,1.331143 L 0.056702,1.337714 L 0.026560,1.409054 L 0.019116,1.420303 C 0.015022,1.426489 0.008656,1.441801 0.004970,1.454330 C -0.001079,1.474891 -0.001304,1.477862 0.002661,1.484847 C 0.010437,1.498549 0.022359,1.505166 0.037891,1.504402 L 0.051895,1.503713 L 0.087769,1.502807 C 0.117870,1.502048 0.125668,1.500839 0.136229,1.495292 C 0.143151,1.491657 0.151895,1.488666 0.155660,1.488645 C 0.163283,1.488603 0.192343,1.474633 0.209613,1.462709 C 0.215792,1.458444 0.225768,1.448081 0.231782,1.439681 C 0.237797,1.431282 0.252145,1.415665 0.263667,1.404978 L 0.284616,1.385546 L 0.288865,1.385525 "/>
        <path style="fill:none;stroke-width:0.010000;stroke-linecap:round;stroke-linejoin:round;stroke-opacity:1;stroke:#000000;" d="M 0.291800,0.992077 A 0.062500,0.062500 0 0,0 0.229300,1.054577 A 0.062500,0.062500 0 0,0 0.291800,1.117077 A 0.062500,0.062500 0 0,0 0.354300,1.054577 A 0.062500,0.062500 0 0,0 0.291800,0.992077 "/>
    </g>
</svg>
