<?xml version="1.0" encoding="UTF-8"?>
<!-- Created by Vectric (http://www.vectric.com/) -->
<svg width="5.50000000in" height="2.00000000in" viewBox="0 0 5.50000000 2.00000000" id="svg2" version="1.1" xmlns="http://www.w3.org/2000/svg" xmlns:xlink="http://www.w3.org/1999/xlink" xmlns:inkscape="http://www.inkscape.org/namespaces/inkscape">
    <g inkscape:groupmode="layer" id="4ac99bcd-324b-4e32-a992-71564f19513e" inkscape:label="Layer 1">
        <path style="fill:none;stroke-width:0.010000;stroke-linecap:round;stroke-linejoin:round;stroke-opacity:1;stroke:#000000;" d="M 1.526565,1.462248 L 1.544735,1.442650 L 1.562016,1.424735 L 1.578442,1.408448 L 1.594050,1.393734 L 1.608875,1.380538 L 1.622952,1.368806 L 1.636318,1.358482 L 1.649007,1.349512 L 1.661056,1.341841 L 1.672499,1.335415 L 1.683374,1.330177 L 1.693714,1.326074 L 1.703556,1.323050 L 1.712935,1.321051 L 1.721887,1.320022 L 1.730448,1.319908 L 1.738653,1.320655 L 1.746537,1.322207 L 1.754137,1.324509 L 1.761487,1.327507 L 1.768624,1.331146 L 1.775583,1.335371 L 1.782400,1.340127 L 1.789110,1.345360 L 1.802351,1.357035 L 1.815593,1.369957 L 1.829119,1.383688 L 1.843214,1.397790 L 1.844032,1.399943 L 1.844224,1.402100 L 1.843818,1.404255 L 1.842844,1.406403 L 1.841328,1.408539 L 1.839300,1.410657 L 1.833819,1.414816 L 1.826627,1.418838 L 1.817953,1.422679 L 1.808021,1.426295 L 1.797058,1.429643 L 1.794919,1.430522 L 1.793678,1.431643 L 1.793288,1.432922 L 1.793699,1.434279 L 1.794865,1.435630 L 1.796737,1.436892 L 1.799267,1.437985 L 1.802407,1.438825 L 1.805851,1.439781 L 1.808512,1.441042 L 1.810127,1.442444 L 1.810459,1.443146 L 1.810432,1.443822 L 1.809719,1.445198 L 1.808463,1.446756 L 1.804508,1.450313 L 1.798946,1.454275 L 1.792154,1.458426 L 1.784512,1.462549 L 1.776397,1.466427 L 1.768187,1.469843 L 1.760260,1.472581 L 1.740276,1.479320 L 1.730433,1.483035 L 1.722348,1.486377 L 1.709356,1.491519 L 1.704342,1.493084 L 1.701240,1.493658 L 1.696597,1.493658 L 1.670970,1.502986 L 1.661267,1.506806 L 1.651960,1.511086 L 1.642918,1.515910 L 1.634008,1.521365 L 1.625100,1.527537 L 1.616061,1.534511 L 1.606760,1.542374 L 1.597065,1.551212 L 1.590389,1.557806 L 1.585031,1.563792 L 1.580973,1.569211 L 1.578196,1.574104 L 1.576680,1.578514 L 1.576407,1.582481 L 1.576730,1.584311 L 1.577357,1.586047 L 1.579511,1.589252 L 1.582282,1.592645 L 1.582934,1.594007 L 1.583082,1.595331 L 1.582714,1.596757 L 1.581821,1.598423 L 1.578411,1.603031 L 1.575553,1.607185 L 1.573640,1.611113 L 1.572616,1.614787 L 1.572430,1.618175 L 1.573029,1.621245 L 1.574359,1.623967 L 1.576367,1.626309 L 1.579002,1.628241 L 1.582208,1.629732 L 1.585935,1.630750 L 1.590128,1.631264 L 1.594734,1.631244 L 1.599701,1.630658 L 1.604976,1.629475 L 1.610506,1.627664 L 1.616237,1.625195 L 1.621685,1.622873 L 1.627371,1.620972 L 1.632623,1.619688 L 1.636765,1.619216 L 1.640721,1.618930 L 1.645467,1.618152 L 1.650405,1.616999 L 1.654939,1.615592 L 1.660653,1.613895 L 1.663069,1.613617 L 1.665424,1.613752 L 1.667895,1.614328 L 1.670655,1.615369 L 1.677743,1.618952 L 1.685151,1.622563 L 1.688482,1.623692 L 1.691893,1.624420 L 1.695632,1.624786 L 1.699945,1.624827 L 1.711282,1.624086 L 1.742300,1.621114 L 1.762480,1.618576 L 1.769285,1.617346 L 1.774318,1.616078 L 1.777888,1.614723 L 1.780310,1.613230 L 1.786416,1.608781 L 1.792744,1.604960 L 1.798339,1.602286 L 1.800565,1.601542 L 1.802249,1.601279 L 1.802858,1.601484 L 1.803426,1.602073 L 1.804389,1.604234 L 1.805040,1.607433 L 1.805279,1.611339 L 1.805751,1.615848 L 1.807037,1.620681 L 1.808942,1.625262 L 1.811269,1.629014 L 1.814965,1.633332 L 1.816582,1.634483 L 1.818371,1.634997 L 1.820577,1.634900 L 1.823444,1.634216 L 1.832140,1.631190 L 1.839447,1.628326 L 1.846231,1.625277 L 1.852447,1.622069 L 1.858051,1.618733 L 1.862997,1.615297 L 1.867241,1.611790 L 1.870737,1.608240 L 1.873441,1.604678 L 1.877422,1.596944 L 1.879324,1.592784 L 1.881591,1.588426 L 1.884540,1.583866 L 1.888490,1.579104 L 1.893757,1.574135 L 1.900661,1.568958 L 1.908175,1.563554 L 1.916461,1.557031 L 1.924482,1.550189 L 1.931201,1.543827 L 1.935258,1.540167 L 1.941490,1.535201 L 1.959230,1.522263 L 1.981929,1.506836 L 2.007095,1.490741 L 2.032235,1.475800 L 2.044017,1.469332 L 2.054858,1.463836 L 2.064447,1.459539 L 2.072471,1.456670 L 2.075800,1.455841 L 2.078620,1.455455 L 2.080894,1.455540 L 2.082582,1.456124 L 2.097880,1.465064 L 2.104386,1.468414 L 2.106732,1.469390 L 2.108235,1.469742 L 2.111453,1.470098 L 2.112471,1.470525 L 2.113106,1.471104 L 2.113369,1.471822 L 2.113270,1.472670 L 2.112023,1.474707 L 2.109443,1.477125 L 2.105606,1.479833 L 2.100589,1.482742 L 2.094471,1.485761 L 2.069406,1.497313 L 2.065709,1.499534 L 2.060390,1.503357 L 2.047732,1.513663 L 2.040510,1.520400 L 2.035804,1.525905 L 2.034281,1.528357 L 2.033249,1.530697 L 2.032664,1.532989 L 2.032479,1.535296 L 2.032200,1.541989 L 2.031234,1.547750 L 2.029386,1.552830 L 2.026463,1.557477 L 2.022269,1.561940 L 2.016611,1.566467 L 2.009294,1.571307 L 2.000124,1.576708 L 1.977632,1.588940 L 1.959982,1.597680 L 1.955013,1.600109 L 1.950001,1.603013 L 1.945005,1.606324 L 1.940083,1.609977 L 1.930695,1.618047 L 1.922301,1.626695 L 1.915367,1.635394 L 1.912593,1.639598 L 1.910359,1.643618 L 1.908722,1.647386 L 1.907742,1.650839 L 1.907476,1.653909 L 1.907982,1.656531 L 1.908860,1.657625 L 1.910537,1.658574 L 1.915915,1.660036 L 1.923370,1.660918 L 1.932156,1.661217 L 1.941525,1.660935 L 1.950733,1.660069 L 1.959032,1.658619 L 1.965677,1.656584 L 1.974134,1.653417 L 1.979396,1.652100 L 1.982382,1.652100 L 1.962694,1.672971 L 1.947266,1.690036 L 1.941387,1.697037 L 1.937819,1.701757 L 1.935019,1.706356 L 1.934390,1.707994 L 1.934304,1.709388 L 1.934781,1.710687 L 1.935844,1.712038 L 1.939814,1.715487 L 1.941860,1.716847 L 1.944342,1.717985 L 1.950469,1.719605 L 1.957915,1.720363 L 1.966398,1.720275 L 1.975637,1.719356 L 1.985349,1.717623 L 1.995255,1.715091 L 2.005072,1.711778 L 2.015549,1.707930 L 2.019022,1.706888 L 2.021591,1.706406 L 2.023458,1.706467 L 2.024829,1.707051 L 2.025906,1.708139 L 2.026894,1.709710 L 2.028602,1.711717 L 2.031114,1.713361 L 2.034092,1.714471 L 2.037198,1.714879 L 2.044610,1.714879 L 2.072176,1.705797 L 2.083776,1.701649 L 2.094982,1.697071 L 2.104516,1.692617 L 2.111102,1.688845 L 2.116739,1.685371 L 2.123691,1.681729 L 2.131075,1.678353 L 2.138007,1.675673 L 2.147041,1.672804 L 2.149915,1.672327 L 2.151983,1.672601 L 2.153463,1.673712 L 2.154571,1.675744 L 2.156542,1.682909 L 2.159140,1.692277 L 2.160560,1.695872 L 2.162152,1.698719 L 2.163986,1.700806 L 2.166130,1.702117 L 2.168652,1.702637 L 2.171622,1.702352 L 2.175108,1.701246 L 2.179178,1.699305 L 2.183902,1.696514 L 2.189348,1.692858 L 2.202682,1.682893 L 2.219729,1.669291 L 2.226912,1.663778 L 2.233514,1.659264 L 2.238801,1.656213 L 2.240722,1.655382 L 2.242041,1.655091 L 2.244933,1.654669 L 2.248195,1.653454 L 2.251757,1.651525 L 2.255552,1.648959 L 2.259508,1.645835 L 2.263559,1.642229 L 2.271662,1.633885 L 2.279308,1.624548 L 2.285943,1.614840 L 2.288709,1.610040 L 2.291014,1.605381 L 2.292790,1.600940 L 2.293967,1.596795 L 2.295643,1.592284 L 2.298777,1.586633 L 2.302923,1.580563 L 2.307631,1.574795 L 2.317573,1.552892 L 2.322730,1.542577 L 2.328032,1.532677 L 2.333490,1.523183 L 2.339119,1.514089 L 2.344934,1.505388 L 2.350947,1.497070 L 2.357174,1.489130 L 2.363627,1.481560 L 2.370321,1.474351 L 2.377270,1.467498 L 2.384487,1.460991 L 2.391987,1.454825 L 2.399784,1.448990 L 2.407891,1.443481 L 2.416322,1.438289 L 2.425091,1.433406 L 2.434213,1.428827 L 2.443700,1.424542 L 2.453568,1.420544 L 2.463829,1.416827 L 2.474499,1.413382 L 2.485590,1.410202 L 2.497117,1.407280 L 2.509094,1.404608 L 2.521534,1.402179 L 2.534451,1.399985 L 2.561775,1.396272 L 2.591176,1.393411 L 2.622765,1.391341 L 2.656653,1.390003 L 2.692954,1.389337 L 2.731776,1.389283 L 2.773233,1.389781 L 2.817436,1.390772 L 2.914522,1.393993 L 3.023928,1.398467 L 3.146543,1.403718 L 3.283259,1.409265 L 3.434968,1.414632 L 3.437904,1.414700 L 3.439811,1.415158 L 3.440519,1.415793 L 3.441136,1.416838 L 3.442321,1.420570 L 3.442705,1.424866 L 3.442467,1.431422 L 3.441716,1.439493 L 3.440563,1.448331 L 3.439117,1.457188 L 3.437487,1.465318 L 3.435784,1.471974 L 3.434117,1.476409 L 3.431405,1.481581 L 3.359364,1.547150 L 3.349121,1.550299 L 3.326173,1.556824 L 3.315379,1.560184 L 3.304741,1.564418 L 3.294533,1.569356 L 3.285027,1.574826 L 3.276498,1.580658 L 3.269216,1.586680 L 3.263457,1.592720 L 3.261233,1.595694 L 3.259492,1.598609 L 3.257212,1.602182 L 3.254572,1.604908 L 3.251744,1.606647 L 3.248901,1.607258 L 3.242782,1.607258 L 3.178451,1.637153 L 3.175299,1.637153 L 3.172869,1.638285 L 3.168583,1.641369 L 3.163045,1.645932 L 3.156860,1.651505 L 3.151072,1.657328 L 3.146645,1.662668 L 3.143570,1.667555 L 3.141840,1.672022 L 3.141478,1.674107 L 3.141448,1.676099 L 3.141751,1.678002 L 3.142385,1.679819 L 3.143350,1.681554 L 3.144644,1.683212 L 3.148217,1.686310 L 3.151879,1.688249 L 3.156412,1.689642 L 3.161611,1.690487 L 3.167272,1.690785 L 3.173190,1.690534 L 3.179160,1.689733 L 3.184978,1.688382 L 3.190438,1.686479 L 3.196697,1.684013 L 3.201508,1.682470 L 3.204901,1.681868 L 3.206906,1.682227 L 3.207396,1.682772 L 3.207550,1.683565 L 3.206863,1.685899 L 3.204875,1.689250 L 3.201614,1.693636 L 3.197936,1.698595 L 3.195256,1.702993 L 3.193568,1.706939 L 3.192864,1.710544 L 3.193138,1.713917 L 3.194383,1.717168 L 3.196592,1.720407 L 3.199758,1.723744 L 3.202641,1.726148 L 3.205649,1.727809 L 3.209164,1.728703 L 3.213568,1.728809 L 3.219242,1.728102 L 3.226568,1.726561 L 3.247699,1.720884 L 3.267884,1.715513 L 3.274971,1.714133 L 3.280639,1.713611 L 3.285326,1.713940 L 3.289468,1.715112 L 3.293504,1.717117 L 3.297872,1.719950 L 3.304859,1.724543 L 3.307499,1.725780 L 3.309990,1.726353 L 3.312646,1.726294 L 3.315784,1.725634 L 3.324764,1.722635 L 3.333653,1.719636 L 3.336574,1.718972 L 3.338808,1.718906 L 3.340601,1.719467 L 3.342201,1.720688 L 3.345805,1.725225 L 3.348637,1.728684 L 3.351012,1.730600 L 3.352062,1.730996 L 3.353037,1.731029 L 3.353952,1.730703 L 3.354820,1.730028 L 3.356450,1.728789 L 3.358530,1.727774 L 3.360793,1.727089 L 3.362971,1.726837 L 3.366286,1.726132 L 3.371647,1.724214 L 3.378312,1.721374 L 3.385541,1.717906 L 3.392778,1.714436 L 3.399464,1.711588 L 3.404855,1.709657 L 3.408207,1.708938 L 3.410323,1.708676 L 3.412346,1.707991 L 3.414048,1.706987 L 3.415198,1.705767 L 3.415850,1.705121 L 3.416903,1.704610 L 3.420089,1.704009 L 3.424512,1.703983 L 3.429929,1.704553 L 3.436395,1.705159 L 3.442111,1.704850 L 3.447462,1.703571 L 3.452832,1.701267 L 3.462941,1.696063 L 3.494331,1.674994 L 3.507740,1.665514 L 3.521345,1.655017 L 3.534710,1.643905 L 3.547399,1.632582 L 3.558978,1.621451 L 3.569011,1.610913 L 3.577063,1.601372 L 3.580210,1.597101 L 3.582699,1.593231 L 3.585087,1.589509 L 3.587690,1.586086 L 3.590464,1.582980 L 3.593362,1.580207 L 3.596342,1.577783 L 3.599357,1.575725 L 3.602364,1.574049 L 3.605317,1.572772 L 3.608172,1.571910 L 3.610884,1.571480 L 3.613409,1.571498 L 3.615702,1.571980 L 3.617718,1.572944 L 3.619412,1.574404 L 3.620740,1.576379 L 3.621657,1.578884 L 3.623142,1.582840 L 3.625328,1.585733 L 3.626675,1.586780 L 3.628189,1.587560 L 3.631700,1.588321 L 3.635836,1.588013 L 3.640573,1.586635 L 3.645884,1.584187 L 3.651744,1.580665 L 3.658786,1.576461 L 3.665325,1.573565 L 3.671625,1.571884 L 3.677949,1.571323 L 3.685042,1.570503 L 3.695341,1.568318 L 3.707466,1.565100 L 3.720036,1.561182 L 3.736746,1.555182 L 3.743053,1.552439 L 3.748569,1.549531 L 3.753724,1.546207 L 3.758950,1.542216 L 3.771336,1.531225 L 3.779659,1.522936 L 3.787459,1.513987 L 3.794792,1.504289 L 3.801714,1.493748 L 3.808281,1.482274 L 3.814548,1.469777 L 3.820572,1.456163 L 3.826408,1.441342 L 3.834836,1.419977 L 3.844143,1.397995 L 3.848301,1.388110 L 3.852276,1.377769 L 3.855619,1.368200 L 3.857878,1.360627 L 3.862765,1.344362 L 3.869175,1.326248 L 3.876672,1.306816 L 3.898842,1.321543 L 3.921051,1.335758 L 3.943298,1.349466 L 3.965585,1.362672 L 3.987910,1.375382 L 4.010276,1.387600 L 4.032682,1.399332 L 4.055129,1.410583 L 4.077618,1.421358 L 4.100148,1.431662 L 4.122721,1.441500 L 4.145337,1.450878 L 4.167996,1.459801 L 4.190698,1.468274 L 4.213446,1.476301 L 4.236237,1.483889 L 4.259075,1.491042 L 4.281957,1.497766 L 4.304886,1.504065 L 4.327862,1.509945 L 4.350885,1.515411 L 4.373956,1.520468 L 4.397075,1.525121 L 4.420242,1.529376 L 4.443459,1.533237 L 4.466725,1.536710 L 4.490041,1.539800 L 4.513408,1.542512 L 4.536825,1.544852 L 4.560295,1.546823 L 4.583816,1.548433 L 4.607390,1.549684 L 4.631017,1.550584 L 4.654697,1.551137 L 4.678431,1.551348 L 4.702219,1.551222 L 4.726063,1.550765 L 4.749962,1.549981 L 4.773916,1.548877 L 4.797927,1.547456 L 4.846120,1.543687 L 4.894544,1.538715 L 4.943203,1.532583 L 4.992101,1.525331 L 5.041241,1.517001 L 5.090628,1.507633 L 5.140265,1.497269 L 5.190157,1.485951 L 5.240307,1.473720 L 5.290718,1.460616 L 5.341395,1.446682 L 5.392342,1.431957 L 5.396780,1.430683 L 5.402787,1.428349 L 5.409697,1.425000 L 5.416843,1.420681 L 5.420297,1.418172 L 5.423561,1.415437 L 5.426551,1.412482 L 5.429183,1.409312 L 5.431376,1.405934 L 5.433045,1.402351 L 5.434108,1.398571 L 5.434481,1.394599 L 5.434214,1.391175 L 5.433442,1.388096 L 5.432212,1.385352 L 5.430567,1.382932 L 5.428551,1.380823 L 5.426211,1.379016 L 5.423590,1.377498 L 5.420734,1.376259 L 5.414493,1.374571 L 5.407847,1.373862 L 5.401153,1.374044 L 5.394770,1.375025 L 5.342074,1.383058 L 5.289654,1.390197 L 5.237528,1.396396 L 5.185714,1.401610 L 5.134229,1.405793 L 5.083091,1.408900 L 5.032317,1.410886 L 4.981925,1.411706 L 4.956878,1.411664 L 4.931934,1.411314 L 4.907093,1.410649 L 4.882359,1.409665 L 4.857734,1.408356 L 4.833220,1.406715 L 4.808819,1.404737 L 4.784534,1.402417 L 4.760366,1.399749 L 4.736318,1.396727 L 4.712392,1.393345 L 4.688590,1.389598 L 4.664914,1.385481 L 4.641367,1.380987 L 4.617951,1.376112 L 4.594668,1.370848 L 4.571521,1.365191 L 4.548510,1.359135 L 4.525639,1.352675 L 4.502911,1.345804 L 4.480326,1.338517 L 4.457887,1.330808 L 4.435597,1.322672 L 4.413458,1.314103 L 4.391471,1.305096 L 4.369640,1.295644 L 4.347966,1.285743 L 4.326451,1.275385 L 4.305098,1.264567 L 4.283909,1.253282 L 4.262886,1.241524 L 4.242032,1.229288 L 4.221348,1.216568 L 4.200836,1.203358 L 4.180500,1.189653 L 4.160341,1.175448 L 4.140361,1.160736 L 4.120562,1.145512 L 4.100948,1.129770 L 4.081519,1.113505 L 4.062278,1.096710 L 4.043228,1.079381 L 4.024371,1.061512 L 4.005708,1.043096 L 3.987242,1.024129 L 3.968975,1.004604 L 3.950910,0.984516 L 3.933048,0.963860 L 3.920521,0.951000 L 3.916750,0.946467 L 3.914339,0.942578 L 3.913062,0.938869 L 3.912695,0.934873 L 3.913784,0.924164 L 3.914573,0.914369 L 3.914897,0.900958 L 3.914744,0.885698 L 3.914104,0.870353 L 3.911953,0.834480 L 3.912229,0.824239 L 3.912059,0.819773 L 3.911392,0.815184 L 3.910334,0.811012 L 3.908992,0.807796 L 3.907370,0.804413 L 3.905608,0.799800 L 3.901847,0.787551 L 3.898074,0.772373 L 3.894653,0.755592 L 3.892840,0.747271 L 3.890369,0.738518 L 3.887270,0.729384 L 3.883574,0.719923 L 3.879312,0.710186 L 3.874513,0.700226 L 3.869208,0.690095 L 3.863428,0.679844 L 3.857202,0.669526 L 3.850563,0.659194 L 3.843539,0.648899 L 3.836161,0.638693 L 3.828460,0.628628 L 3.820467,0.618758 L 3.812211,0.609133 L 3.803723,0.599806 L 3.789577,0.584237 L 3.781165,0.574092 L 3.775295,0.565911 L 3.769064,0.557842 L 3.762644,0.550071 L 3.756206,0.542786 L 3.749921,0.536174 L 3.743961,0.530422 L 3.738496,0.525716 L 3.733699,0.522246 L 3.723414,0.515096 L 3.708812,0.504090 L 3.671649,0.474573 L 3.632201,0.441813 L 3.614742,0.426755 L 3.600457,0.413933 L 3.590304,0.405083 L 3.578130,0.395306 L 3.565463,0.385789 L 3.553835,0.377721 L 3.528139,0.360879 L 3.524321,0.356279 L 3.522428,0.354494 L 3.520095,0.353031 L 3.517618,0.352043 L 3.515294,0.351680 L 3.512707,0.351267 L 3.509514,0.350143 L 3.506121,0.348480 L 3.502934,0.346448 L 3.495092,0.341071 L 3.488207,0.337081 L 3.482515,0.334598 L 3.480189,0.333959 L 3.478249,0.333743 L 3.476496,0.333430 L 3.474833,0.332579 L 3.473445,0.331318 L 3.472523,0.329779 L 3.470553,0.327571 L 3.466313,0.324489 L 3.460427,0.320943 L 3.453519,0.317339 L 3.431552,0.306363 L 3.404647,0.293096 L 3.382226,0.282327 L 3.282382,0.238080 L 3.275504,0.237809 L 3.273138,0.237558 L 3.270443,0.236884 L 3.267104,0.235631 L 3.262807,0.233645 L 3.250084,0.226856 L 3.229763,0.215279 L 3.225219,0.213068 L 3.219477,0.210868 L 3.213273,0.208934 L 3.207342,0.207520 L 3.186223,0.203309 L 3.184278,0.202737 L 3.182437,0.201855 L 3.180684,0.200648 L 3.179006,0.199103 L 3.175821,0.194938 L 3.172770,0.189243 L 3.169973,0.184004 L 3.166777,0.179640 L 3.163015,0.176065 L 3.158522,0.173194 L 3.153131,0.170940 L 3.146676,0.169216 L 3.138990,0.167938 L 3.129909,0.167017 L 3.122793,0.166361 L 3.117209,0.165552 L 3.112976,0.164467 L 3.109913,0.162986 L 3.107838,0.160985 L 3.106573,0.158341 L 3.105935,0.154933 L 3.105745,0.150638 L 3.105700,0.142417 L 3.068626,0.142417 L 3.047098,0.142255 L 3.040282,0.141870 L 3.035423,0.141121 L 3.032015,0.139886 L 3.029552,0.138043 L 3.027528,0.135472 L 3.025437,0.132050 L 3.022484,0.127880 L 3.018966,0.124189 L 3.015323,0.121377 L 3.011996,0.119845 L 3.007637,0.119259 L 3.001112,0.119018 L 2.984030,0.119445 L 2.965687,0.120869 L 2.957585,0.121874 L 2.951019,0.123032 L 2.945674,0.123823 L 2.943539,0.123700 L 2.941594,0.123162 L 2.939711,0.122159 L 2.937763,0.120640 L 2.933164,0.115847 L 2.930411,0.112782 L 2.927960,0.110476 L 2.925355,0.108823 L 2.922142,0.107713 L 2.917865,0.107039 L 2.912070,0.106691 L 2.894105,0.106543 L 2.883158,0.106724 L 2.872745,0.107247 L 2.863058,0.108082 L 2.854292,0.109201 L 2.846641,0.110573 L 2.840298,0.112169 L 2.835457,0.113961 L 2.832312,0.115918 L 2.830288,0.117438 L 2.828313,0.118207 L 2.826325,0.118187 L 2.824262,0.117341 L 2.822060,0.115631 L 2.819656,0.113018 L 2.813994,0.104938 L 2.810033,0.099390 L 2.805820,0.094718 L 2.801758,0.091316 L 2.799910,0.090213 L 2.798251,0.089576 L 2.791082,0.087777 L 2.762296,0.089504 L 2.750381,0.090465 L 2.739219,0.091807 L 2.730061,0.093352 L 2.724158,0.094921 L 2.718704,0.096742 L 2.716626,0.096914 L 2.714718,0.096488 L 2.712781,0.095387 L 2.710620,0.093533 L 2.704830,0.087249 L 2.701490,0.083501 L 2.698687,0.080704 L 2.696022,0.078743 L 2.693098,0.077502 L 2.689515,0.076867 L 2.684876,0.076723 L 2.670834,0.077448 L 2.660447,0.078454 L 2.649919,0.080039 L 2.640482,0.081984 L 2.633363,0.084073 L 2.619311,0.089016 L 2.604418,0.093791 L 2.595335,0.096346 L 2.592229,0.096876 L 2.589696,0.096857 L 2.587447,0.096251 L 2.585194,0.095021 L 2.579525,0.090537 L 2.574164,0.086598 L 2.571552,0.085219 L 2.568816,0.084180 L 2.565826,0.083441 L 2.562455,0.082962 L 2.554053,0.082627 L 2.547153,0.082890 L 2.540246,0.083603 L 2.534134,0.084659 L 2.529619,0.085949 L 2.511218,0.093483 L 2.498304,0.099384 L 2.489428,0.104376 L 2.486052,0.106758 L 2.483142,0.109185 L 2.479950,0.111812 L 2.477336,0.113463 L 2.475570,0.114003 L 2.475089,0.113813 L 2.474921,0.113295 L 2.474496,0.110917 L 2.473296,0.108616 L 2.471430,0.106465 L 2.469009,0.104538 L 2.466143,0.102911 L 2.462943,0.101657 L 2.459519,0.100850 L 2.455981,0.100564 L 2.451112,0.100913 L 2.445425,0.101976 L 2.438856,0.103777 L 2.431338,0.106340 L 2.422808,0.109689 L 2.413198,0.113849 L 2.390481,0.124696 L 2.376213,0.131589 L 2.371169,0.133720 L 2.367135,0.135079 L 2.363826,0.135745 L 2.360954,0.135797 L 2.358233,0.135315 L 2.355376,0.134376 L 2.351449,0.133543 L 2.346482,0.133529 L 2.340633,0.134265 L 2.334055,0.135679 L 2.326904,0.137703 L 2.319334,0.140264 L 2.311502,0.143294 L 2.303562,0.146721 L 2.295669,0.150476 L 2.287979,0.154488 L 2.280646,0.158686 L 2.273825,0.163000 L 2.267672,0.167360 L 2.262342,0.171696 L 2.257990,0.175937 L 2.254771,0.180012 L 2.251886,0.184223 L 2.250884,0.185297 L 2.250044,0.185692 L 2.249265,0.185418 L 2.248450,0.184480 L 2.246313,0.180643 L 2.244594,0.178080 L 2.242550,0.176154 L 2.240436,0.175053 L 2.238508,0.174962 L 2.226795,0.177477 L 2.221797,0.178612 L 2.216842,0.180203 L 2.211887,0.182275 L 2.206888,0.184851 L 2.201803,0.187956 L 2.196590,0.191614 L 2.191204,0.195848 L 2.185605,0.200684 L 2.177749,0.207316 L 2.174465,0.209664 L 2.171456,0.211447 L 2.168602,0.212728 L 2.165787,0.213567 L 2.162895,0.214025 L 2.159807,0.214164 L 2.155245,0.214602 L 2.149705,0.215801 L 2.143626,0.217591 L 2.137445,0.219802 L 2.131599,0.222265 L 2.126527,0.224809 L 2.122666,0.227263 L 2.120454,0.229459 L 2.119467,0.230485 L 2.117986,0.231325 L 2.116211,0.231893 L 2.114344,0.232101 L 2.111881,0.232741 L 2.107882,0.234753 L 2.102145,0.238278 L 2.094468,0.243456 L 2.072491,0.259328 L 2.040339,0.283488 L 1.983153,0.326048 L 1.956248,0.345621 L 1.845637,0.454817 L 1.820227,0.485809 L 1.798768,0.512737 L 1.782858,0.533957 L 1.770900,0.551112 L 1.713697,0.631196 L 1.703690,0.649132 L 1.691379,0.669823 L 1.675832,0.694381 L 1.657979,0.721693 L 1.640426,0.707548 L 1.628608,0.698464 L 1.617459,0.690892 L 1.606633,0.684692 L 1.595783,0.679726 L 1.584562,0.675855 L 1.572625,0.672940 L 1.559624,0.670842 L 1.545214,0.669424 L 1.535435,0.668991 L 1.527859,0.669410 L 1.521673,0.670789 L 1.516062,0.673234 L 1.510218,0.676088 L 1.507892,0.676694 L 1.505587,0.676705 L 1.503020,0.676086 L 1.499909,0.674801 L 1.490923,0.670096 L 1.481491,0.664675 L 1.469788,0.657502 L 1.442544,0.639878 L 1.415145,0.621183 L 1.403247,0.612669 L 1.393544,0.605372 L 1.384739,0.598866 L 1.377326,0.594353 L 1.374049,0.592855 L 1.371011,0.591868 L 1.368175,0.591397 L 1.365505,0.591445 L 1.362964,0.592018 L 1.360516,0.593119 L 1.358124,0.594754 L 1.355753,0.596925 L 1.350925,0.602898 L 1.345742,0.611072 L 1.343049,0.615777 L 1.341018,0.619935 L 1.339560,0.624178 L 1.338590,0.629141 L 1.338022,0.635458 L 1.337768,0.643762 L 1.337859,0.668870 L 1.338355,0.692683 L 1.338856,0.701741 L 1.339610,0.709584 L 1.340678,0.716727 L 1.342123,0.723683 L 1.346393,0.739088 L 1.349738,0.749123 L 1.353506,0.758722 L 1.357658,0.767817 L 1.362156,0.776340 L 1.366959,0.784220 L 1.372029,0.791390 L 1.377328,0.797780 L 1.382815,0.803322 L 1.392537,0.811348 L 1.403758,0.819093 L 1.416191,0.826421 L 1.429549,0.833198 L 1.443546,0.839290 L 1.457895,0.844561 L 1.472310,0.848876 L 1.486505,0.852101 L 1.504045,0.855406 L 1.483809,0.877827 L 1.474106,0.889051 L 1.464589,0.901009 L 1.455270,0.913677 L 1.446159,0.927035 L 1.437267,0.941061 L 1.428605,0.955734 L 1.420184,0.971030 L 1.412015,0.986929 L 1.404107,1.003408 L 1.396473,1.020447 L 1.389123,1.038023 L 1.382067,1.056114 L 1.375317,1.074699 L 1.368884,1.093756 L 1.362777,1.113263 L 1.357009,1.133198 L 1.354433,1.143119 L 1.351993,1.153887 L 1.347432,1.178519 L 1.343143,1.208200 L 1.338948,1.244037 L 1.336908,1.260108 L 1.333956,1.279556 L 1.330489,1.299929 L 1.326901,1.318774 L 1.318377,1.360627 L 1.310680,1.380961 L 1.303983,1.397252 L 1.300966,1.403710 L 1.298692,1.407866 L 1.294402,1.414437 L 1.264260,1.485777 L 1.256816,1.497025 L 1.253397,1.503190 L 1.249590,1.511661 L 1.245860,1.521320 L 1.242671,1.531052 L 1.239200,1.543513 L 1.238236,1.547902 L 1.237761,1.551402 L 1.237755,1.554266 L 1.238199,1.556746 L 1.240361,1.561570 L 1.243471,1.566375 L 1.246962,1.570513 L 1.250830,1.573980 L 1.255068,1.576772 L 1.259669,1.578886 L 1.264628,1.580318 L 1.269937,1.581065 L 1.275592,1.581124 L 1.289595,1.580436 L 1.325469,1.579530 L 1.344255,1.578815 L 1.351246,1.578281 L 1.357027,1.577568 L 1.361892,1.576630 L 1.366135,1.575422 L 1.370049,1.573899 L 1.373929,1.572015 L 1.379356,1.569446 L 1.384829,1.567336 L 1.389709,1.565904 L 1.393360,1.565368 L 1.397159,1.564730 L 1.402578,1.562974 L 1.409228,1.560287 L 1.416719,1.556855 L 1.424663,1.552867 L 1.432669,1.548509 L 1.440349,1.543968 L 1.447313,1.539432 L 1.452538,1.535216 L 1.458459,1.529468 L 1.464350,1.522946 L 1.469482,1.516404 L 1.475381,1.508941 L 1.483359,1.499910 L 1.492370,1.490450 L 1.501367,1.481700 L 1.522316,1.462269 L 1.526565,1.462248 "/>
        <path style="fill:none;stroke-width:0.010000;stroke-linecap:round;stroke-linejoin:round;stroke-opacity:1;stroke:#000000;" d="M 1.529500,1.068800 A 0.062500,0.062500 0 0,0 1.467000,1.131300 A 0.062500,0.062500 0 0,0 1.529500,1.193800 A 0.062500,0.062500 0 0,0 1.592000,1.131300 A 0.062500,0.062500 0 0,0 1.529500,1.068800 "/>
    </g>
    <g inkscape:groupmode="layer" id="7ccff119-aaeb-43c8-8d55-6f1f0bada2eb" inkscape:label="text"/>
    <g inkscape:groupmode="layer" id="98f8fa1f-dbab-4e81-91c5-5ec1bc5d7143" inkscape:label="bounding box">
        <path style="fill:none;stroke-width:0.010000;stroke-linecap:round;stroke-linejoin:round;stroke-opacity:1;stroke:#e9e9e9;" d="M 0.000000,2.000000 L 5.500000,2.000000 L 5.500000,0.000000 L 0.000000,0.000000 L 0.000000,2.000000 "/>
    </g>
</svg>
