<?xml version="1.0" encoding="UTF-8"?>
<!-- Created by Vectric (http://www.vectric.com/) -->
<svg width="4.75000000in" height="2.00000000in" viewBox="0 0 4.75000000 2.00000000" id="svg2" version="1.1" xmlns="http://www.w3.org/2000/svg" xmlns:xlink="http://www.w3.org/1999/xlink" xmlns:inkscape="http://www.inkscape.org/namespaces/inkscape">
    <g inkscape:groupmode="layer" id="4ac99bcd-324b-4e32-a992-71564f19513e" inkscape:label="Layer 1">
        <path style="fill:none;stroke-width:0.010000;stroke-linecap:round;stroke-linejoin:round;stroke-opacity:1;stroke:#000000;" d="M 1.180349,1.068800 A 0.062500,0.062500 0 0,0 1.117849,1.131300 A 0.062500,0.062500 0 0,0 1.180349,1.193800 A 0.062500,0.062500 0 0,0 1.242849,1.131300 A 0.062500,0.062500 0 0,0 1.180349,1.068800 "/>
        <path style="fill:none;stroke-width:0.010000;stroke-linecap:round;stroke-linejoin:round;stroke-opacity:1;stroke:#000000;" d="M 4.681920,1.502878 C 4.703965,1.499101 4.720771,1.479356 4.720771,1.455567 C 4.720771,1.429078 4.699934,1.407604 4.674230,1.407604 C 4.673194,1.407604 4.672165,1.407639 4.671146,1.407709 L 4.652169,1.408898 L 4.602899,1.410884 L 4.554001,1.411704 L 4.529696,1.411662 L 4.505491,1.411312 L 4.481386,1.410648 L 4.457385,1.409663 L 4.433490,1.408354 L 4.409702,1.406713 L 4.386024,1.404735 L 4.362458,1.402415 L 4.339006,1.399747 L 4.315671,1.396725 L 4.292454,1.393343 L 4.269357,1.389597 L 4.246383,1.385479 L 4.223534,1.380986 L 4.200812,1.376110 L 4.178219,1.370846 L 4.155757,1.365189 L 4.133428,1.359134 L 4.111235,1.352673 L 4.089180,1.345802 L 4.067264,1.338515 L 4.045490,1.330807 L 4.023861,1.322671 L 4.002377,1.314102 L 3.981042,1.305095 L 3.959858,1.295643 L 3.938826,1.285741 L 3.917949,1.275384 L 3.897229,1.264566 L 3.876667,1.253280 L 3.856267,1.241522 L 3.836031,1.229286 L 3.815960,1.216566 L 3.796056,1.203357 L 3.776322,1.189652 L 3.756760,1.175447 L 3.737372,1.160735 L 3.718160,1.145511 L 3.699127,1.129769 L 3.680274,1.113504 L 3.661603,1.096710 L 3.643118,1.079381 L 3.624819,1.061511 L 3.606709,1.043095 L 3.588790,1.024128 L 3.571065,1.004603 L 3.553535,0.984516 L 3.536203,0.963859 L 3.524047,0.951000 L 3.520387,0.946467 L 3.518047,0.942578 L 3.516809,0.938869 L 3.516452,0.934873 L 3.517509,0.924164 L 3.518275,0.914369 L 3.518589,0.900958 L 3.518440,0.885698 L 3.517819,0.870353 L 3.515733,0.834480 L 3.516000,0.824239 L 3.515835,0.819773 L 3.515188,0.815185 L 3.514162,0.811013 L 3.512859,0.807797 L 3.511285,0.804413 L 3.509575,0.799800 L 3.505926,0.787551 L 3.502265,0.772374 L 3.498945,0.755593 L 3.497186,0.747271 L 3.494788,0.738518 L 3.491781,0.729385 L 3.488195,0.719924 L 3.484058,0.710187 L 3.479401,0.700227 L 3.474254,0.690096 L 3.468645,0.679845 L 3.462604,0.669527 L 3.456161,0.659195 L 3.449345,0.648899 L 3.442186,0.638694 L 3.434713,0.628629 L 3.426957,0.618759 L 3.418945,0.609134 L 3.410709,0.599807 L 3.396982,0.584238 L 3.388819,0.574093 L 3.383123,0.565913 L 3.377077,0.557843 L 3.370848,0.550073 L 3.364600,0.542787 L 3.358502,0.536175 L 3.352718,0.530423 L 3.347415,0.525718 L 3.342760,0.522247 L 3.332780,0.515097 L 3.318610,0.504092 L 3.282549,0.474574 L 3.244270,0.441815 L 3.227327,0.426757 L 3.213466,0.413934 L 3.203614,0.405085 L 3.191800,0.395308 L 3.179509,0.385791 L 3.168225,0.377723 L 3.143290,0.360881 L 3.139586,0.356281 L 3.137749,0.354496 L 3.135485,0.353033 L 3.133082,0.352045 L 3.130827,0.351682 L 3.128316,0.351269 L 3.125218,0.350145 L 3.121926,0.348482 L 3.118832,0.346450 L 3.111223,0.341073 L 3.104542,0.337083 L 3.099018,0.334600 L 3.096761,0.333961 L 3.094879,0.333745 L 3.093178,0.333432 L 3.091564,0.332581 L 3.090218,0.331320 L 3.089323,0.329781 L 3.087411,0.327573 L 3.083297,0.324492 L 3.077585,0.320945 L 3.070882,0.317341 L 3.049566,0.306366 L 3.023458,0.293098 L 3.001701,0.282330 L 2.904816,0.238082 L 2.898141,0.237812 L 2.895846,0.237561 L 2.893231,0.236886 L 2.889990,0.235633 L 2.885821,0.233647 L 2.873475,0.226858 L 2.853755,0.215282 L 2.849346,0.213070 L 2.843775,0.210870 L 2.837754,0.208936 L 2.831999,0.207522 L 2.811506,0.203312 L 2.809619,0.202739 L 2.807832,0.201857 L 2.806131,0.200651 L 2.804503,0.199105 L 2.801412,0.194940 L 2.798452,0.189246 L 2.795738,0.184006 L 2.792636,0.179642 L 2.788986,0.176068 L 2.784626,0.173196 L 2.779394,0.170942 L 2.773130,0.169219 L 2.765673,0.167940 L 2.756860,0.167020 L 2.749956,0.166363 L 2.744537,0.165554 L 2.740429,0.164470 L 2.737457,0.162989 L 2.735444,0.160988 L 2.734216,0.158344 L 2.733597,0.154936 L 2.733413,0.150641 L 2.733368,0.142420 L 2.697394,0.142420 L 2.676503,0.142258 L 2.669889,0.141873 L 2.665174,0.141124 L 2.661867,0.139889 L 2.659477,0.138046 L 2.657513,0.135475 L 2.655484,0.132053 L 2.652619,0.127883 L 2.649204,0.124192 L 2.645670,0.121380 L 2.642442,0.119848 L 2.638212,0.119261 L 2.631879,0.119020 L 2.615304,0.119447 L 2.597504,0.120871 L 2.589643,0.121877 L 2.583271,0.123034 L 2.578085,0.123826 L 2.576013,0.123703 L 2.574125,0.123165 L 2.572298,0.122162 L 2.570408,0.120643 L 2.565945,0.115850 L 2.563274,0.112784 L 2.560895,0.110479 L 2.558367,0.108826 L 2.555249,0.107716 L 2.551099,0.107042 L 2.545476,0.106694 L 2.528044,0.106546 L 2.517421,0.106727 L 2.507316,0.107250 L 2.497916,0.108085 L 2.489410,0.109203 L 2.481986,0.110576 L 2.475831,0.112172 L 2.471133,0.113964 L 2.468082,0.115921 L 2.466117,0.117441 L 2.464201,0.118210 L 2.462272,0.118190 L 2.460270,0.117344 L 2.458133,0.115633 L 2.455801,0.113021 L 2.450306,0.104941 L 2.446462,0.099393 L 2.442374,0.094721 L 2.438433,0.091319 L 2.436640,0.090216 L 2.435030,0.089579 L 2.428073,0.087780 L 2.400140,0.089507 L 2.388578,0.090468 L 2.377747,0.091810 L 2.368860,0.093355 L 2.363132,0.094924 L 2.357840,0.096745 L 2.355824,0.096916 L 2.353972,0.096491 L 2.352093,0.095390 L 2.349995,0.093536 L 2.344376,0.087252 L 2.341135,0.083504 L 2.338415,0.080707 L 2.335830,0.078746 L 2.332992,0.077505 L 2.329516,0.076870 L 2.325014,0.076726 L 2.311388,0.077451 L 2.301309,0.078457 L 2.291093,0.080042 L 2.281935,0.081987 L 2.275027,0.084076 L 2.261392,0.089019 L 2.246940,0.093794 L 2.238126,0.096349 L 2.235112,0.096879 L 2.232654,0.096860 L 2.230472,0.096254 L 2.228286,0.095024 L 2.222785,0.090540 L 2.217582,0.086601 L 2.215048,0.085222 L 2.212393,0.084183 L 2.209492,0.083444 L 2.206220,0.082965 L 2.198068,0.082630 L 2.191372,0.082892 L 2.184670,0.083606 L 2.178739,0.084662 L 2.174358,0.085952 L 2.156502,0.093485 L 2.143970,0.099386 L 2.135357,0.104379 L 2.132081,0.106761 L 2.129257,0.109187 L 2.126160,0.111815 L 2.123623,0.113466 L 2.121909,0.114005 L 2.121443,0.113816 L 2.121280,0.113298 L 2.120868,0.110920 L 2.119703,0.108618 L 2.117892,0.106467 L 2.115543,0.104541 L 2.112762,0.102914 L 2.109657,0.101660 L 2.106334,0.100853 L 2.102901,0.100567 L 2.098176,0.100916 L 2.092658,0.101979 L 2.086283,0.103780 L 2.078989,0.106343 L 2.070711,0.109692 L 2.061386,0.113852 L 2.039342,0.124699 L 2.025497,0.131592 L 2.020602,0.133723 L 2.016688,0.135082 L 2.013477,0.135748 L 2.010690,0.135800 L 2.008049,0.135318 L 2.005277,0.134379 L 2.001466,0.133546 L 1.996647,0.133532 L 1.990971,0.134267 L 1.984588,0.135682 L 1.977648,0.137705 L 1.970303,0.140267 L 1.962703,0.143297 L 1.954998,0.146724 L 1.947339,0.150479 L 1.939877,0.154490 L 1.932761,0.158689 L 1.926143,0.163003 L 1.920172,0.167363 L 1.915000,0.171699 L 1.910777,0.175940 L 1.907653,0.180015 L 1.904854,0.184226 L 1.903882,0.185299 L 1.903066,0.185695 L 1.902311,0.185420 L 1.901520,0.184482 L 1.899446,0.180646 L 1.897778,0.178083 L 1.895794,0.176157 L 1.893743,0.175056 L 1.891872,0.174965 L 1.880506,0.177480 L 1.875657,0.178615 L 1.870848,0.180206 L 1.866040,0.182278 L 1.861189,0.184854 L 1.856255,0.187959 L 1.851196,0.191616 L 1.845970,0.195851 L 1.840536,0.200686 L 1.832913,0.207319 L 1.829727,0.209666 L 1.826806,0.211450 L 1.824037,0.212730 L 1.821306,0.213569 L 1.818499,0.214027 L 1.815503,0.214167 L 1.811076,0.214604 L 1.805701,0.215803 L 1.799801,0.217593 L 1.793803,0.219805 L 1.788131,0.222268 L 1.783209,0.224811 L 1.779462,0.227266 L 1.777316,0.229461 L 1.776358,0.230487 L 1.774921,0.231327 L 1.773199,0.231895 L 1.771387,0.232103 L 1.768997,0.232743 L 1.765117,0.234756 L 1.759549,0.238281 L 1.752100,0.243458 L 1.730774,0.259330 L 1.699575,0.283490 L 1.644083,0.326050 L 1.617975,0.345623 L 1.510642,0.454818 L 1.485984,0.485811 L 1.465162,0.512738 L 1.449723,0.533958 L 1.438120,0.551113 L 1.382611,0.631196 L 1.372901,0.649133 L 1.360955,0.669824 L 1.345868,0.694382 L 1.328544,0.721693 L 1.311511,0.707549 L 1.300044,0.698465 L 1.289225,0.690893 L 1.278720,0.684693 L 1.268191,0.679727 L 1.257303,0.675855 L 1.245719,0.672941 L 1.233104,0.670843 L 1.219120,0.669425 L 1.209631,0.668991 L 1.202280,0.669411 L 1.196277,0.670790 L 1.190833,0.673235 L 1.185162,0.676089 L 1.182905,0.676695 L 1.180668,0.676706 L 1.178177,0.676087 L 1.175158,0.674802 L 1.166438,0.670097 L 1.157286,0.664676 L 1.145930,0.657503 L 1.119493,0.639879 L 1.092905,0.621184 L 1.081361,0.612670 L 1.071944,0.605373 L 1.063401,0.598867 L 1.056207,0.594354 L 1.053027,0.592856 L 1.050079,0.591869 L 1.047327,0.591398 L 1.044736,0.591446 L 1.042270,0.592019 L 1.039895,0.593121 L 1.037574,0.594755 L 1.035273,0.596927 L 1.030589,0.602899 L 1.025559,0.611073 L 1.022946,0.615778 L 1.020975,0.619936 L 1.019560,0.624179 L 1.018619,0.629142 L 1.018067,0.635459 L 1.017821,0.643763 L 1.017909,0.668871 L 1.018391,0.692684 L 1.018877,0.701741 L 1.019608,0.709585 L 1.020645,0.716728 L 1.022047,0.723684 L 1.026191,0.739089 L 1.029437,0.749123 L 1.033093,0.758723 L 1.037122,0.767818 L 1.041486,0.776340 L 1.046147,0.784221 L 1.051067,0.791391 L 1.056209,0.797781 L 1.061533,0.803322 L 1.070968,0.811348 L 1.081856,0.819093 L 1.093920,0.826421 L 1.106883,0.833199 L 1.120465,0.839290 L 1.134389,0.844561 L 1.148377,0.848876 L 1.162151,0.852102 L 1.179172,0.855406 L 1.159535,0.877827 L 1.150119,0.889051 L 1.140885,0.901009 L 1.131842,0.913677 L 1.123001,0.927035 L 1.114372,0.941061 L 1.105967,0.955733 L 1.097796,0.971030 L 1.089868,0.986928 L 1.082195,1.003408 L 1.074787,1.020447 L 1.067654,1.038022 L 1.060808,1.056113 L 1.054258,1.074698 L 1.048015,1.093755 L 1.042090,1.113262 L 1.036492,1.133197 L 1.033993,1.143118 L 1.031625,1.153886 L 1.027199,1.178518 L 1.023037,1.208199 L 1.018966,1.244036 L 1.016986,1.260107 L 1.014122,1.279555 L 1.010758,1.299927 L 1.007276,1.318773 L 0.999004,1.360625 L 0.991536,1.380959 L 0.985038,1.397250 L 0.982109,1.403708 L 0.979903,1.407864 L 0.975740,1.414435 L 0.946491,1.485775 L 0.939268,1.497023 L 0.935950,1.503188 L 0.932256,1.511659 L 0.928637,1.521318 L 0.925542,1.531050 L 0.922174,1.543510 L 0.921239,1.547900 L 0.920777,1.551400 L 0.920771,1.554263 L 0.921202,1.556744 L 0.923301,1.561568 L 0.926318,1.566373 L 0.929706,1.570511 L 0.933459,1.573977 L 0.937571,1.576769 L 0.942036,1.578883 L 0.946848,1.580316 L 0.952000,1.581063 L 0.957487,1.581122 L 0.971076,1.580433 L 1.005887,1.579528 L 1.024116,1.578813 L 1.030900,1.578278 L 1.036509,1.577565 L 1.041230,1.576627 L 1.045347,1.575420 L 1.049146,1.573897 L 1.052911,1.572013 L 1.058177,1.569443 L 1.063488,1.567334 L 1.068224,1.565901 L 1.071766,1.565365 L 1.075452,1.564728 L 1.080711,1.562972 L 1.087164,1.560285 L 1.094433,1.556853 L 1.102141,1.552865 L 1.109911,1.548507 L 1.117363,1.543966 L 1.124121,1.539430 L 1.129191,1.535213 L 1.134937,1.529466 L 1.140653,1.522944 L 1.145633,1.516402 L 1.151357,1.508939 L 1.159099,1.499908 L 1.167842,1.490448 L 1.176573,1.481698 L 1.196901,1.462267 L 1.201024,1.462246 L 1.218656,1.442648 L 1.235425,1.424733 L 1.251364,1.408446 L 1.266510,1.393732 L 1.280895,1.380537 L 1.294555,1.368804 L 1.307525,1.358481 L 1.319838,1.349511 L 1.331530,1.341840 L 1.342634,1.335413 L 1.353186,1.330175 L 1.363220,1.326072 L 1.372771,1.323049 L 1.381872,1.321050 L 1.390559,1.320021 L 1.398866,1.319907 L 1.406828,1.320653 L 1.414479,1.322205 L 1.421853,1.324507 L 1.428986,1.327505 L 1.435911,1.331144 L 1.442664,1.335369 L 1.449279,1.340125 L 1.455790,1.345358 L 1.468639,1.357033 L 1.481488,1.369955 L 1.494613,1.383687 L 1.508291,1.397788 L 1.509085,1.399941 L 1.509271,1.402098 L 1.508877,1.404253 L 1.507931,1.406402 L 1.506461,1.408537 L 1.504492,1.410655 L 1.499174,1.414815 L 1.492196,1.418837 L 1.483778,1.422677 L 1.474140,1.426294 L 1.463503,1.429641 L 1.461427,1.430520 L 1.460223,1.431641 L 1.459844,1.432920 L 1.460243,1.434277 L 1.461374,1.435628 L 1.463191,1.436891 L 1.465645,1.437983 L 1.468692,1.438823 L 1.472034,1.439779 L 1.474617,1.441040 L 1.476184,1.442442 L 1.476507,1.443144 L 1.476480,1.443820 L 1.475788,1.445196 L 1.474569,1.446754 L 1.470731,1.450311 L 1.465334,1.454273 L 1.458744,1.458424 L 1.451328,1.462547 L 1.443453,1.466425 L 1.435486,1.469841 L 1.427795,1.472579 L 1.408403,1.479318 L 1.398852,1.483033 L 1.391006,1.486374 L 1.378398,1.491517 L 1.373533,1.493081 L 1.370523,1.493656 L 1.366018,1.493656 L 1.341150,1.502984 L 1.331735,1.506804 L 1.322704,1.511084 L 1.313929,1.515908 L 1.305284,1.521363 L 1.296640,1.527535 L 1.287869,1.534509 L 1.278843,1.542372 L 1.269435,1.551210 L 1.262957,1.557803 L 1.257758,1.563789 L 1.253820,1.569208 L 1.251125,1.574102 L 1.249654,1.578512 L 1.249389,1.582479 L 1.249703,1.584309 L 1.250311,1.586044 L 1.252402,1.589249 L 1.255090,1.592643 L 1.255723,1.594005 L 1.255866,1.595329 L 1.255510,1.596754 L 1.254643,1.598420 L 1.251334,1.603029 L 1.248561,1.607182 L 1.246704,1.611111 L 1.245711,1.614785 L 1.245530,1.618172 L 1.246111,1.621242 L 1.247402,1.623964 L 1.249351,1.626307 L 1.251907,1.628239 L 1.255019,1.629729 L 1.258635,1.630747 L 1.262703,1.631261 L 1.267173,1.631241 L 1.271993,1.630655 L 1.277112,1.629472 L 1.282478,1.627662 L 1.288039,1.625192 L 1.293326,1.622871 L 1.298844,1.620970 L 1.303939,1.619685 L 1.307959,1.619213 L 1.311798,1.618927 L 1.316403,1.618149 L 1.321194,1.616997 L 1.325594,1.615590 L 1.331139,1.613893 L 1.333483,1.613614 L 1.335769,1.613750 L 1.338166,1.614325 L 1.340844,1.615366 L 1.347723,1.618949 L 1.354911,1.622560 L 1.358143,1.623689 L 1.361453,1.624418 L 1.365081,1.624784 L 1.369267,1.624825 L 1.380268,1.624083 L 1.410367,1.621111 L 1.429949,1.618573 L 1.436553,1.617344 L 1.441436,1.616076 L 1.444901,1.614720 L 1.447251,1.613227 L 1.453176,1.608778 L 1.459316,1.604957 L 1.464746,1.602283 L 1.466905,1.601539 L 1.468540,1.601277 L 1.469130,1.601482 L 1.469681,1.602070 L 1.470616,1.604232 L 1.471248,1.607430 L 1.471480,1.611337 L 1.471938,1.615846 L 1.473186,1.620679 L 1.475034,1.625260 L 1.477293,1.629012 L 1.480879,1.633329 L 1.482447,1.634481 L 1.484184,1.634995 L 1.486324,1.634897 L 1.489106,1.634213 L 1.497545,1.631187 L 1.504635,1.628324 L 1.511218,1.625274 L 1.517250,1.622066 L 1.522688,1.618730 L 1.527488,1.615294 L 1.531606,1.611787 L 1.534998,1.608238 L 1.537622,1.604675 L 1.541485,1.596941 L 1.543331,1.592781 L 1.545530,1.588423 L 1.548392,1.583864 L 1.552225,1.579101 L 1.557336,1.574132 L 1.564035,1.568955 L 1.571327,1.563552 L 1.579367,1.557029 L 1.587151,1.550187 L 1.593671,1.543825 L 1.597608,1.540165 L 1.603654,1.535199 L 1.620869,1.522261 L 1.642895,1.506834 L 1.667316,1.490739 L 1.691711,1.475798 L 1.703144,1.469330 L 1.713664,1.463834 L 1.722968,1.459537 L 1.730755,1.456668 L 1.733985,1.455840 L 1.736722,1.455453 L 1.738928,1.455538 L 1.740566,1.456122 L 1.755411,1.465062 L 1.761724,1.468412 L 1.764000,1.469388 L 1.765459,1.469740 L 1.768582,1.470096 L 1.769569,1.470523 L 1.770186,1.471102 L 1.770441,1.471820 L 1.770345,1.472668 L 1.769135,1.474705 L 1.766631,1.477123 L 1.762908,1.479831 L 1.758040,1.482740 L 1.752103,1.485759 L 1.727780,1.497311 L 1.724193,1.499532 L 1.719032,1.503354 L 1.706749,1.513661 L 1.699741,1.520397 L 1.695175,1.525902 L 1.693696,1.528355 L 1.692695,1.530695 L 1.692127,1.532986 L 1.691948,1.535294 L 1.691677,1.541986 L 1.690740,1.547748 L 1.688947,1.552828 L 1.686110,1.557475 L 1.682040,1.561938 L 1.676550,1.566464 L 1.669450,1.571304 L 1.660551,1.576706 L 1.638726,1.588937 L 1.621599,1.597678 L 1.616777,1.600107 L 1.611914,1.603010 L 1.607066,1.606322 L 1.602290,1.609975 L 1.593179,1.618044 L 1.585034,1.626692 L 1.578306,1.635391 L 1.575614,1.639595 L 1.573446,1.643615 L 1.571858,1.647384 L 1.570907,1.650836 L 1.570648,1.653906 L 1.571139,1.656528 L 1.571992,1.657622 L 1.573619,1.658571 L 1.578838,1.660034 L 1.586072,1.660915 L 1.594597,1.661215 L 1.603689,1.660932 L 1.612624,1.660066 L 1.620677,1.658616 L 1.627125,1.656582 L 1.635332,1.653415 L 1.640437,1.652097 L 1.643335,1.652097 L 1.624231,1.672968 L 1.609259,1.690033 L 1.603555,1.697034 L 1.600093,1.701754 L 1.597376,1.706353 L 1.596765,1.707991 L 1.596681,1.709386 L 1.597145,1.710684 L 1.598177,1.712035 L 1.602028,1.715484 L 1.604014,1.716844 L 1.606422,1.717982 L 1.612368,1.719603 L 1.619593,1.720360 L 1.627825,1.720272 L 1.636790,1.719353 L 1.646215,1.717620 L 1.655827,1.715089 L 1.665353,1.711775 L 1.675519,1.707927 L 1.678890,1.706885 L 1.681382,1.706404 L 1.683194,1.706465 L 1.684524,1.707048 L 1.685570,1.708136 L 1.686528,1.709708 L 1.688186,1.711714 L 1.690623,1.713358 L 1.693513,1.714468 L 1.696527,1.714876 L 1.703719,1.714876 L 1.730469,1.705794 L 1.741725,1.701646 L 1.752598,1.697068 L 1.761850,1.692614 L 1.768241,1.688842 L 1.773711,1.685368 L 1.780457,1.681727 L 1.787622,1.678350 L 1.794349,1.675671 L 1.803115,1.672801 L 1.805904,1.672324 L 1.807911,1.672599 L 1.809347,1.673709 L 1.810422,1.675741 L 1.812335,1.682907 L 1.814855,1.692275 L 1.816233,1.695869 L 1.817779,1.698717 L 1.819558,1.700803 L 1.821638,1.702114 L 1.824086,1.702634 L 1.826968,1.702349 L 1.830350,1.701243 L 1.834300,1.699302 L 1.838884,1.696511 L 1.844169,1.692855 L 1.857108,1.682890 L 1.873649,1.669289 L 1.880620,1.663776 L 1.887026,1.659261 L 1.892156,1.656210 L 1.894021,1.655379 L 1.895300,1.655089 L 1.898106,1.654666 L 1.901272,1.653451 L 1.904729,1.651522 L 1.908411,1.648956 L 1.912250,1.645832 L 1.916180,1.642226 L 1.924043,1.633882 L 1.931463,1.624545 L 1.937901,1.614837 L 1.940585,1.610038 L 1.942822,1.605379 L 1.944546,1.600938 L 1.945688,1.596792 L 1.947314,1.592282 L 1.950356,1.586631 L 1.954378,1.580560 L 1.958947,1.574793 L 1.968594,1.552890 L 1.973599,1.542575 L 1.978743,1.532675 L 1.984040,1.523181 L 1.989502,1.514087 L 1.995145,1.505385 L 2.000980,1.497068 L 2.007022,1.489128 L 2.013284,1.481558 L 2.019780,1.474349 L 2.026523,1.467496 L 2.033526,1.460989 L 2.040804,1.454823 L 2.048369,1.448988 L 2.056236,1.443479 L 2.064417,1.438287 L 2.072927,1.433404 L 2.081778,1.428825 L 2.090984,1.424540 L 2.100560,1.420542 L 2.110517,1.416825 L 2.120870,1.413380 L 2.131633,1.410201 L 2.142818,1.407279 L 2.154440,1.404607 L 2.166512,1.402177 L 2.179047,1.399983 L 2.205560,1.396271 L 2.234090,1.393409 L 2.264743,1.391340 L 2.297628,1.390001 L 2.332852,1.389335 L 2.370525,1.389281 L 2.410753,1.389779 L 2.453646,1.390770 L 2.547856,1.393991 L 2.654020,1.398466 L 2.773002,1.403716 L 2.905667,1.409263 L 3.052880,1.414631 L 3.055729,1.414698 L 3.057580,1.415156 L 3.058267,1.415791 L 3.058865,1.416836 L 3.060015,1.420568 L 3.060388,1.424864 L 3.060157,1.431420 L 3.059429,1.439491 L 3.058310,1.448329 L 3.056906,1.457186 L 3.055325,1.465316 L 3.053672,1.471972 L 3.052055,1.476407 L 3.049423,1.481579 L 2.979517,1.547148 L 2.969577,1.550297 L 2.947309,1.556822 L 2.936835,1.560182 L 2.926512,1.564416 L 2.916606,1.569354 L 2.907383,1.574824 L 2.899106,1.580655 L 2.892040,1.586677 L 2.886451,1.592718 L 2.884293,1.595692 L 2.882604,1.598607 L 2.880392,1.602179 L 2.877830,1.604905 L 2.875086,1.606645 L 2.872327,1.607256 L 2.866389,1.607256 L 2.803964,1.637150 L 2.800906,1.637150 L 2.798548,1.638283 L 2.794388,1.641366 L 2.789014,1.645930 L 2.783013,1.651502 L 2.777397,1.657326 L 2.773100,1.662665 L 2.770117,1.667553 L 2.768438,1.672019 L 2.768086,1.674105 L 2.768058,1.676097 L 2.768352,1.677999 L 2.768967,1.679816 L 2.769903,1.681551 L 2.771159,1.683209 L 2.774626,1.686307 L 2.778180,1.688246 L 2.782578,1.689639 L 2.787624,1.690484 L 2.793117,1.690782 L 2.798859,1.690531 L 2.804652,1.689730 L 2.810298,1.688379 L 2.815596,1.686476 L 2.821669,1.684010 L 2.826338,1.682467 L 2.829631,1.681866 L 2.831576,1.682224 L 2.832052,1.682770 L 2.832201,1.683562 L 2.831535,1.685897 L 2.829605,1.689247 L 2.826441,1.693633 L 2.822872,1.698592 L 2.820272,1.702990 L 2.818633,1.706936 L 2.817950,1.710541 L 2.818216,1.713914 L 2.819424,1.717165 L 2.821567,1.720405 L 2.824640,1.723741 L 2.827437,1.726146 L 2.830356,1.727806 L 2.833767,1.728700 L 2.838041,1.728806 L 2.843547,1.728099 L 2.850655,1.726558 L 2.871161,1.720881 L 2.890747,1.715510 L 2.897625,1.714130 L 2.903125,1.713608 L 2.907672,1.713937 L 2.911692,1.715109 L 2.915609,1.717115 L 2.919847,1.719947 L 2.926627,1.724540 L 2.929188,1.725777 L 2.931605,1.726350 L 2.934183,1.726291 L 2.937228,1.725631 L 2.945942,1.722633 L 2.954567,1.719633 L 2.957402,1.718969 L 2.959569,1.718903 L 2.961310,1.719465 L 2.962862,1.720685 L 2.966360,1.725222 L 2.969108,1.728681 L 2.971412,1.730597 L 2.972431,1.730993 L 2.973378,1.731026 L 2.974265,1.730701 L 2.975107,1.730025 L 2.976689,1.728786 L 2.978708,1.727771 L 2.980903,1.727086 L 2.983017,1.726834 L 2.986234,1.726129 L 2.991435,1.724211 L 2.997903,1.721371 L 3.004918,1.717903 L 3.011941,1.714433 L 3.018428,1.711585 L 3.023659,1.709654 L 3.026913,1.708935 L 3.028965,1.708673 L 3.030929,1.707988 L 3.032580,1.706984 L 3.033697,1.705764 L 3.034329,1.705118 L 3.035351,1.704607 L 3.038442,1.704006 L 3.042734,1.703980 L 3.047990,1.704550 L 3.054265,1.705156 L 3.059812,1.704847 L 3.065005,1.703568 L 3.070215,1.701264 L 3.080025,1.696060 L 3.110484,1.674991 L 3.123496,1.665511 L 3.136698,1.655014 L 3.149667,1.643903 L 3.161980,1.632580 L 3.173216,1.621448 L 3.182952,1.610910 L 3.190765,1.601370 L 3.193819,1.597099 L 3.196234,1.593228 L 3.198552,1.589506 L 3.201078,1.586084 L 3.203769,1.582978 L 3.206582,1.580205 L 3.209473,1.577781 L 3.212399,1.575723 L 3.215316,1.574047 L 3.218182,1.572770 L 3.220952,1.571908 L 3.223584,1.571478 L 3.226034,1.571496 L 3.228259,1.571978 L 3.230215,1.572941 L 3.231859,1.574402 L 3.233148,1.576377 L 3.234038,1.578882 L 3.235479,1.582838 L 3.237600,1.585731 L 3.238908,1.586777 L 3.240376,1.587558 L 3.243783,1.588318 L 3.247797,1.588011 L 3.252393,1.586633 L 3.257547,1.584184 L 3.263234,1.580663 L 3.270067,1.576459 L 3.276412,1.573563 L 3.282525,1.571882 L 3.288661,1.571320 L 3.295544,1.570501 L 3.305539,1.568316 L 3.317305,1.565098 L 3.329502,1.561180 L 3.345717,1.555180 L 3.351837,1.552437 L 3.357189,1.549529 L 3.362192,1.546205 L 3.367263,1.542214 L 3.379282,1.531222 L 3.387358,1.522933 L 3.394927,1.513985 L 3.402043,1.504287 L 3.408760,1.493746 L 3.415132,1.482272 L 3.421213,1.469774 L 3.427059,1.456161 L 3.432722,1.441340 L 3.440900,1.419975 L 3.449932,1.397993 L 3.453966,1.388108 L 3.457824,1.377768 L 3.461067,1.368198 L 3.463260,1.360625 L 3.468001,1.344360 L 3.474222,1.326246 L 3.481496,1.306815 L 3.503010,1.321542 L 3.524561,1.335756 L 3.546149,1.349464 L 3.567775,1.362671 L 3.589439,1.375380 L 3.611142,1.387598 L 3.632884,1.399330 L 3.654666,1.410581 L 3.676489,1.421356 L 3.698351,1.431660 L 3.720255,1.441499 L 3.742201,1.450877 L 3.764188,1.459799 L 3.786218,1.468272 L 3.808292,1.476299 L 3.830408,1.483887 L 3.852568,1.491040 L 3.874773,1.497764 L 3.897023,1.504063 L 3.919318,1.509943 L 3.941659,1.515409 L 3.964046,1.520466 L 3.986480,1.525119 L 4.008961,1.529374 L 4.031489,1.533235 L 4.054066,1.536708 L 4.076691,1.539798 L 4.099366,1.542510 L 4.122090,1.544849 L 4.144863,1.546821 L 4.167688,1.548430 L 4.190563,1.549682 L 4.213490,1.550582 L 4.236468,1.551135 L 4.259499,1.551346 L 4.282583,1.551220 L 4.305720,1.550763 L 4.328910,1.549979 L 4.352155,1.548874 L 4.375455,1.547453 L 4.422220,1.543684 L 4.469209,1.538713 L 4.516426,1.532581 L 4.563875,1.525329 L 4.611559,1.516998 L 4.659483,1.507631 L 4.681920,1.502878 "/>
    </g>
    <g inkscape:groupmode="layer" id="7ccff119-aaeb-43c8-8d55-6f1f0bada2eb" inkscape:label="text"/>
    <g inkscape:groupmode="layer" id="98f8fa1f-dbab-4e81-91c5-5ec1bc5d7143" inkscape:label="bounding box">
        <path style="fill:none;stroke-width:0.010000;stroke-linecap:round;stroke-linejoin:round;stroke-opacity:1;stroke:#e9e9e9;" d="M 0.000000,2.000000 L 4.750000,2.000000 L 4.750000,0.000000 L 0.000000,0.000000 L 0.000000,2.000000 "/>
    </g>
</svg>
