<?xml version="1.0" encoding="UTF-8"?>
<!-- Created by Vectric (http://www.vectric.com/) -->
<svg width="3.50000000in" height="1.60887202in" viewBox="0 0 3.50000000 1.60887202" id="svg2" version="1.1" xmlns="http://www.w3.org/2000/svg" xmlns:xlink="http://www.w3.org/1999/xlink" xmlns:inkscape="http://www.inkscape.org/namespaces/inkscape">
    <g inkscape:groupmode="layer" id="df287c5e-aaba-42ef-b59b-7f94977e4436" inkscape:label="0">
        <path style="fill:none;stroke-width:0.010000;stroke-linecap:round;stroke-linejoin:round;stroke-opacity:1;stroke:#000000;" d="M 0.445135,0.914883 L 0.444185,0.904031 L 0.441366,0.893507 L 0.436761,0.883633 L 0.430513,0.874709 L 0.422809,0.867006 L 0.413885,0.860757 L 0.404011,0.856153 L 0.393488,0.853333 L 0.382635,0.852383 L 0.371782,0.853333 L 0.361259,0.856153 L 0.351385,0.860757 L 0.342461,0.867006 L 0.334757,0.874709 L 0.328509,0.883633 L 0.323904,0.893507 L 0.321085,0.904031 L 0.320135,0.914883 L 0.321085,0.925736 L 0.323904,0.936260 L 0.328509,0.946133 L 0.334757,0.955057 L 0.342461,0.962761 L 0.351385,0.969010 L 0.361259,0.973614 L 0.371782,0.976434 L 0.382635,0.977383 L 0.392412,0.976614 L 0.401948,0.974325 L 0.411010,0.970571 L 0.419372,0.965447 L 0.426829,0.959077 L 0.433198,0.951620 L 0.438323,0.943258 L 0.442076,0.934197 L 0.444366,0.924661 L 0.445135,0.914883 L 0.444185,0.904031 L 0.441366,0.893507 L 0.436761,0.883633 L 0.430513,0.874709 L 0.422809,0.867006 L 0.413885,0.860757 L 0.404011,0.856153 L 0.393488,0.853333 L 0.382635,0.852383 L 0.371782,0.853333 L 0.361259,0.856153 L 0.351385,0.860757 L 0.342461,0.867006 L 0.334757,0.874709 L 0.328509,0.883633 L 0.323904,0.893507 L 0.321085,0.904031 L 0.320135,0.914883 L 0.321085,0.925736 L 0.323904,0.936260 L 0.328509,0.946133 L 0.334757,0.955057 L 0.342461,0.962761 L 0.351385,0.969010 L 0.361259,0.973614 L 0.371782,0.976434 L 0.382635,0.977383 L 0.392412,0.976614 L 0.401948,0.974325 L 0.411010,0.970571 L 0.419372,0.965447 L 0.426829,0.959077 L 0.433198,0.951620 L 0.438323,0.943258 L 0.442076,0.934197 L 0.444366,0.924661 L 0.445135,0.914883 "/>
        <path style="fill:none;stroke-width:0.010000;stroke-linecap:round;stroke-linejoin:round;stroke-opacity:1;stroke:#000000;" d="M 1.577110,0.119137 L 1.572966,0.125597 L 1.569875,0.130831 L 1.566834,0.136116 L 1.563743,0.141400 L 1.560752,0.146785 L 1.557760,0.152269 L 1.554819,0.157852 L 1.551927,0.163536 L 1.549085,0.169369 L 1.546344,0.175301 L 1.543651,0.181434 L 1.541009,0.187765 L 1.538516,0.194296 L 1.536074,0.201026 L 1.533730,0.208006 L 1.531537,0.215235 L 1.529443,0.222713 L 1.527449,0.230491 L 1.523909,0.246943 L 1.522363,0.255667 L 1.520967,0.264691 L 1.519671,0.274014 L 1.518525,0.283636 L 1.517478,0.293557 L 1.516530,0.303677 L 1.515683,0.314047 L 1.514935,0.324616 L 1.514287,0.335435 L 1.513739,0.346403 L 1.513240,0.357521 L 1.512841,0.368838 L 1.512442,0.380254 L 1.512143,0.391771 L 1.511844,0.403437 L 1.511645,0.415153 L 1.511395,0.426968 L 1.511246,0.438784 L 1.510897,0.462564 L 1.498782,0.458427 L 1.486618,0.454288 L 1.474353,0.450200 L 1.461939,0.446212 L 1.449276,0.442323 L 1.436314,0.438584 L 1.423103,0.434995 L 1.409442,0.431605 L 1.395383,0.428464 L 1.380776,0.425522 L 1.365670,0.422880 L 1.349966,0.420487 L 1.333564,0.418443 L 1.316513,0.416748 L 1.298615,0.415452 L 1.279970,0.414554 L 1.260427,0.414106 L 1.239937,0.414106 L 1.195965,0.415551 L 1.172383,0.417097 L 1.147755,0.419191 L 1.122229,0.421783 L 1.095757,0.424974 L 1.068486,0.428763 L 1.040418,0.433050 L 1.011702,0.437936 L 0.982337,0.443420 L 0.952424,0.449503 L 0.922013,0.456133 L 0.891203,0.463362 L 0.860044,0.471189 L 0.828585,0.479665 L 0.796928,0.488688 L 0.765070,0.498360 L 0.733163,0.508630 L 0.701256,0.519548 L 0.669399,0.531115 L 0.606034,0.556092 L 0.574725,0.569553 L 0.543715,0.583612 L 0.513105,0.598269 L 0.482893,0.613375 L 0.453179,0.628979 L 0.423964,0.644983 L 0.395398,0.661335 L 0.367479,0.678037 L 0.340308,0.694987 L 0.313885,0.712237 L 0.288310,0.729636 L 0.263632,0.747135 L 0.239901,0.764784 L 0.217167,0.782432 L 0.195530,0.800131 L 0.174990,0.817779 L 0.155646,0.835328 L 0.137599,0.852727 L 0.105343,0.886928 L 0.091334,0.903679 L 0.078621,0.920131 L 0.067254,0.936334 L 0.057034,0.952337 L 0.047960,0.968091 L 0.039983,0.983696 L 0.032954,0.999051 L 0.026872,1.014257 L 0.021637,1.029263 L 0.017200,1.044120 L 0.013461,1.058877 L 0.010370,1.073484 L 0.007827,1.087992 L 0.005783,1.102400 L 0.004138,1.116758 L 0.002891,1.131016 L 0.001944,1.145225 L 0.001147,1.159384 L 0.000000,1.187601 L 0.007927,1.180273 L 0.015953,1.172994 L 0.023930,1.165765 L 0.032007,1.158636 L 0.040083,1.151706 L 0.048309,1.144976 L 0.056585,1.138495 L 0.064961,1.132313 L 0.073436,1.126479 L 0.082111,1.120946 L 0.090885,1.115860 L 0.099809,1.111274 L 0.108933,1.107136 L 0.118255,1.103497 L 0.127827,1.100505 L 0.137549,1.098063 L 0.147570,1.096318 L 0.157790,1.095270 L 0.179128,1.095470 L 0.190196,1.096716 L 0.201562,1.098810 L 0.213229,1.101602 L 0.225144,1.105092 L 0.237258,1.109280 L 0.249622,1.114016 L 0.262186,1.119400 L 0.274949,1.125283 L 0.287911,1.131664 L 0.301023,1.138495 L 0.314284,1.145773 L 0.327645,1.153351 L 0.341156,1.161328 L 0.354766,1.169554 L 0.368476,1.178029 L 0.382286,1.186704 L 0.396096,1.195578 L 0.410005,1.204552 L 0.437824,1.222699 L 0.443657,1.217065 L 0.449490,1.211432 L 0.455373,1.205799 L 0.461256,1.200265 L 0.467238,1.194780 L 0.473321,1.189346 L 0.479453,1.184012 L 0.485734,1.178777 L 0.492116,1.173642 L 0.498647,1.168657 L 0.505327,1.163871 L 0.512157,1.159184 L 0.519237,1.154697 L 0.526466,1.150410 L 0.533944,1.146322 L 0.541621,1.142483 L 0.549598,1.138843 L 0.557824,1.135503 L 0.575124,1.129571 L 0.584247,1.127078 L 0.593670,1.124884 L 0.603342,1.122940 L 0.613213,1.121344 L 0.623333,1.119998 L 0.633604,1.118952 L 0.644023,1.118254 L 0.654592,1.117805 L 0.665261,1.117655 L 0.676030,1.117855 L 0.686798,1.118303 L 0.697617,1.119051 L 0.708386,1.120098 L 0.719154,1.121394 L 0.729873,1.123040 L 0.740492,1.124984 L 0.750961,1.127178 L 0.761331,1.129720 L 0.781522,1.135603 L 0.791294,1.138993 L 0.800866,1.142632 L 0.810239,1.146571 L 0.819412,1.150759 L 0.828436,1.155146 L 0.837260,1.159782 L 0.845935,1.164618 L 0.854510,1.169604 L 0.862885,1.174789 L 0.871161,1.180173 L 0.879337,1.185657 L 0.887414,1.191291 L 0.895390,1.197024 L 0.903317,1.202907 L 0.911144,1.208840 L 0.918922,1.214822 L 0.926699,1.220904 L 0.934377,1.227037 L 0.949732,1.239301 L 0.959803,1.237257 L 0.969874,1.235263 L 0.979894,1.233318 L 0.990015,1.231573 L 1.000085,1.230028 L 1.010206,1.228732 L 1.020376,1.227784 L 1.030547,1.227136 L 1.040817,1.226987 L 1.051087,1.227236 L 1.061407,1.228034 L 1.071826,1.229380 L 1.082246,1.231374 L 1.092765,1.234016 L 1.103384,1.237406 L 1.114053,1.241594 L 1.124772,1.246580 L 1.135640,1.252462 L 1.157626,1.267070 L 1.168744,1.275894 L 1.179961,1.285716 L 1.191278,1.296434 L 1.202695,1.308050 L 1.214211,1.320514 L 1.225778,1.333775 L 1.237444,1.347735 L 1.249159,1.362342 L 1.260925,1.377598 L 1.272791,1.393452 L 1.284656,1.409804 L 1.296571,1.426605 L 1.308586,1.443855 L 1.320551,1.461453 L 1.332616,1.479351 L 1.344681,1.497498 L 1.356796,1.515895 L 1.368861,1.534441 L 1.393140,1.571732 L 1.398873,1.569239 L 1.404606,1.566797 L 1.410390,1.564354 L 1.416123,1.561960 L 1.421856,1.559617 L 1.427590,1.557374 L 1.433323,1.555280 L 1.439056,1.553236 L 1.444789,1.551391 L 1.450473,1.549646 L 1.456156,1.548101 L 1.461840,1.546755 L 1.467523,1.545608 L 1.473207,1.544661 L 1.478840,1.543963 L 1.484474,1.543514 L 1.490057,1.543365 L 1.495641,1.543464 L 1.506759,1.544661 L 1.512293,1.545758 L 1.517777,1.547204 L 1.523311,1.548948 L 1.528745,1.550943 L 1.534229,1.553236 L 1.539663,1.555779 L 1.545047,1.558570 L 1.550481,1.561612 L 1.555866,1.564802 L 1.561250,1.568192 L 1.566584,1.571782 L 1.571969,1.575521 L 1.577303,1.579410 L 1.582638,1.583398 L 1.588022,1.587486 L 1.593307,1.591624 L 1.598641,1.595862 L 1.603976,1.600199 L 1.614631,1.608870 L 1.636616,1.587507 L 1.661922,1.570205 L 1.689807,1.557471 L 1.719455,1.549679 L 1.749997,1.547056 L 1.780540,1.549680 L 1.810187,1.557473 L 1.838072,1.570206 L 1.863378,1.587508 L 1.885362,1.608872 L 1.896024,1.600199 L 1.901359,1.595862 L 1.906693,1.591624 L 1.912028,1.587486 L 1.917362,1.583398 L 1.922697,1.579410 L 1.928031,1.575521 L 1.933416,1.571782 L 1.938750,1.568192 L 1.944134,1.564802 L 1.949519,1.561612 L 1.954953,1.558570 L 1.960387,1.555779 L 1.965821,1.553236 L 1.971255,1.550943 L 1.976739,1.548948 L 1.982223,1.547204 L 1.987707,1.545758 L 1.993241,1.544661 L 2.004359,1.543464 L 2.009943,1.543365 L 2.015526,1.543514 L 2.021160,1.543963 L 2.026793,1.544661 L 2.032477,1.545608 L 2.038160,1.546755 L 2.043844,1.548101 L 2.049527,1.549646 L 2.055211,1.551391 L 2.060944,1.553236 L 2.066677,1.555280 L 2.072410,1.557374 L 2.078144,1.559617 L 2.083877,1.561960 L 2.089610,1.564354 L 2.095394,1.566797 L 2.101127,1.569239 L 2.106910,1.571732 L 2.131139,1.534441 L 2.143204,1.515895 L 2.155319,1.497498 L 2.167384,1.479351 L 2.179449,1.461453 L 2.191464,1.443855 L 2.203429,1.426605 L 2.215344,1.409804 L 2.227259,1.393452 L 2.239075,1.377598 L 2.250841,1.362342 L 2.262556,1.347735 L 2.274222,1.333775 L 2.285789,1.320514 L 2.297305,1.308050 L 2.308722,1.296434 L 2.320039,1.285716 L 2.331256,1.275894 L 2.342374,1.267070 L 2.364360,1.252462 L 2.375228,1.246580 L 2.385947,1.241594 L 2.396616,1.237406 L 2.407235,1.234016 L 2.417754,1.231374 L 2.428174,1.229380 L 2.438593,1.228034 L 2.448913,1.227236 L 2.459183,1.226987 L 2.469453,1.227136 L 2.479624,1.227784 L 2.489794,1.228732 L 2.499915,1.230028 L 2.509985,1.231573 L 2.520106,1.233318 L 2.530126,1.235263 L 2.540197,1.237257 L 2.550268,1.239301 L 2.565623,1.227037 L 2.573301,1.220904 L 2.581078,1.214822 L 2.588856,1.208840 L 2.596683,1.202907 L 2.604610,1.197024 L 2.612586,1.191291 L 2.620663,1.185657 L 2.628839,1.180173 L 2.637115,1.174789 L 2.645540,1.169604 L 2.654065,1.164618 L 2.662740,1.159782 L 2.671564,1.155146 L 2.680588,1.150759 L 2.689761,1.146571 L 2.699134,1.142632 L 2.708706,1.138993 L 2.718478,1.135603 L 2.738669,1.129720 L 2.749039,1.127178 L 2.759508,1.124984 L 2.770127,1.123040 L 2.780846,1.121394 L 2.791614,1.120098 L 2.802383,1.119051 L 2.813202,1.118303 L 2.823970,1.117855 L 2.834739,1.117655 L 2.845408,1.117805 L 2.855977,1.118254 L 2.866396,1.118952 L 2.876667,1.119998 L 2.886787,1.121344 L 2.896658,1.122940 L 2.906330,1.124884 L 2.915753,1.127078 L 2.924876,1.129571 L 2.942176,1.135503 L 2.950402,1.138843 L 2.958379,1.142483 L 2.966056,1.146322 L 2.973534,1.150410 L 2.980763,1.154697 L 2.987843,1.159184 L 2.994673,1.163871 L 3.001353,1.168657 L 3.007884,1.173642 L 3.014266,1.178777 L 3.020547,1.184012 L 3.026679,1.189346 L 3.032762,1.194780 L 3.038744,1.200265 L 3.044627,1.205799 L 3.050510,1.211432 L 3.056343,1.217065 L 3.062176,1.222699 L 3.089995,1.204552 L 3.103904,1.195578 L 3.117714,1.186704 L 3.131524,1.178029 L 3.145234,1.169554 L 3.158844,1.161328 L 3.172355,1.153351 L 3.185716,1.145773 L 3.198977,1.138495 L 3.212089,1.131664 L 3.225051,1.125283 L 3.237814,1.119400 L 3.250378,1.114016 L 3.262742,1.109280 L 3.274856,1.105092 L 3.286771,1.101602 L 3.298438,1.098810 L 3.309804,1.096716 L 3.320872,1.095470 L 3.342210,1.095270 L 3.352430,1.096318 L 3.362451,1.098063 L 3.372173,1.100505 L 3.381745,1.103497 L 3.391067,1.107136 L 3.400191,1.111274 L 3.409115,1.115860 L 3.417889,1.120946 L 3.426564,1.126479 L 3.435039,1.132313 L 3.443415,1.138495 L 3.451691,1.144976 L 3.459917,1.151706 L 3.467993,1.158636 L 3.476070,1.165765 L 3.484096,1.172994 L 3.492073,1.180273 L 3.500000,1.187601 L 3.498853,1.159384 L 3.498106,1.145225 L 3.497109,1.131016 L 3.495862,1.116758 L 3.494217,1.102400 L 3.492173,1.087992 L 3.489680,1.073484 L 3.486539,1.058877 L 3.482800,1.044120 L 3.478363,1.029263 L 3.473128,1.014257 L 3.467046,0.999051 L 3.460017,0.983696 L 3.452040,0.968091 L 3.442966,0.952337 L 3.432746,0.936334 L 3.421379,0.920131 L 3.408666,0.903679 L 3.394657,0.886928 L 3.362451,0.852727 L 3.344354,0.835328 L 3.325010,0.817779 L 3.304470,0.800131 L 3.282833,0.782432 L 3.260099,0.764784 L 3.236368,0.747135 L 3.211690,0.729636 L 3.186115,0.712237 L 3.159692,0.694987 L 3.132521,0.678037 L 3.104602,0.661335 L 3.076036,0.644983 L 3.046821,0.628979 L 3.017107,0.613375 L 2.986895,0.598269 L 2.956285,0.583612 L 2.925275,0.569553 L 2.893966,0.556092 L 2.830601,0.531115 L 2.798744,0.519548 L 2.766837,0.508630 L 2.734930,0.498360 L 2.703072,0.488688 L 2.671415,0.479665 L 2.639956,0.471189 L 2.608797,0.463362 L 2.577987,0.456133 L 2.547576,0.449503 L 2.517663,0.443420 L 2.488298,0.437936 L 2.459582,0.433050 L 2.431514,0.428763 L 2.404243,0.424974 L 2.377771,0.421783 L 2.352245,0.419191 L 2.327617,0.417097 L 2.304035,0.415551 L 2.260063,0.414106 L 2.239573,0.414106 L 2.220030,0.414554 L 2.201385,0.415452 L 2.183487,0.416748 L 2.166436,0.418443 L 2.150034,0.420487 L 2.134330,0.422880 L 2.119224,0.425522 L 2.104666,0.428464 L 2.090558,0.431605 L 2.076947,0.434995 L 2.063686,0.438584 L 2.050724,0.442323 L 2.038110,0.446212 L 2.025647,0.450200 L 2.013382,0.454288 L 2.001218,0.458427 L 1.989103,0.462564 L 1.988754,0.438784 L 1.988605,0.426968 L 1.988355,0.415153 L 1.988156,0.403437 L 1.987857,0.391771 L 1.987558,0.380254 L 1.987159,0.368838 L 1.986760,0.357521 L 1.986261,0.346403 L 1.985713,0.335435 L 1.985065,0.324616 L 1.984317,0.314047 L 1.983470,0.303677 L 1.982522,0.293557 L 1.981475,0.283636 L 1.980329,0.274014 L 1.979033,0.264691 L 1.977636,0.255667 L 1.976091,0.246943 L 1.972551,0.230491 L 1.970557,0.222713 L 1.968463,0.215235 L 1.966270,0.208006 L 1.963926,0.201026 L 1.961484,0.194296 L 1.958991,0.187765 L 1.956349,0.181434 L 1.953656,0.175301 L 1.950915,0.169369 L 1.948073,0.163536 L 1.945181,0.157852 L 1.942240,0.152269 L 1.939248,0.146785 L 1.936257,0.141400 L 1.933166,0.136116 L 1.930125,0.130831 L 1.927034,0.125597 L 1.924350,0.119137 "/>
        <path style="fill:none;stroke-width:0.010000;stroke-linecap:round;stroke-linejoin:round;stroke-opacity:1;stroke:#000000;" d="M 1.924350,0.119137 L 1.924638,0.111943 L 1.924782,0.108346 L 1.924926,0.104748 L 1.925021,0.101199 L 1.925165,0.097650 L 1.925261,0.094101 L 1.925309,0.090552 L 1.925357,0.087099 L 1.925357,0.083598 L 1.925309,0.080193 L 1.925261,0.076787 L 1.925165,0.073430 L 1.925021,0.070121 L 1.924830,0.066811 L 1.924590,0.063598 L 1.924302,0.060432 L 1.923966,0.057315 L 1.923535,0.054245 L 1.923103,0.051224 L 1.921952,0.045373 L 1.921328,0.042543 L 1.920609,0.039761 L 1.919841,0.037027 L 1.919026,0.034389 L 1.918163,0.031752 L 1.917252,0.029114 L 1.916340,0.026572 L 1.915381,0.024030 L 1.914326,0.021536 L 1.913319,0.019090 L 1.912264,0.016644 L 1.911160,0.014246 L 1.910057,0.011848 L 1.908954,0.009450 L 1.907803,0.007100 L 1.906652,0.004702 L 1.905501,0.002351 L 1.904350,0.000000 L 1.897254,0.026207 L 1.885725,0.050787 L 1.870110,0.072998 L 1.850882,0.092166 L 1.828623,0.107711 L 1.804006,0.119164 L 1.777778,0.126178 L 1.750730,0.128539 L 1.723683,0.126178 L 1.697454,0.119164 L 1.672838,0.107712 L 1.650579,0.092166 L 1.631351,0.072998 L 1.615736,0.050788 L 1.604206,0.026207 L 1.597111,0.000001 L 1.595959,0.002351 L 1.594808,0.004702 L 1.593657,0.007100 L 1.592506,0.009450 L 1.591403,0.011848 L 1.590300,0.014246 L 1.589197,0.016644 L 1.588142,0.019090 L 1.587134,0.021536 L 1.586127,0.024030 L 1.585120,0.026572 L 1.584209,0.029114 L 1.583298,0.031752 L 1.582434,0.034389 L 1.581619,0.037027 L 1.580852,0.039761 L 1.580132,0.042543 L 1.579509,0.045373 L 1.578358,0.051224 L 1.577926,0.054245 L 1.577494,0.057315 L 1.577159,0.060432 L 1.576871,0.063598 L 1.576631,0.066811 L 1.576439,0.070121 L 1.576295,0.073430 L 1.576199,0.076787 L 1.576151,0.080193 L 1.576103,0.083598 L 1.576103,0.087099 L 1.576151,0.090552 L 1.576247,0.094101 L 1.576295,0.097650 L 1.576439,0.101199 L 1.576535,0.104748 L 1.576679,0.108346 L 1.576823,0.111943 L 1.577110,0.119137 "/>
    </g>
</svg>
