<?xml version="1.0" encoding="UTF-8"?>
<!-- Created by Vectric (http://www.vectric.com/) -->
<svg width="4.00000000in" height="2.00000000in" viewBox="0 0 4.00000000 2.00000000" id="svg2" version="1.1" xmlns="http://www.w3.org/2000/svg" xmlns:xlink="http://www.w3.org/1999/xlink" xmlns:inkscape="http://www.inkscape.org/namespaces/inkscape">
    <g inkscape:groupmode="layer" id="fba19d99-660b-4955-b92e-ef0bd1ca3462" inkscape:label="Layer 1">
        <path style="fill:none;stroke-width:0.010000;stroke-linecap:round;stroke-linejoin:round;stroke-opacity:1;stroke:#000000;" d="M 3.717993,1.325432 L 3.723410,1.330250 A 0.015000,0.015000 0 0,0 3.748351,1.318126 L 3.747109,1.297813 L 3.745862,1.283554 L 3.744217,1.269196 L 3.742173,1.254788 L 3.739680,1.240280 L 3.736539,1.225673 L 3.732800,1.210916 L 3.728363,1.196059 L 3.723128,1.181053 L 3.717046,1.165847 L 3.710017,1.150492 L 3.702040,1.134887 L 3.692966,1.119133 L 3.682746,1.103130 L 3.671379,1.086927 L 3.658666,1.070475 L 3.644657,1.053724 L 3.612451,1.019523 L 3.594354,1.002124 L 3.575010,0.984575 L 3.554470,0.966927 L 3.532833,0.949228 L 3.510099,0.931580 L 3.486368,0.913931 L 3.461690,0.896432 L 3.436115,0.879033 L 3.409692,0.861783 L 3.382521,0.844833 L 3.354602,0.828131 L 3.326036,0.811779 L 3.296821,0.795776 L 3.267107,0.780171 L 3.236895,0.765065 L 3.206285,0.750408 L 3.175275,0.736349 L 3.143966,0.722888 L 3.080601,0.697911 L 3.048744,0.686344 L 3.016837,0.675426 L 2.984930,0.665156 L 2.953072,0.655484 L 2.921415,0.646461 L 2.889956,0.637985 L 2.858797,0.630158 L 2.827987,0.622929 L 2.797576,0.616299 L 2.767663,0.610216 L 2.738298,0.604732 L 2.709582,0.599846 L 2.681514,0.595559 L 2.654243,0.591770 L 2.627771,0.588579 L 2.602245,0.585987 L 2.577617,0.583893 L 2.554035,0.582347 L 2.510063,0.580902 L 2.489573,0.580902 L 2.470030,0.581350 L 2.451385,0.582248 L 2.433487,0.583544 L 2.416436,0.585239 L 2.400034,0.587283 L 2.384330,0.589676 L 2.369224,0.592318 L 2.354666,0.595260 L 2.340558,0.598401 L 2.326947,0.601791 L 2.313686,0.605380 L 2.300724,0.609120 L 2.288110,0.613008 L 2.275647,0.616996 L 2.263382,0.621085 L 2.251218,0.625223 L 2.239103,0.629360 L 2.238754,0.605580 L 2.238605,0.593764 L 2.238355,0.581949 L 2.238156,0.570233 L 2.237857,0.558567 L 2.237558,0.547050 L 2.237159,0.535634 L 2.236760,0.524317 L 2.236261,0.513199 L 2.235713,0.502231 L 2.235065,0.491412 L 2.234317,0.480843 L 2.233470,0.470473 L 2.232522,0.460353 L 2.231475,0.450432 L 2.230329,0.440810 L 2.229033,0.431487 L 2.227636,0.422463 L 2.226091,0.413739 L 2.222551,0.397287 L 2.220557,0.389510 L 2.218463,0.382031 L 2.216270,0.374802 L 2.213926,0.367823 L 2.211484,0.361092 L 2.208991,0.354561 L 2.206349,0.348230 L 2.203656,0.342098 L 2.200915,0.336165 L 2.198073,0.330332 L 2.195181,0.324648 L 2.192240,0.319065 L 2.189248,0.313581 L 2.186257,0.308196 L 2.183166,0.302912 L 2.180125,0.297627 L 2.177034,0.292393 L 2.174350,0.285933 L 2.174638,0.278739 L 2.174782,0.275142 L 2.174926,0.271545 L 2.175021,0.267995 L 2.175165,0.264446 L 2.175261,0.260897 L 2.175309,0.257348 L 2.175357,0.253895 L 2.175357,0.250394 L 2.175309,0.246989 L 2.175261,0.243583 L 2.175165,0.240226 L 2.175021,0.236917 L 2.174830,0.233607 L 2.174590,0.230394 L 2.174302,0.227229 L 2.173966,0.224111 L 2.173535,0.221041 L 2.173103,0.218020 L 2.171952,0.212169 L 2.171328,0.209339 L 2.170609,0.206557 L 2.169841,0.203823 L 2.169026,0.201185 L 2.168163,0.198548 L 2.167252,0.195910 L 2.166340,0.193368 L 2.165381,0.190826 L 2.164326,0.188332 L 2.163587,0.186737 A 0.008000,0.008000 0 0,0 2.148606,0.188009 L 2.147254,0.193003 L 2.135725,0.217583 L 2.120110,0.239794 L 2.100882,0.258962 L 2.078623,0.274507 L 2.054006,0.285960 L 2.027778,0.292974 L 2.000730,0.295335 L 1.973683,0.292974 L 1.947454,0.285960 L 1.922838,0.274508 L 1.900579,0.258962 L 1.881351,0.239794 L 1.865736,0.217584 L 1.854206,0.193003 L 1.852900,0.188178 A 0.008000,0.008000 0 0,0 1.837902,0.186943 L 1.836127,0.190826 L 1.835120,0.193368 L 1.834209,0.195910 L 1.833298,0.198548 L 1.832434,0.201185 L 1.831619,0.203823 L 1.830852,0.206557 L 1.830132,0.209339 L 1.829509,0.212169 L 1.828358,0.218020 L 1.827926,0.221041 L 1.827494,0.224111 L 1.827159,0.227229 L 1.826871,0.230394 L 1.826631,0.233607 L 1.826439,0.236917 L 1.826295,0.240226 L 1.826199,0.243583 L 1.826151,0.246989 L 1.826103,0.250394 L 1.826103,0.253895 L 1.826151,0.257348 L 1.826247,0.260897 L 1.826295,0.264446 L 1.826439,0.267995 L 1.826535,0.271545 L 1.826679,0.275142 L 1.826823,0.278739 L 1.827110,0.285933 L 1.822966,0.292393 L 1.819875,0.297627 L 1.816834,0.302912 L 1.813743,0.308196 L 1.810752,0.313581 L 1.807760,0.319065 L 1.804819,0.324648 L 1.801927,0.330332 L 1.799085,0.336165 L 1.796344,0.342098 L 1.793651,0.348230 L 1.791009,0.354561 L 1.788516,0.361092 L 1.786074,0.367823 L 1.783730,0.374802 L 1.781537,0.382031 L 1.779443,0.389510 L 1.777449,0.397287 L 1.773909,0.413739 L 1.772363,0.422463 L 1.770967,0.431487 L 1.769671,0.440810 L 1.768525,0.450432 L 1.767478,0.460353 L 1.766530,0.470473 L 1.765683,0.480843 L 1.764935,0.491412 L 1.764287,0.502231 L 1.763739,0.513199 L 1.763240,0.524317 L 1.762841,0.535634 L 1.762442,0.547050 L 1.762143,0.558567 L 1.761844,0.570233 L 1.761645,0.581949 L 1.761395,0.593764 L 1.761246,0.605580 L 1.760897,0.629360 L 1.748782,0.625223 L 1.736618,0.621085 L 1.724353,0.616996 L 1.711939,0.613008 L 1.699276,0.609120 L 1.686314,0.605380 L 1.673103,0.601791 L 1.659442,0.598401 L 1.645383,0.595260 L 1.630776,0.592318 L 1.615670,0.589676 L 1.599966,0.587283 L 1.583564,0.585239 L 1.566513,0.583544 L 1.548615,0.582248 L 1.529970,0.581350 L 1.510427,0.580902 L 1.489937,0.580902 L 1.445965,0.582347 L 1.422383,0.583893 L 1.397755,0.585987 L 1.372229,0.588579 L 1.345757,0.591770 L 1.318486,0.595559 L 1.290418,0.599846 L 1.261702,0.604732 L 1.232337,0.610216 L 1.202424,0.616299 L 1.172013,0.622929 L 1.141203,0.630158 L 1.110044,0.637985 L 1.078585,0.646461 L 1.046928,0.655484 L 1.015070,0.665156 L 0.983163,0.675426 L 0.951256,0.686344 L 0.919399,0.697911 L 0.856034,0.722888 L 0.824725,0.736349 L 0.793715,0.750408 L 0.763105,0.765065 L 0.732893,0.780171 L 0.703179,0.795776 L 0.673964,0.811779 L 0.645398,0.828131 L 0.617479,0.844833 L 0.590308,0.861783 L 0.563885,0.879033 L 0.538310,0.896432 L 0.513632,0.913931 L 0.489901,0.931580 L 0.467167,0.949228 L 0.445530,0.966927 L 0.424990,0.984575 L 0.405646,1.002124 L 0.387599,1.019523 L 0.355343,1.053724 L 0.341334,1.070475 L 0.328621,1.086927 L 0.317254,1.103130 L 0.307034,1.119133 L 0.297960,1.134887 L 0.289983,1.150492 L 0.282954,1.165847 L 0.276872,1.181053 L 0.271637,1.196059 L 0.267200,1.210916 L 0.263461,1.225673 L 0.260370,1.240280 L 0.257827,1.254788 L 0.255783,1.269196 L 0.254138,1.283554 L 0.252891,1.297813 L 0.251711,1.318144 A 0.015000,0.015000 0 0,0 0.276689,1.330191 L 0.282007,1.325432 L 0.290083,1.318502 L 0.298309,1.311772 L 0.306585,1.305291 L 0.314961,1.299109 L 0.323436,1.293276 L 0.332111,1.287742 L 0.340885,1.282657 L 0.349809,1.278070 L 0.358933,1.273932 L 0.368255,1.270293 L 0.377827,1.267301 L 0.387549,1.264859 L 0.397570,1.263114 L 0.407790,1.262067 L 0.429128,1.262266 L 0.440196,1.263512 L 0.451562,1.265606 L 0.463229,1.268398 L 0.475144,1.271888 L 0.487258,1.276076 L 0.499622,1.280812 L 0.512186,1.286196 L 0.524949,1.292079 L 0.537911,1.298460 L 0.551023,1.305291 L 0.564284,1.312569 L 0.577645,1.320147 L 0.591156,1.328124 L 0.604766,1.336350 L 0.618476,1.344826 L 0.632286,1.353500 L 0.646096,1.362374 L 0.660005,1.371348 L 0.674530,1.380823 A 0.020000,0.020000 0 0,0 0.699289,1.378519 L 0.711256,1.367061 L 0.717238,1.361577 L 0.723321,1.356142 L 0.729453,1.350808 L 0.735734,1.345573 L 0.742116,1.340438 L 0.748647,1.335453 L 0.755327,1.330667 L 0.762157,1.325980 L 0.769237,1.321493 L 0.776466,1.317206 L 0.783944,1.313118 L 0.791621,1.309279 L 0.799598,1.305640 L 0.807824,1.302299 L 0.825124,1.296367 L 0.834247,1.293874 L 0.843670,1.291680 L 0.853342,1.289736 L 0.863213,1.288141 L 0.873333,1.286795 L 0.883604,1.285748 L 0.894023,1.285050 L 0.904592,1.284601 L 0.915261,1.284451 L 0.926030,1.284651 L 0.936798,1.285100 L 0.947617,1.285847 L 0.958386,1.286894 L 0.969154,1.288190 L 0.979873,1.289836 L 0.990492,1.291780 L 1.000961,1.293974 L 1.011331,1.296516 L 1.031522,1.302399 L 1.041294,1.305789 L 1.050866,1.309429 L 1.060239,1.313367 L 1.069412,1.317555 L 1.078436,1.321942 L 1.087260,1.326579 L 1.095935,1.331414 L 1.104510,1.336400 L 1.112885,1.341585 L 1.121161,1.346969 L 1.129337,1.352453 L 1.137414,1.358087 L 1.145390,1.363820 L 1.153317,1.369703 L 1.161144,1.375636 L 1.168922,1.381618 L 1.176699,1.387700 L 1.184377,1.393833 L 1.192473,1.400299 A 0.020000,0.020000 0 0,0 1.208845,1.404289 L 1.229894,1.400114 L 1.240015,1.398369 L 1.250085,1.396824 L 1.260206,1.395528 L 1.270376,1.394580 L 1.280547,1.393932 L 1.290817,1.393783 L 1.301087,1.394032 L 1.311407,1.394830 L 1.321826,1.396176 L 1.332246,1.398170 L 1.342765,1.400812 L 1.353384,1.404203 L 1.364053,1.408390 L 1.374772,1.413376 L 1.385640,1.419259 L 1.407626,1.433866 L 1.418744,1.442690 L 1.429961,1.452512 L 1.441278,1.463231 L 1.452695,1.474847 L 1.464211,1.487310 L 1.475778,1.500571 L 1.487444,1.514531 L 1.499159,1.529138 L 1.510925,1.544394 L 1.522791,1.560248 L 1.534656,1.576600 L 1.546571,1.593401 L 1.558586,1.610651 L 1.570551,1.628249 L 1.582616,1.646147 L 1.594681,1.664294 L 1.606796,1.682691 L 1.618861,1.701237 L 1.633989,1.724472 A 0.020000,0.020000 0 0,0 1.658575,1.731966 L 1.666123,1.728756 L 1.671856,1.726414 L 1.677590,1.724170 L 1.683323,1.722076 L 1.689056,1.720032 L 1.694789,1.718187 L 1.700473,1.716442 L 1.706156,1.714897 L 1.711840,1.713551 L 1.717523,1.712404 L 1.723207,1.711457 L 1.728840,1.710759 L 1.734474,1.710310 L 1.740057,1.710161 L 1.745641,1.710261 L 1.756759,1.711457 L 1.762293,1.712554 L 1.767777,1.714000 L 1.773311,1.715745 L 1.778745,1.717739 L 1.784229,1.720032 L 1.789663,1.722575 L 1.795047,1.725366 L 1.800481,1.728408 L 1.805866,1.731598 L 1.811250,1.734989 L 1.816584,1.738578 L 1.821969,1.742317 L 1.827303,1.746206 L 1.832638,1.750194 L 1.838022,1.754282 L 1.850847,1.764589 A 0.020000,0.020000 0 0,0 1.877313,1.763342 L 1.886616,1.754303 L 1.911922,1.737001 L 1.939807,1.724268 L 1.969455,1.716475 L 1.999997,1.713853 L 2.030540,1.716476 L 2.060187,1.724269 L 2.088072,1.737002 L 2.113378,1.754304 L 2.122693,1.763356 A 0.020000,0.020000 0 0,0 2.149144,1.764615 L 2.162028,1.754282 L 2.167362,1.750194 L 2.172697,1.746206 L 2.178031,1.742317 L 2.183416,1.738578 L 2.188750,1.734989 L 2.194134,1.731598 L 2.199519,1.728408 L 2.204953,1.725366 L 2.210387,1.722575 L 2.215821,1.720032 L 2.221255,1.717739 L 2.226739,1.715745 L 2.232223,1.714000 L 2.237707,1.712554 L 2.243241,1.711457 L 2.254359,1.710261 L 2.259943,1.710161 L 2.265526,1.710310 L 2.271160,1.710759 L 2.276793,1.711457 L 2.282477,1.712404 L 2.288160,1.713551 L 2.293844,1.714897 L 2.299527,1.716442 L 2.305211,1.718187 L 2.310944,1.720032 L 2.316677,1.722076 L 2.322410,1.724170 L 2.328144,1.726414 L 2.333877,1.728756 L 2.341467,1.731977 A 0.020000,0.020000 0 0,0 2.366049,1.724462 L 2.381139,1.701237 L 2.393204,1.682691 L 2.405319,1.664294 L 2.417384,1.646147 L 2.429449,1.628249 L 2.441464,1.610651 L 2.453429,1.593401 L 2.465344,1.576600 L 2.477259,1.560248 L 2.489075,1.544394 L 2.500841,1.529138 L 2.512556,1.514531 L 2.524222,1.500571 L 2.535789,1.487310 L 2.547305,1.474847 L 2.558722,1.463231 L 2.570039,1.452512 L 2.581256,1.442690 L 2.592374,1.433866 L 2.614360,1.419259 L 2.625228,1.413376 L 2.635947,1.408390 L 2.646616,1.404203 L 2.657235,1.400812 L 2.667754,1.398170 L 2.678174,1.396176 L 2.688593,1.394830 L 2.698913,1.394032 L 2.709183,1.393783 L 2.719453,1.393932 L 2.729624,1.394580 L 2.739794,1.395528 L 2.749915,1.396824 L 2.759985,1.398369 L 2.770106,1.400114 L 2.791155,1.404289 A 0.020000,0.020000 0 0,0 2.807527,1.400299 L 2.823301,1.387700 L 2.831078,1.381618 L 2.838856,1.375636 L 2.846683,1.369703 L 2.854610,1.363820 L 2.862586,1.358087 L 2.870663,1.352453 L 2.878839,1.346969 L 2.887115,1.341585 L 2.895540,1.336400 L 2.904065,1.331414 L 2.912740,1.326579 L 2.921564,1.321942 L 2.930588,1.317555 L 2.939761,1.313367 L 2.949134,1.309429 L 2.958706,1.305789 L 2.968478,1.302399 L 2.988669,1.296516 L 2.999039,1.293974 L 3.009508,1.291780 L 3.020127,1.289836 L 3.030846,1.288190 L 3.041614,1.286894 L 3.052383,1.285847 L 3.063202,1.285100 L 3.073970,1.284651 L 3.084739,1.284451 L 3.095408,1.284601 L 3.105977,1.285050 L 3.116396,1.285748 L 3.126667,1.286795 L 3.136787,1.288141 L 3.146658,1.289736 L 3.156330,1.291680 L 3.165753,1.293874 L 3.174876,1.296367 L 3.192176,1.302299 L 3.200402,1.305640 L 3.208379,1.309279 L 3.216056,1.313118 L 3.223534,1.317206 L 3.230763,1.321493 L 3.237843,1.325980 L 3.244673,1.330667 L 3.251353,1.335453 L 3.257884,1.340438 L 3.264266,1.345573 L 3.270547,1.350808 L 3.276679,1.356142 L 3.282762,1.361577 L 3.288744,1.367061 L 3.294627,1.372595 L 3.300709,1.378452 A 0.020000,0.020000 0 0,0 3.325510,1.380797 L 3.339995,1.371348 L 3.353904,1.362374 L 3.367714,1.353500 L 3.381524,1.344826 L 3.395234,1.336350 L 3.408844,1.328124 L 3.422355,1.320147 L 3.435716,1.312569 L 3.448977,1.305291 L 3.462089,1.298460 L 3.475051,1.292079 L 3.487814,1.286196 L 3.500378,1.280812 L 3.512742,1.276076 L 3.524856,1.271888 L 3.536771,1.268398 L 3.548438,1.265606 L 3.559804,1.263512 L 3.570872,1.262266 L 3.592210,1.262067 L 3.602430,1.263114 L 3.612451,1.264859 L 3.622173,1.267301 L 3.631745,1.270293 L 3.641067,1.273932 L 3.650191,1.278070 L 3.659115,1.282657 L 3.667889,1.287742 L 3.676564,1.293276 L 3.685039,1.299109 L 3.693415,1.305291 L 3.701691,1.311772 L 3.709917,1.318502 L 3.717993,1.325432 "/>
    </g>
    <g inkscape:groupmode="layer" id="c687df8d-fa56-40a1-aaa4-740a77a7dea9" inkscape:label="0">
        <path style="fill:none;stroke-width:0.010000;stroke-linecap:round;stroke-linejoin:round;stroke-opacity:1;stroke:#000000;" d="M 0.543035,1.135782 L 0.542085,1.124929 L 0.539265,1.114406 L 0.534661,1.104532 L 0.528413,1.095608 L 0.520709,1.087904 L 0.511785,1.081656 L 0.501911,1.077052 L 0.491388,1.074232 L 0.480535,1.073282 L 0.469682,1.074232 L 0.459159,1.077052 L 0.449285,1.081656 L 0.440361,1.087904 L 0.432657,1.095608 L 0.426409,1.104532 L 0.421804,1.114406 L 0.418984,1.124929 L 0.418035,1.135782 L 0.418984,1.146635 L 0.421804,1.157159 L 0.426409,1.167032 L 0.432657,1.175956 L 0.440361,1.183660 L 0.449285,1.189909 L 0.459159,1.194513 L 0.469682,1.197333 L 0.480535,1.198282 L 0.490312,1.197513 L 0.499848,1.195223 L 0.508909,1.191470 L 0.517271,1.186346 L 0.524729,1.179976 L 0.531098,1.172519 L 0.536223,1.164157 L 0.539976,1.155096 L 0.542265,1.145560 L 0.543035,1.135782 L 0.542085,1.124929 L 0.539265,1.114406 L 0.534661,1.104532 L 0.528413,1.095608 L 0.520709,1.087904 L 0.511785,1.081656 L 0.501911,1.077052 L 0.491388,1.074232 L 0.480535,1.073282 L 0.469682,1.074232 L 0.459159,1.077052 L 0.449285,1.081656 L 0.440361,1.087904 L 0.432657,1.095608 L 0.426409,1.104532 L 0.421804,1.114406 L 0.418984,1.124929 L 0.418035,1.135782 L 0.418984,1.146635 L 0.421804,1.157159 L 0.426409,1.167032 L 0.432657,1.175956 L 0.440361,1.183660 L 0.449285,1.189909 L 0.459159,1.194513 L 0.469682,1.197333 L 0.480535,1.198282 L 0.490312,1.197513 L 0.499848,1.195223 L 0.508909,1.191470 L 0.517271,1.186346 L 0.524729,1.179976 L 0.531098,1.172519 L 0.536223,1.164157 L 0.539976,1.155096 L 0.542265,1.145560 L 0.543035,1.135782 "/>
    </g>
    <g inkscape:groupmode="layer" id="dcc686b4-5571-4995-a1d5-229b1aa1ba4f" inkscape:label="bounding box">
        <path style="fill:none;stroke-width:0.010000;stroke-linecap:round;stroke-linejoin:round;stroke-opacity:1;stroke:#e9e9e9;" d="M 0.000000,2.000000 L 4.000000,2.000000 L 4.000000,0.000000 L 0.000000,0.000000 L 0.000000,2.000000 "/>
    </g>
</svg>
