<?xml version="1.0" encoding="UTF-8" standalone="no"?>
<!-- Created by Vectric (http://www.vectric.com/) -->

<svg
   xmlns:dc="http://purl.org/dc/elements/1.1/"
   xmlns:cc="http://creativecommons.org/ns#"
   xmlns:rdf="http://www.w3.org/1999/02/22-rdf-syntax-ns#"
   xmlns:svg="http://www.w3.org/2000/svg"
   xmlns="http://www.w3.org/2000/svg"
   xmlns:sodipodi="http://sodipodi.sourceforge.net/DTD/sodipodi-0.dtd"
   xmlns:inkscape="http://www.inkscape.org/namespaces/inkscape"
   width="315.89999"
   height="145.29848"
   viewBox="0 0 3.5099999 1.6144274"
   id="svg2"
   version="1.1"
   inkscape:version="0.48.4 r9939"
   sodipodi:docname="bat.svg">
  <metadata
     id="metadata12">
    <rdf:RDF>
      <cc:Work
         rdf:about="">
        <dc:format>image/svg+xml</dc:format>
        <dc:type
           rdf:resource="http://purl.org/dc/dcmitype/StillImage" />
      </cc:Work>
    </rdf:RDF>
  </metadata>
  <defs
     id="defs10" />
  <sodipodi:namedview
     pagecolor="#ffffff"
     bordercolor="#666666"
     borderopacity="1"
     objecttolerance="10"
     gridtolerance="10"
     guidetolerance="10"
     inkscape:pageopacity="0"
     inkscape:pageshadow="2"
     inkscape:window-width="1067"
     inkscape:window-height="702"
     id="namedview8"
     showgrid="false"
     fit-margin-top="0"
     fit-margin-left="0"
     fit-margin-right="0"
     fit-margin-bottom="-0.4"
     inkscape:zoom="1.0412698"
     inkscape:cx="315.9"
     inkscape:cy="-0.40076889"
     inkscape:window-x="75"
     inkscape:window-y="34"
     inkscape:window-maximized="0"
     inkscape:current-layer="117ffa8d-321a-4878-ac6e-abcbdd88bd12" />
  <g
     inkscape:groupmode="layer"
     id="117ffa8d-321a-4878-ac6e-abcbdd88bd12"
     inkscape:label="0"
     transform="translate(1.76,0.81444435)">
    <path
       style="fill:none;stroke:#000000;stroke-width:0.01;stroke-linecap:round;stroke-linejoin:round;stroke-opacity:1"
       d="M 1.801256,0.302527 L 1.798092,0.296111 L 1.794118,0.290163 L 1.789401,0.284785 L 1.784023,0.280069 L 1.778075,0.276094 L 1.771659,0.27293 L 1.764886,0.270631 L 1.75787,0.269235 L 1.750731,0.268768 L 1.743593,0.269235 L 1.736577,0.270631 L 1.729803,0.27293 L 1.723388,0.276094 L 1.71744,0.280069 L 1.712062,0.284785 L 1.707345,0.290163 L 1.703371,0.296111 L 1.700207,0.302527 L 1.697907,0.309301 L 1.696512,0.316317 L 1.696044,0.323455 L 1.696512,0.330593 L 1.697907,0.337609 L 1.700207,0.344383 L 1.703371,0.350799 L 1.707345,0.356747 L 1.712062,0.362125 L 1.71744,0.366842 L 1.723388,0.370816 L 1.729803,0.37398 L 1.736577,0.376279 L 1.743593,0.377675 L 1.750731,0.378143 L 1.75787,0.377675 L 1.764886,0.376279 L 1.771659,0.37398 L 1.778075,0.370816 L 1.784023,0.366842 L 1.789401,0.362125 L 1.794118,0.356747 L 1.798092,0.350799 L 1.801256,0.344383 L 1.803556,0.337609 L 1.804951,0.330593 L 1.805419,0.323455 L 1.804951,0.316317 L 1.803556,0.309301 L 1.801256,0.302527"
       id="path4"
       inkscape:connector-curvature="0"
       transform="translate(-1.755,-0.80944443)" />
    <path
       style="fill:none;stroke:#000000;stroke-width:0.01;stroke-linecap:round;stroke-linejoin:round;stroke-opacity:1"
       d="M 0.078621,0.920131 L 0.067254,0.936334 L 0.057034,0.952337 L 0.04796,0.968091 L 0.039983,0.983696 L 0.032954,0.999051 L 0.026872,1.014257 L 0.021637,1.029263 L 0.0172,1.04412 L 0.013461,1.058877 L 0.01037,1.073484 L 0.005783,1.1024 L 0.002891,1.131016 L 0,1.187601 L 0.032007,1.158636 L 0.056585,1.138495 L 0.073436,1.126479 L 0.090885,1.11586 L 0.108933,1.107136 L 0.118255,1.103497 L 0.127827,1.100505 L 0.137549,1.098063 L 0.14757,1.096318 L 0.15779,1.09527 L 0.179128,1.09547 L 0.190196,1.096716 L 0.201562,1.09881 L 0.213229,1.101602 L 0.225144,1.105092 L 0.249622,1.114016 L 0.262186,1.1194 L 0.287911,1.131664 L 0.314284,1.145773 L 0.354766,1.169554 L 0.437824,1.222699 L 0.461256,1.200265 L 0.492116,1.173642 L 0.512157,1.159184 L 0.526466,1.15041 L 0.541621,1.142483 L 0.557824,1.135503 L 0.575124,1.129571 L 0.59367,1.124884 L 0.613213,1.121344 L 0.633604,1.118952 L 0.654592,1.117805 L 0.67603,1.117855 L 0.697617,1.119051 L 0.719154,1.121394 L 0.740492,1.124984 L 0.761331,1.12972 L 0.781522,1.135603 L 0.800866,1.142632 L 0.819412,1.150759 L 0.83726,1.159782 L 0.862885,1.174789 L 0.89539,1.197024 L 0.949732,1.239301 L 0.979894,1.233318 L 1.010206,1.228732 L 1.030547,1.227136 L 1.051087,1.227236 L 1.061407,1.228034 L 1.071826,1.22938 L 1.082246,1.231374 L 1.092765,1.234016 L 1.103384,1.237406 L 1.114053,1.241594 L 1.124772,1.24658 L 1.13564,1.252462 L 1.157626,1.26707 L 1.168744,1.275894 L 1.179961,1.285716 L 1.191278,1.296434 L 1.214211,1.320514 L 1.237444,1.347735 L 1.260925,1.377598 L 1.284656,1.409804 L 1.320551,1.461453 L 1.39314,1.571732 L 1.421856,1.559617 L 1.450473,1.549646 L 1.467523,1.545608 L 1.484474,1.543514 L 1.495641,1.543464 L 1.506759,1.544661 L 1.512293,1.545758 L 1.523311,1.548948 L 1.534229,1.553236 L 1.550481,1.561612 L 1.571969,1.575521 L 1.614631,1.60887 L 1.632702,1.590801 L 1.653161,1.575487 L 1.675591,1.563241 L 1.699536,1.554311 L 1.724507,1.548879 L 1.749997,1.547056 L 1.775487,1.54888 L 1.800459,1.554312 L 1.824403,1.563242 L 1.846832,1.575489 L 1.867291,1.590803 L 1.885362,1.608872 L 1.901359,1.595862 L 1.93875,1.568192 L 1.954953,1.55857 L 1.971255,1.550943 L 1.982223,1.547204 L 1.993241,1.544661 L 2.004359,1.543464 L 2.015526,1.543514 L 2.026793,1.544661 L 2.043844,1.548101 L 2.060944,1.553236 L 2.10691,1.571732 L 2.143204,1.515895 L 2.203429,1.426605 L 2.239075,1.377598 L 2.262556,1.347735 L 2.285789,1.320514 L 2.308722,1.296434 L 2.320039,1.285716 L 2.331256,1.275894 L 2.342374,1.26707 L 2.36436,1.252462 L 2.375228,1.24658 L 2.385947,1.241594 L 2.396616,1.237406 L 2.407235,1.234016 L 2.417754,1.231374 L 2.428174,1.22938 L 2.438593,1.228034 L 2.448913,1.227236 L 2.469453,1.227136 L 2.489794,1.228732 L 2.509985,1.231573 L 2.550268,1.239301 L 2.60461,1.197024 L 2.637115,1.174789 L 2.66274,1.159782 L 2.680588,1.150759 L 2.699134,1.142632 L 2.718478,1.135603 L 2.738669,1.12972 L 2.759508,1.124984 L 2.780846,1.121394 L 2.802383,1.119051 L 2.82397,1.117855 L 2.845408,1.117805 L 2.866396,1.118952 L 2.886787,1.121344 L 2.90633,1.124884 L 2.924876,1.129571 L 2.942176,1.135503 L 2.958379,1.142483 L 2.973534,1.15041 L 2.987843,1.159184 L 3.007884,1.173642 L 3.026679,1.189346 L 3.062176,1.222699 L 3.089995,1.204552 L 3.158844,1.161328 L 3.198977,1.138495 L 3.225051,1.125283 L 3.250378,1.114016 L 3.274856,1.105092 L 3.286771,1.101602 L 3.298438,1.09881 L 3.309804,1.096716 L 3.320872,1.09547 L 3.34221,1.09527 L 3.35243,1.096318 L 3.362451,1.098063 L 3.372173,1.100505 L 3.381745,1.103497 L 3.391067,1.107136 L 3.400191,1.111274 L 3.417889,1.120946 L 3.426564,1.126479 L 3.443415,1.138495 L 3.459917,1.151706 L 3.5,1.187601 L 3.498853,1.159384 L 3.497109,1.131016 L 3.494217,1.1024 L 3.48968,1.073484 L 3.486539,1.058877 L 3.4828,1.04412 L 3.478363,1.029263 L 3.473128,1.014257 L 3.467046,0.999051 L 3.460017,0.983696 L 3.45204,0.968091 L 3.442966,0.952337 L 3.432746,0.936334 L 3.421379,0.920131 L 3.408666,0.903679 L 3.394657,0.886928 L 3.362451,0.852727 L 3.344354,0.835328 L 3.32501,0.817779 L 3.30447,0.800131 L 3.282833,0.782432 L 3.260099,0.764784 L 3.236368,0.747135 L 3.21169,0.729636 L 3.186115,0.712237 L 3.159692,0.694987 L 3.132521,0.678037 L 3.104602,0.661335 L 3.076036,0.644983 L 3.046821,0.628979 L 3.017107,0.613375 L 2.986895,0.598269 L 2.956285,0.583612 L 2.925275,0.569553 L 2.893966,0.556092 L 2.830601,0.531115 L 2.798744,0.519548 L 2.766837,0.50863 L 2.73493,0.49836 L 2.703072,0.488688 L 2.639956,0.471189 L 2.577987,0.456133 L 2.517663,0.44342 L 2.459582,0.43305 L 2.404243,0.424974 L 2.352245,0.419191 L 2.304035,0.415551 L 2.260063,0.414106 L 2.239573,0.414106 L 2.201385,0.415452 L 2.166436,0.418443 L 2.13433,0.42288 L 2.104666,0.428464 L 2.076947,0.434995 L 2.050724,0.442323 L 1.989103,0.462564 L 1.98676,0.357521 L 1.982522,0.293557 L 1.977636,0.255667 L 1.972551,0.230491 L 1.96627,0.208006 L 1.958991,0.187765 L 1.948073,0.163536 L 1.927034,0.125597 L 1.92435,0.119137 L 1.925309,0.090552 L 1.924302,0.060432 L 1.921328,0.042543 L 1.912264,0.016644 L 1.90435,0 L 1.893889,0.034619 L 1.875742,0.065901 L 1.850882,0.092166 L 1.820644,0.112003 L 1.786652,0.124349 L 1.750731,0.128539 L 1.714809,0.124349 L 1.680817,0.112004 L 1.650579,0.092166 L 1.625719,0.065901 L 1.607571,0.03462 L 1.597111,1e-6 L 1.58512,0.026572 L 1.578358,0.051224 L 1.576871,0.063598 L 1.57711,0.119137 L 1.572966,0.125597 L 1.554819,0.157852 L 1.541009,0.187765 L 1.53373,0.208006 L 1.527449,0.230491 L 1.522363,0.255667 L 1.518525,0.283636 L 1.514287,0.335435 L 1.510897,0.462564 L 1.449276,0.442323 L 1.409442,0.431605 L 1.380776,0.425522 L 1.349966,0.420487 L 1.316513,0.416748 L 1.27997,0.414554 L 1.239937,0.414106 L 1.195965,0.415551 L 1.147755,0.419191 L 1.095757,0.424974 L 1.040418,0.43305 L 0.982337,0.44342 L 0.922013,0.456133 L 0.860044,0.471189 L 0.796928,0.488688 L 0.76507,0.49836 L 0.733163,0.50863 L 0.701256,0.519548 L 0.669399,0.531115 L 0.606034,0.556092 L 0.574725,0.569553 L 0.543715,0.583612 L 0.513105,0.598269 L 0.482893,0.613375 L 0.453179,0.628979 L 0.423964,0.644983 L 0.395398,0.661335 L 0.367479,0.678037 L 0.340308,0.694987 L 0.313885,0.712237 L 0.28831,0.729636 L 0.263632,0.747135 L 0.239901,0.764784 L 0.217167,0.782432 L 0.19553,0.800131 L 0.17499,0.817779 L 0.155646,0.835328 L 0.137599,0.852727 L 0.105343,0.886928 L 0.091334,0.903679 L 0.078621,0.920131"
       id="path6"
       inkscape:connector-curvature="0"
       transform="translate(-1.755,-0.80944443)" />
  </g>
</svg>
