<?xml version="1.0" encoding="UTF-8"?>
<!-- Created by Vectric (http://www.vectric.com/) -->
<svg width="3.25000000in" height="3.25000000in" viewBox="0 0 3.25000000 3.25000000" id="svg2" version="1.1" xmlns="http://www.w3.org/2000/svg" xmlns:xlink="http://www.w3.org/1999/xlink" xmlns:inkscape="http://www.inkscape.org/namespaces/inkscape">
    <g inkscape:groupmode="layer" id="85667243-1302-4a85-b3ac-c7bf39b332ec" inkscape:label="Toolpath Previews"/>
    <g inkscape:groupmode="layer" id="5523ade6-7c84-4255-812f-f274a46075bb" inkscape:label="border">
        <path style="fill:none;stroke-width:0.010000;stroke-linecap:round;stroke-linejoin:round;stroke-opacity:1;stroke:#e9e9e9;" d="M 0.000000,3.250000 L 3.250000,3.250000 L 3.250000,0.000000 L 0.000000,0.000000 L 0.000000,3.250000 "/>
    </g>
    <g inkscape:groupmode="layer" id="465edf49-c2a6-4881-a3e3-568c011beb2e" inkscape:label="boot">
        <path style="fill:none;stroke-width:0.010000;stroke-linecap:round;stroke-linejoin:round;stroke-opacity:1;stroke:#000000;" d="M 0.168056,0.665948 L 0.165584,0.681901 L 0.163246,0.701408 L 0.161096,0.723711 L 0.159187,0.748054 L 0.157573,0.773677 L 0.156307,0.799824 L 0.155442,0.825736 L 0.155032,0.850657 L 0.155119,0.883372 L 0.155856,0.914488 L 0.157272,0.944121 L 0.159395,0.972389 L 0.162252,0.999409 L 0.165872,1.025299 L 0.170283,1.050176 L 0.175513,1.074158 L 0.181590,1.097361 L 0.188543,1.119903 L 0.196399,1.141901 L 0.205186,1.163473 L 0.214934,1.184736 L 0.225669,1.205808 L 0.237419,1.226805 L 0.250214,1.247845 L 0.266903,1.275442 L 0.286074,1.308990 L 0.305360,1.344252 L 0.322392,1.376989 L 0.359035,1.449869 L 0.359035,1.463424 L 0.358609,1.466701 L 0.357312,1.469502 L 0.355118,1.471838 L 0.352000,1.473721 L 0.347932,1.475165 L 0.342886,1.476180 L 0.336837,1.476781 L 0.329756,1.476978 L 0.322403,1.477359 L 0.314506,1.478468 L 0.306169,1.480251 L 0.297496,1.482656 L 0.288590,1.485630 L 0.279553,1.489120 L 0.270490,1.493074 L 0.261503,1.497438 L 0.252695,1.502161 L 0.244171,1.507189 L 0.236033,1.512470 L 0.228385,1.517951 L 0.221329,1.523579 L 0.214969,1.529301 L 0.209409,1.535065 L 0.204751,1.540818 L 0.201742,1.545602 L 0.198950,1.551352 L 0.196376,1.558020 L 0.194018,1.565555 L 0.191876,1.573908 L 0.189947,1.583031 L 0.188233,1.592872 L 0.186731,1.603383 L 0.185441,1.614515 L 0.184361,1.626218 L 0.182831,1.651137 L 0.182132,1.677747 L 0.182257,1.705651 L 0.183200,1.734453 L 0.184952,1.763757 L 0.187505,1.793169 L 0.190854,1.822291 L 0.194989,1.850728 L 0.199904,1.878085 L 0.202651,1.891235 L 0.205591,1.903965 L 0.208722,1.916228 L 0.212043,1.927974 L 0.215224,1.937642 L 0.219344,1.948575 L 0.224231,1.960397 L 0.229712,1.972731 L 0.235615,1.985202 L 0.241767,1.997434 L 0.247996,2.009050 L 0.254128,2.019674 L 0.262414,2.032978 L 0.269922,2.043952 L 0.276934,2.052858 L 0.280344,2.056618 L 0.283736,2.059960 L 0.287147,2.062916 L 0.290611,2.065519 L 0.294165,2.067803 L 0.297843,2.069799 L 0.301681,2.071542 L 0.305716,2.073063 L 0.314513,2.075573 L 0.347487,2.083927 L 0.380221,2.093225 L 0.412138,2.103259 L 0.442665,2.113819 L 0.471224,2.124698 L 0.484587,2.130191 L 0.497242,2.135685 L 0.509118,2.141155 L 0.520142,2.146573 L 0.530244,2.151915 L 0.539350,2.157153 L 0.559230,2.168668 L 0.575510,2.177192 L 0.581775,2.180078 L 0.586510,2.181910 L 0.589505,2.182587 L 0.590284,2.182460 L 0.590550,2.182006 L 0.590549,2.175977 L 0.732503,2.179125 L 0.760903,2.179564 L 0.788969,2.179607 L 0.816808,2.179242 L 0.844526,2.178459 L 0.872230,2.177248 L 0.900026,2.175599 L 0.928021,2.173501 L 0.956320,2.170943 L 0.985030,2.167916 L 1.014258,2.164408 L 1.044109,2.160410 L 1.074690,2.155911 L 1.106107,2.150900 L 1.138468,2.145368 L 1.171877,2.139303 L 1.206441,2.132695 L 1.238277,2.126569 L 1.263392,2.122068 L 1.282903,2.119134 L 1.290907,2.118236 L 1.297930,2.117708 L 1.304111,2.117542 L 1.309590,2.117732 L 1.314507,2.118268 L 1.319002,2.119146 L 1.323215,2.120356 L 1.327285,2.121892 L 1.335556,2.125911 L 1.360786,2.139452 L 1.467639,2.142762 L 1.513344,2.143947 L 1.558798,2.144726 L 1.598743,2.145033 L 1.627919,2.144801 L 1.681346,2.143530 L 2.186916,2.145258 L 2.286600,2.126830 L 2.562886,2.149264 L 2.632944,2.148011 L 2.654047,2.147373 L 2.672479,2.146097 L 2.681038,2.145134 L 2.689343,2.143911 L 2.697533,2.142393 L 2.705744,2.140547 L 2.714115,2.138338 L 2.722784,2.135734 L 2.741566,2.129202 L 2.763194,2.120683 L 2.788772,2.109905 L 2.816002,2.097894 L 2.840915,2.086168 L 2.863734,2.074505 L 2.874429,2.068627 L 2.884684,2.062681 L 2.894527,2.056639 L 2.903987,2.050473 L 2.913090,2.044155 L 2.921866,2.037657 L 2.930341,2.030951 L 2.938544,2.024010 L 2.946503,2.016804 L 2.954246,2.009308 L 2.961800,2.001491 L 2.969194,1.993327 L 2.976455,1.984788 L 2.983611,1.975845 L 2.990690,1.966471 L 2.997721,1.956638 L 3.004730,1.946317 L 3.011747,1.935481 L 3.025912,1.912153 L 3.040439,1.886429 L 3.055552,1.858085 L 3.071474,1.826899 L 3.121534,1.727145 L 3.138283,1.711987 L 3.140732,1.709613 L 3.142941,1.707108 L 3.144923,1.704415 L 3.146687,1.701476 L 3.148246,1.698233 L 3.149611,1.694630 L 3.150792,1.690608 L 3.151802,1.686110 L 3.153349,1.675457 L 3.154344,1.662210 L 3.154875,1.645909 L 3.155032,1.626094 L 3.154923,1.603696 L 3.154422,1.586175 L 3.153941,1.578948 L 3.153263,1.572585 L 3.152355,1.566969 L 3.151184,1.561980 L 3.149717,1.557500 L 3.147921,1.553412 L 3.145762,1.549596 L 3.143209,1.545935 L 3.140228,1.542310 L 3.136786,1.538603 L 3.128388,1.530469 L 3.101744,1.505580 L 3.057761,1.417724 L 3.048529,1.399664 L 3.039149,1.382071 L 3.029619,1.364944 L 3.019941,1.348283 L 3.010113,1.332087 L 3.000136,1.316358 L 2.990009,1.301093 L 2.979733,1.286294 L 2.969307,1.271960 L 2.958730,1.258091 L 2.948003,1.244686 L 2.937125,1.231746 L 2.926097,1.219270 L 2.914918,1.207259 L 2.903588,1.195711 L 2.892106,1.184627 L 2.880473,1.174007 L 2.868689,1.163851 L 2.856752,1.154157 L 2.844664,1.144927 L 2.832423,1.136160 L 2.820030,1.127855 L 2.807484,1.120014 L 2.794786,1.112634 L 2.781935,1.105717 L 2.768930,1.099262 L 2.755772,1.093269 L 2.742461,1.087737 L 2.728996,1.082667 L 2.715377,1.078058 L 2.701604,1.073911 L 2.687676,1.070225 L 2.669797,1.066049 L 2.653885,1.062971 L 2.638991,1.060959 L 2.631628,1.060345 L 2.624164,1.059986 L 2.608452,1.060022 L 2.590906,1.061037 L 2.570575,1.063003 L 2.546508,1.065891 L 2.464937,1.076264 L 1.895052,1.094491 L 1.565588,1.112827 L 1.543327,1.117946 L 1.538022,1.119418 L 1.531464,1.121649 L 1.515621,1.127944 L 1.497866,1.135953 L 1.480268,1.144794 L 1.466695,1.151929 L 1.455828,1.157067 L 1.451060,1.158899 L 1.446549,1.160246 L 1.442156,1.161113 L 1.437740,1.161504 L 1.433162,1.161426 L 1.428281,1.160881 L 1.422959,1.159876 L 1.417055,1.158416 L 1.402943,1.154147 L 1.384826,1.148113 L 1.370194,1.143549 L 1.355402,1.139693 L 1.340229,1.136514 L 1.324453,1.133981 L 1.307852,1.132064 L 1.290204,1.130733 L 1.271288,1.129957 L 1.250880,1.129705 L 1.233304,1.129535 L 1.216886,1.129001 L 1.201516,1.128068 L 1.187085,1.126700 L 1.173483,1.124861 L 1.160602,1.122516 L 1.148332,1.119630 L 1.136563,1.116165 L 1.125186,1.112088 L 1.114092,1.107361 L 1.103172,1.101951 L 1.092316,1.095820 L 1.081414,1.088934 L 1.070358,1.081256 L 1.059038,1.072751 L 1.047344,1.063384 L 1.037066,1.055262 L 1.026172,1.047267 L 1.014994,1.039604 L 1.003864,1.032478 L 0.993114,1.026092 L 0.983074,1.020654 L 0.974078,1.016366 L 0.966456,1.013435 L 0.957312,1.010113 L 0.947661,1.005847 L 0.937525,1.000658 L 0.926929,0.994564 L 0.915897,0.987585 L 0.904453,0.979740 L 0.892620,0.971047 L 0.880423,0.961527 L 0.867886,0.951197 L 0.855032,0.940079 L 0.841886,0.928190 L 0.828471,0.915550 L 0.814812,0.902179 L 0.800931,0.888094 L 0.786854,0.873317 L 0.772604,0.857865 L 0.706309,0.784842 L 0.706309,0.779420 L 0.705696,0.777071 L 0.703939,0.772446 L 0.697488,0.757466 L 0.687940,0.736682 L 0.676281,0.712297 L 0.664206,0.686735 L 0.659127,0.675223 L 0.654635,0.664331 L 0.650691,0.653887 L 0.647256,0.643720 L 0.644291,0.633660 L 0.641758,0.623536 L 0.639616,0.613177 L 0.637827,0.602413 L 0.636353,0.591072 L 0.635154,0.578985 L 0.633425,0.551886 L 0.632330,0.519750 L 0.632164,0.501123 L 0.632643,0.483067 L 0.633793,0.465355 L 0.635644,0.447762 L 0.638223,0.430061 L 0.641559,0.412027 L 0.645680,0.393434 L 0.650614,0.374056 L 0.658032,0.345117 L 0.661061,0.332026 L 0.663642,0.319772 L 0.665779,0.308293 L 0.667477,0.297526 L 0.668739,0.287409 L 0.669571,0.277880 L 0.669975,0.268876 L 0.669956,0.260337 L 0.669518,0.252198 L 0.668666,0.244399 L 0.667403,0.236877 L 0.665734,0.229570 L 0.663663,0.222416 L 0.661193,0.215352 L 0.658669,0.209248 L 0.655757,0.203193 L 0.652503,0.197235 L 0.648952,0.191420 L 0.645149,0.185798 L 0.641139,0.180415 L 0.636967,0.175319 L 0.632678,0.170558 L 0.628317,0.166178 L 0.623929,0.162229 L 0.619558,0.158756 L 0.615251,0.155808 L 0.611052,0.153433 L 0.607006,0.151677 L 0.603158,0.150589 L 0.599552,0.150215 L 0.597987,0.150054 L 0.596315,0.149579 L 0.592708,0.147756 L 0.588853,0.144874 L 0.584870,0.141060 L 0.580881,0.136443 L 0.577006,0.131151 L 0.573367,0.125310 L 0.570083,0.119050 L 0.567886,0.114737 L 0.565552,0.110729 L 0.563083,0.107024 L 0.560478,0.103624 L 0.557737,0.100529 L 0.554860,0.097737 L 0.551848,0.095250 L 0.548700,0.093066 L 0.545416,0.091187 L 0.541998,0.089612 L 0.538444,0.088341 L 0.534755,0.087375 L 0.530930,0.086712 L 0.526971,0.086354 L 0.522877,0.086299 L 0.518649,0.086549 L 0.514286,0.087103 L 0.509788,0.087961 L 0.500389,0.090589 L 0.490453,0.094433 L 0.479981,0.099494 L 0.468974,0.105770 L 0.457432,0.113262 L 0.445356,0.121971 L 0.432747,0.131895 L 0.422836,0.140432 L 0.412837,0.149886 L 0.402769,0.160219 L 0.392652,0.171390 L 0.382506,0.183360 L 0.372348,0.196091 L 0.362200,0.209544 L 0.352080,0.223679 L 0.342007,0.238457 L 0.332001,0.253839 L 0.322082,0.269787 L 0.312269,0.286260 L 0.302580,0.303220 L 0.293036,0.320628 L 0.283657,0.338444 L 0.274460,0.356630 L 0.265466,0.375146 L 0.256694,0.393954 L 0.248164,0.413013 L 0.239894,0.432286 L 0.231904,0.451733 L 0.224215,0.471315 L 0.216844,0.490992 L 0.209811,0.510726 L 0.203136,0.530478 L 0.196838,0.550208 L 0.190937,0.569878 L 0.185451,0.589448 L 0.180401,0.608879 L 0.175805,0.628132 L 0.171684,0.647168 L 0.168056,0.665948 "/>
        <path style="fill:none;stroke-width:0.010000;stroke-linecap:round;stroke-linejoin:round;stroke-opacity:1;stroke:#000000;" d="M 2.956702,1.570560 L 2.950312,1.570883 L 2.944106,1.571830 L 2.938117,1.573370 L 2.932375,1.575471 L 2.926911,1.578103 L 2.921758,1.581234 L 2.916947,1.584832 L 2.912508,1.588866 L 2.908474,1.593304 L 2.904876,1.598116 L 2.901746,1.603269 L 2.899114,1.608732 L 2.897012,1.614474 L 2.895472,1.620464 L 2.894525,1.626670 L 2.894202,1.633060 L 2.894525,1.639450 L 2.895472,1.645656 L 2.897012,1.651645 L 2.899114,1.657388 L 2.901746,1.662851 L 2.904876,1.668004 L 2.908474,1.672816 L 2.912508,1.677254 L 2.916947,1.681288 L 2.921758,1.684886 L 2.926911,1.688016 L 2.932375,1.690648 L 2.938117,1.692750 L 2.944106,1.694290 L 2.950312,1.695237 L 2.956702,1.695560 L 2.963093,1.695237 L 2.969298,1.694290 L 2.975288,1.692750 L 2.981030,1.690648 L 2.986494,1.688016 L 2.991647,1.684886 L 2.996458,1.681288 L 3.000897,1.677254 L 3.004930,1.672816 L 3.008528,1.668004 L 3.011659,1.662851 L 3.014291,1.657388 L 3.016393,1.651645 L 3.017933,1.645656 L 3.018880,1.639450 L 3.019202,1.633060 L 3.018880,1.626670 L 3.017933,1.620464 L 3.016393,1.614474 L 3.014291,1.608732 L 3.011659,1.603269 L 3.008528,1.598116 L 3.004930,1.593304 L 3.000897,1.588866 L 2.996458,1.584832 L 2.991647,1.581234 L 2.986494,1.578103 L 2.981030,1.575471 L 2.975288,1.573370 L 2.969298,1.571830 L 2.963093,1.570883 L 2.956702,1.570560 "/>
    </g>
</svg>
