<?xml version="1.0" encoding="UTF-8"?>
<!-- Created by Vectric (http://www.vectric.com/) -->
<svg width="4.00000000in" height="4.00000000in" viewBox="0 0 4.00000000 4.00000000" id="svg2" version="1.1" xmlns="http://www.w3.org/2000/svg" xmlns:xlink="http://www.w3.org/1999/xlink" xmlns:inkscape="http://www.inkscape.org/namespaces/inkscape">
    <g inkscape:groupmode="layer" id="c687df8d-fa56-40a1-aaa4-740a77a7dea9" inkscape:label="0"/>
    <g inkscape:groupmode="layer" id="dcc686b4-5571-4995-a1d5-229b1aa1ba4f" inkscape:label="bounding box">
        <path style="fill:none;stroke-width:0.010000;stroke-linecap:round;stroke-linejoin:round;stroke-opacity:1;stroke:#e9e9e9;" d="M 0.000000,4.000000 L 4.000000,4.000000 L 4.000000,0.000000 L 0.000000,0.000000 L 0.000000,4.000000 "/>
    </g>
    <g inkscape:groupmode="layer" id="83ee436b-9a36-4881-b704-17bef1bfb616" inkscape:label="LAYER_1">
        <path style="fill:none;stroke-width:0.010000;stroke-linecap:round;stroke-linejoin:round;stroke-opacity:1;stroke:#000000;" d="M 0.352783,0.864424 L 0.349899,0.883036 L 0.347172,0.905793 L 0.344663,0.931814 L 0.342437,0.960213 L 0.340553,0.990106 L 0.339076,1.020610 L 0.338067,1.050841 L 0.337589,1.079915 L 0.337690,1.118082 L 0.338551,1.154383 L 0.340202,1.188955 L 0.342679,1.221934 L 0.346012,1.253457 L 0.350235,1.283662 L 0.355381,1.312685 L 0.361483,1.340663 L 0.368573,1.367733 L 0.376684,1.394032 L 0.385850,1.419696 L 0.396102,1.444863 L 0.407473,1.469670 L 0.419997,1.494253 L 0.433706,1.518749 L 0.448633,1.543295 L 0.468103,1.575491 L 0.490469,1.614630 L 0.512969,1.655769 L 0.532839,1.693962 L 0.575590,1.778988 L 0.575590,1.794801 L 0.575092,1.798625 L 0.573579,1.801892 L 0.571020,1.804618 L 0.567383,1.806815 L 0.562636,1.808499 L 0.556750,1.809684 L 0.549692,1.810384 L 0.541431,1.810614 L 0.532852,1.811059 L 0.523640,1.812352 L 0.513914,1.814432 L 0.503795,1.817238 L 0.493404,1.820708 L 0.482862,1.824779 L 0.472288,1.829392 L 0.461803,1.834484 L 0.451528,1.839994 L 0.441583,1.845860 L 0.432089,1.852021 L 0.423166,1.858415 L 0.414934,1.864981 L 0.407515,1.871657 L 0.401028,1.878382 L 0.395594,1.885094 L 0.392083,1.890675 L 0.388826,1.897383 L 0.385823,1.905162 L 0.383072,1.913953 L 0.380572,1.923698 L 0.378323,1.934341 L 0.376323,1.945822 L 0.374571,1.958085 L 0.373065,1.971072 L 0.371806,1.984725 L 0.370020,2.013798 L 0.369205,2.044842 L 0.369351,2.077396 L 0.370451,2.110998 L 0.372495,2.145186 L 0.375474,2.179499 L 0.379380,2.213474 L 0.384205,2.246651 L 0.389939,2.278567 L 0.393144,2.293908 L 0.396574,2.308760 L 0.400226,2.323067 L 0.404101,2.336770 L 0.407811,2.348049 L 0.412618,2.360804 L 0.418320,2.374596 L 0.424715,2.388986 L 0.431601,2.403536 L 0.438779,2.417806 L 0.446045,2.431357 L 0.453199,2.443752 L 0.462866,2.459274 L 0.471625,2.472076 L 0.479807,2.482467 L 0.483784,2.486853 L 0.487742,2.490751 L 0.491721,2.494200 L 0.495763,2.497237 L 0.499908,2.499901 L 0.504200,2.502231 L 0.508678,2.504264 L 0.513384,2.506038 L 0.523648,2.508967 L 0.562117,2.518713 L 0.600306,2.529561 L 0.637542,2.541267 L 0.673156,2.553587 L 0.706475,2.566278 L 0.722065,2.572687 L 0.736829,2.579097 L 0.750684,2.585478 L 0.763546,2.591799 L 0.775331,2.598031 L 0.785955,2.604142 L 0.809148,2.617576 L 0.828141,2.627521 L 0.835450,2.630888 L 0.840974,2.633025 L 0.844468,2.633814 L 0.845377,2.633666 L 0.845687,2.633137 L 0.845685,2.626103 L 1.011297,2.629776 L 1.044429,2.630288 L 1.077173,2.630338 L 1.109651,2.629912 L 1.141989,2.628999 L 1.174310,2.627587 L 1.206739,2.625663 L 1.239398,2.623215 L 1.272414,2.620231 L 1.305908,2.616699 L 1.340007,2.612607 L 1.374832,2.607942 L 1.410510,2.602693 L 1.447163,2.596847 L 1.484917,2.590393 L 1.523894,2.583317 L 1.564218,2.575608 L 1.601360,2.568461 L 1.630660,2.563210 L 1.653423,2.559787 L 1.662760,2.558739 L 1.670953,2.558123 L 1.678164,2.557930 L 1.684557,2.558151 L 1.690293,2.558777 L 1.695538,2.559801 L 1.700452,2.561213 L 1.705200,2.563005 L 1.714850,2.567694 L 1.744284,2.583492 L 1.868945,2.587353 L 1.922267,2.588735 L 1.975296,2.589644 L 2.021898,2.590002 L 2.055936,2.589731 L 2.118267,2.588248 L 2.708091,2.590265 L 2.824388,2.568766 L 3.146718,2.594938 L 3.228452,2.593477 L 3.253071,2.592733 L 3.274575,2.591243 L 3.284560,2.590121 L 3.294250,2.588694 L 3.303804,2.586923 L 3.313384,2.584769 L 3.323150,2.582192 L 3.333263,2.579153 L 3.355176,2.571534 L 3.380409,2.561594 L 3.410249,2.549021 L 3.442016,2.535007 L 3.471081,2.521327 L 3.497704,2.507721 L 3.510181,2.500863 L 3.522144,2.493926 L 3.533628,2.486877 L 3.544664,2.479684 L 3.555285,2.472313 L 3.565523,2.464732 L 3.575411,2.456908 L 3.584981,2.448810 L 3.594266,2.440404 L 3.603299,2.431658 L 3.612112,2.422539 L 3.620738,2.413014 L 3.629209,2.403052 L 3.637558,2.392619 L 3.645817,2.381682 L 3.654019,2.370210 L 3.662197,2.358170 L 3.670382,2.345528 L 3.686908,2.318312 L 3.703856,2.288301 L 3.721488,2.255234 L 3.740064,2.218850 L 3.798466,2.102472 L 3.818006,2.084788 L 3.820863,2.082018 L 3.823441,2.079096 L 3.825753,2.075954 L 3.827811,2.072525 L 3.829630,2.068742 L 3.831222,2.064538 L 3.832600,2.059846 L 3.833778,2.054599 L 3.835584,2.042170 L 3.836744,2.026716 L 3.837363,2.007698 L 3.837547,1.984581 L 3.837420,1.958450 L 3.836835,1.938010 L 3.836274,1.929578 L 3.835483,1.922155 L 3.834424,1.915602 L 3.833057,1.909782 L 3.831346,1.904556 L 3.829250,1.899786 L 3.826732,1.895334 L 3.823754,1.891063 L 3.820276,1.886834 L 3.816260,1.882509 L 3.806462,1.873020 L 3.775378,1.843983 L 3.724065,1.741485 L 3.713295,1.720416 L 3.702351,1.699891 L 3.691234,1.679909 L 3.679942,1.660472 L 3.668477,1.641577 L 3.656837,1.623226 L 3.645023,1.605418 L 3.633034,1.588152 L 3.620870,1.571429 L 3.608530,1.555249 L 3.596016,1.539610 L 3.583326,1.524514 L 3.570459,1.509959 L 3.557417,1.495945 L 3.544199,1.482473 L 3.530804,1.469543 L 3.517232,1.457153 L 3.503484,1.445303 L 3.489558,1.433995 L 3.475455,1.423226 L 3.461174,1.412998 L 3.446716,1.403310 L 3.432080,1.394161 L 3.417265,1.385552 L 3.402272,1.377482 L 3.387100,1.369951 L 3.371749,1.362959 L 3.356219,1.356505 L 3.340510,1.350590 L 3.324622,1.345214 L 3.308553,1.340375 L 3.292305,1.336074 L 3.271446,1.331203 L 3.252883,1.327611 L 3.235506,1.325265 L 3.226917,1.324548 L 3.218208,1.324129 L 3.199878,1.324171 L 3.179408,1.325356 L 3.155688,1.327650 L 3.127611,1.331018 L 3.032446,1.343120 L 2.367588,1.364385 L 1.983218,1.385776 L 1.957247,1.391749 L 1.951058,1.393466 L 1.943407,1.396068 L 1.924923,1.403413 L 1.904209,1.412757 L 1.883679,1.423070 L 1.867844,1.431395 L 1.855166,1.437390 L 1.849604,1.439527 L 1.844341,1.441098 L 1.839215,1.442109 L 1.834063,1.442566 L 1.828722,1.442474 L 1.823028,1.441839 L 1.816819,1.440667 L 1.809931,1.438963 L 1.793467,1.433982 L 1.772332,1.426943 L 1.755261,1.421619 L 1.738004,1.417120 L 1.720302,1.413411 L 1.701897,1.410456 L 1.682530,1.408220 L 1.661941,1.406667 L 1.639872,1.405761 L 1.616063,1.405467 L 1.595558,1.405268 L 1.576403,1.404646 L 1.558472,1.403557 L 1.541636,1.401961 L 1.525768,1.399816 L 1.510740,1.397081 L 1.496424,1.393713 L 1.482694,1.389671 L 1.469422,1.384914 L 1.456479,1.379400 L 1.443739,1.373088 L 1.431073,1.365935 L 1.418355,1.357901 L 1.405456,1.348944 L 1.392249,1.339022 L 1.378607,1.328093 L 1.366616,1.318618 L 1.353907,1.309291 L 1.340866,1.300351 L 1.327881,1.292037 L 1.315339,1.284587 L 1.303627,1.278242 L 1.293131,1.273240 L 1.284239,1.269820 L 1.273571,1.265944 L 1.262311,1.260968 L 1.250486,1.254914 L 1.238124,1.247805 L 1.225254,1.239663 L 1.211902,1.230510 L 1.198098,1.220368 L 1.183868,1.209261 L 1.169242,1.197211 L 1.154246,1.184239 L 1.138909,1.170369 L 1.123258,1.155623 L 1.107322,1.140023 L 1.091129,1.123592 L 1.074706,1.106351 L 1.058081,1.088324 L 0.980737,1.003132 L 0.980737,0.996806 L 0.980022,0.994066 L 0.977973,0.988670 L 0.970447,0.971193 L 0.959307,0.946946 L 0.945705,0.918497 L 0.931618,0.888675 L 0.925693,0.875245 L 0.920452,0.862537 L 0.915851,0.850353 L 0.911843,0.838492 L 0.908384,0.826755 L 0.905428,0.814944 L 0.902930,0.802859 L 0.900843,0.790301 L 0.899123,0.777070 L 0.897724,0.762968 L 0.895707,0.731353 L 0.894429,0.693861 L 0.894237,0.672131 L 0.894795,0.651066 L 0.896137,0.630402 L 0.898296,0.609877 L 0.901304,0.589226 L 0.905196,0.568187 L 0.910004,0.546495 L 0.915761,0.523888 L 0.924415,0.490125 L 0.927949,0.474853 L 0.930960,0.460557 L 0.933453,0.447165 L 0.935434,0.434603 L 0.936907,0.422800 L 0.937877,0.411683 L 0.938348,0.401179 L 0.938326,0.391216 L 0.937816,0.381722 L 0.936821,0.372623 L 0.935348,0.363847 L 0.933401,0.355323 L 0.930984,0.346976 L 0.928103,0.338735 L 0.925158,0.331614 L 0.921761,0.324549 L 0.917965,0.317598 L 0.913822,0.310815 L 0.909385,0.304256 L 0.904707,0.297976 L 0.899840,0.292031 L 0.894836,0.286476 L 0.889748,0.281366 L 0.884628,0.276758 L 0.879530,0.272707 L 0.874505,0.269268 L 0.869606,0.266496 L 0.864885,0.264448 L 0.860396,0.263178 L 0.856190,0.262743 L 0.854364,0.262554 L 0.852412,0.262001 L 0.848204,0.259874 L 0.843707,0.256511 L 0.839061,0.252062 L 0.834407,0.246676 L 0.829886,0.240501 L 0.825640,0.233687 L 0.821809,0.226383 L 0.819246,0.221352 L 0.816524,0.216676 L 0.813643,0.212354 L 0.810603,0.208388 L 0.807405,0.204776 L 0.804049,0.201519 L 0.800535,0.198617 L 0.796862,0.196070 L 0.793032,0.193878 L 0.789043,0.192040 L 0.784897,0.190558 L 0.780593,0.189430 L 0.776132,0.188657 L 0.771513,0.188239 L 0.766737,0.188175 L 0.761803,0.188467 L 0.756713,0.189113 L 0.751466,0.190114 L 0.740500,0.193180 L 0.728909,0.197665 L 0.716692,0.203568 L 0.703850,0.210891 L 0.690384,0.219632 L 0.676296,0.229791 L 0.661586,0.241369 L 0.650023,0.251329 L 0.638358,0.262359 L 0.626612,0.274413 L 0.614809,0.287446 L 0.602972,0.301412 L 0.591121,0.316264 L 0.579282,0.331959 L 0.567475,0.348450 L 0.555724,0.365690 L 0.544051,0.383636 L 0.532478,0.402241 L 0.521029,0.421460 L 0.509726,0.441246 L 0.498592,0.461555 L 0.487649,0.482340 L 0.476920,0.503557 L 0.466427,0.525159 L 0.456193,0.547101 L 0.446241,0.569337 L 0.436593,0.591822 L 0.427272,0.614509 L 0.418301,0.637354 L 0.409701,0.660311 L 0.401497,0.683334 L 0.393710,0.706378 L 0.386362,0.729396 L 0.379477,0.752344 L 0.373078,0.775175 L 0.367186,0.797844 L 0.361824,0.820306 L 0.357016,0.842514 L 0.352783,0.864424 "/>
        <path style="fill:none;stroke-width:0.010000;stroke-linecap:round;stroke-linejoin:round;stroke-opacity:1;stroke:#000000;" d="M 3.648149,1.933415 L 3.641759,1.933738 L 3.635553,1.934685 L 3.629564,1.936225 L 3.623821,1.938327 L 3.618358,1.940959 L 3.613205,1.944089 L 3.608393,1.947687 L 3.603955,1.951721 L 3.599921,1.956160 L 3.596323,1.960971 L 3.593193,1.966124 L 3.590561,1.971588 L 3.588459,1.977330 L 3.586919,1.983319 L 3.585972,1.989525 L 3.585649,1.995915 L 3.585972,2.002306 L 3.586919,2.008511 L 3.588459,2.014501 L 3.590561,2.020243 L 3.593193,2.025707 L 3.596323,2.030860 L 3.599921,2.035671 L 3.603955,2.040110 L 3.608393,2.044143 L 3.613205,2.047741 L 3.618358,2.050872 L 3.623821,2.053504 L 3.629564,2.055606 L 3.635553,2.057146 L 3.641759,2.058093 L 3.648149,2.058415 L 3.654539,2.058093 L 3.660745,2.057146 L 3.666735,2.055606 L 3.672477,2.053504 L 3.677940,2.050872 L 3.683094,2.047741 L 3.687905,2.044143 L 3.692343,2.040110 L 3.696377,2.035671 L 3.699975,2.030860 L 3.703106,2.025707 L 3.705738,2.020243 L 3.707839,2.014501 L 3.709379,2.008511 L 3.710327,2.002306 L 3.710649,1.995915 L 3.710327,1.989525 L 3.709379,1.983319 L 3.707839,1.977330 L 3.705738,1.971588 L 3.703106,1.966124 L 3.699975,1.960971 L 3.696377,1.956160 L 3.692343,1.951721 L 3.687905,1.947687 L 3.683094,1.944089 L 3.677940,1.940959 L 3.672477,1.938327 L 3.666735,1.936225 L 3.660745,1.934685 L 3.654539,1.933738 L 3.648149,1.933415 "/>
    </g>
</svg>
