<?xml version="1.0" encoding="UTF-8"?>
<!-- Created by Vectric (http://www.vectric.com/) -->
<svg width="3.50000000in" height="2.44565169in" viewBox="0 0 3.50000000 2.44565169" id="svg2" version="1.1" xmlns="http://www.w3.org/2000/svg" xmlns:xlink="http://www.w3.org/1999/xlink" xmlns:inkscape="http://www.inkscape.org/namespaces/inkscape">
    <g inkscape:groupmode="layer" id="85667243-1302-4a85-b3ac-c7bf39b332ec" inkscape:label="Toolpath Previews"/>
    <g inkscape:groupmode="layer" id="4754a749-3e7e-4e88-aaf4-185f889f0b2b" inkscape:label="Bitmap Layer"/>
    <g inkscape:groupmode="layer" id="bb2bbe45-6c81-4de0-bad6-037c9921c896" inkscape:label="Layer 1">
        <path style="fill:none;stroke-width:0.010000;stroke-linecap:round;stroke-linejoin:round;stroke-opacity:1;stroke:#000000;" d="M 0.015236,0.676261 C 0.007392,0.719579 0.000555,0.816550 0.000042,0.891753 C -0.001381,1.100530 0.028169,1.223842 0.111087,1.355132 C 0.133887,1.391235 0.171780,1.459035 0.195293,1.505799 L 0.238043,1.590825 L 0.238043,1.606638 C 0.238043,1.617591 0.227543,1.622451 0.203885,1.622451 C 0.160033,1.622451 0.084006,1.661279 0.058047,1.696931 C 0.019232,1.750240 0.024047,2.005869 0.066554,2.148607 C 0.074809,2.176327 0.096903,2.224469 0.115652,2.255589 C 0.142937,2.300878 0.156999,2.313894 0.186101,2.320804 C 0.288463,2.345109 0.394992,2.383761 0.448408,2.415979 C 0.481261,2.435795 0.508141,2.448843 0.508140,2.444974 L 0.508139,2.437941 L 0.673751,2.441613 C 0.851713,2.445559 1.007791,2.430269 1.226672,2.387446 C 1.337331,2.365796 1.350429,2.365107 1.377304,2.379531 L 1.406738,2.395329 L 1.531399,2.399190 C 1.599962,2.401314 1.684108,2.402384 1.718390,2.401568 L 1.780720,2.400086 L 2.370545,2.402102 L 2.486841,2.380603 L 2.809172,2.406776 L 2.890905,2.405314 C 2.961855,2.404045 2.985841,2.398180 3.072702,2.360858 C 3.249799,2.284765 3.300468,2.234041 3.402517,2.030687 L 3.460919,1.914309 L 3.480460,1.896625 C 3.496464,1.882141 3.500000,1.864008 3.500000,1.796418 C 3.500000,1.718168 3.498390,1.712391 3.468916,1.684857 L 3.437831,1.655820 L 3.386519,1.553322 C 3.272559,1.325683 3.129035,1.190919 2.954758,1.147911 C 2.895088,1.133186 2.871734,1.132469 2.790064,1.142855 L 2.694899,1.154958 L 2.030042,1.176222 L 1.645671,1.197614 L 1.619700,1.203586 C 1.605416,1.206871 1.572311,1.220966 1.546132,1.234908 C 1.498536,1.260256 1.498536,1.260256 1.434785,1.238780 C 1.389280,1.223451 1.344554,1.217304 1.278517,1.217304 C 1.165326,1.217304 1.115208,1.200973 1.041060,1.139930 C 1.010387,1.114678 0.967921,1.088456 0.946693,1.081658 C 0.891427,1.063960 0.809689,0.998363 0.720534,0.900162 L 0.643190,0.814969 L 0.643190,0.808643 C 0.643190,0.805164 0.627426,0.769925 0.608158,0.730334 C 0.566375,0.644478 0.559629,0.614927 0.556883,0.505699 C 0.555397,0.446630 0.561567,0.397466 0.578215,0.335725 C 0.604138,0.239583 0.607152,0.194372 0.590556,0.150572 C 0.576145,0.112537 0.540226,0.074580 0.518643,0.074580 C 0.509270,0.074580 0.493799,0.058218 0.484262,0.038221 C 0.457767,-0.017340 0.404150,-0.012325 0.324039,0.053206 C 0.201333,0.153581 0.057237,0.444314 0.015236,0.676261 "/>
        <path style="fill:none;stroke-width:0.010000;stroke-linecap:round;stroke-linejoin:round;stroke-opacity:1;stroke:#000000;" d="M 3.310603,1.745253 C 3.276085,1.745253 3.248103,1.773235 3.248103,1.807753 C 3.248103,1.842270 3.276085,1.870253 3.310603,1.870253 C 3.345120,1.870253 3.373103,1.842270 3.373103,1.807753 C 3.373103,1.773235 3.345120,1.745253 3.310603,1.745253 "/>
    </g>
</svg>
