<?xml version="1.0" encoding="UTF-8"?>
<!-- Created by Vectric (http://www.vectric.com/) -->
<svg width="3.00000000in" height="1.75000000in" viewBox="0 0 3.00000000 1.75000000" id="svg2" version="1.1" xmlns="http://www.w3.org/2000/svg" xmlns:xlink="http://www.w3.org/1999/xlink" xmlns:inkscape="http://www.inkscape.org/namespaces/inkscape">
    <g inkscape:groupmode="layer" id="54d4db4f-1e2a-40f4-9059-963d497bc201" inkscape:label="cutout">
        <path style="fill:none;stroke-width:0.010000;stroke-linecap:round;stroke-linejoin:round;stroke-opacity:1;stroke:#000000;" d="M 1.500000,0.279382 A 0.062500,0.062500 0 0,0 1.437500,0.341882 A 0.062500,0.062500 0 0,0 1.500000,0.404382 A 0.062500,0.062500 0 0,0 1.562500,0.341882 A 0.062500,0.062500 0 0,0 1.500000,0.279382 "/>
        <path style="fill:none;stroke-width:0.010000;stroke-linecap:round;stroke-linejoin:round;stroke-opacity:1;stroke:#000000;" d="M 2.221731,1.413672 L 0.778269,1.413672 L 0.772745,1.429440 L 0.767534,1.442621 L 0.761824,1.455548 L 0.755628,1.468211 L 0.748955,1.480599 L 0.741816,1.492699 L 0.734224,1.504500 L 0.726190,1.515989 L 0.717725,1.527152 L 0.708843,1.537977 L 0.699554,1.548450 L 0.689873,1.558558 L 0.679813,1.568289 L 0.669385,1.577628 L 0.658604,1.586564 L 0.647483,1.595084 L 0.636035,1.603175 L 0.624272,1.610825 L 0.612209,1.618024 L 0.599856,1.624758 L 0.587226,1.631018 L 0.574331,1.636792 L 0.561181,1.642070 L 0.547786,1.646841 L 0.534155,1.651094 L 0.520298,1.654818 L 0.506221,1.658003 L 0.491932,1.660637 L 0.477436,1.662709 L 0.462738,1.664206 L 0.447843,1.665115 L 0.431531,1.665446 A 0.362834,0.362834 0 0,1 0.069916,1.303734 L 0.070187,1.288966 L 0.070931,1.275480 L 0.072156,1.262154 L 0.073855,1.248993 L 0.076016,1.235999 L 0.078632,1.223176 L 0.081694,1.210528 L 0.085193,1.198062 L 0.089122,1.185783 L 0.093473,1.173697 L 0.098237,1.161811 L 0.103407,1.150133 L 0.108975,1.138670 L 0.114933,1.127431 L 0.121273,1.116425 L 0.127986,1.105660 L 0.135065,1.095146 L 0.141863,1.085771 L 0.158446,1.065241 L 0.175659,1.046716 L 0.194112,1.029427 L 0.214571,1.012761 L 0.223917,1.005925 L 0.234400,0.998805 L 0.245134,0.992048 L 0.256111,0.985664 L 0.267322,0.979661 L 0.280744,0.973072 L 0.280744,0.776928 L 0.267322,0.770339 L 0.256111,0.764336 L 0.245134,0.757952 L 0.234400,0.751195 L 0.223917,0.744075 L 0.214571,0.737239 L 0.194112,0.720573 L 0.175659,0.703284 L 0.158446,0.684759 L 0.141863,0.664229 L 0.135065,0.654854 L 0.127986,0.644340 L 0.121273,0.633575 L 0.114933,0.622569 L 0.108975,0.611330 L 0.103407,0.599867 L 0.098237,0.588189 L 0.093473,0.576303 L 0.089122,0.564217 L 0.085193,0.551938 L 0.081694,0.539472 L 0.078632,0.526824 L 0.076016,0.514001 L 0.073855,0.501007 L 0.072156,0.487846 L 0.070931,0.474520 L 0.070187,0.461034 L 0.069916,0.446266 A 0.362834,0.362834 0 0,1 0.431518,0.084554 L 0.448033,0.084894 L 0.463113,0.085825 L 0.477991,0.087360 L 0.492661,0.089483 L 0.507119,0.092183 L 0.521359,0.095447 L 0.535373,0.099263 L 0.549153,0.103620 L 0.562692,0.108507 L 0.575978,0.113912 L 0.589002,0.119826 L 0.601751,0.126235 L 0.614215,0.133130 L 0.626380,0.140499 L 0.638234,0.148329 L 0.649764,0.156609 L 0.660955,0.165325 L 0.671794,0.174466 L 0.682268,0.184018 L 0.692363,0.193967 L 0.702064,0.204301 L 0.711360,0.215005 L 0.720236,0.226066 L 0.728679,0.237470 L 0.736678,0.249203 L 0.744219,0.261253 L 0.751291,0.273605 L 0.757882,0.286248 L 0.763980,0.299169 L 0.769575,0.312358 L 0.774655,0.325801 L 0.780005,0.341882 L 1.285190,0.341882 A 0.214810,0.214810 0 0,1 1.500000,0.127072 A 0.214810,0.214810 0 0,1 1.714810,0.341882 L 2.219995,0.341882 L 2.225345,0.325801 L 2.230425,0.312358 L 2.236020,0.299169 L 2.242118,0.286248 L 2.248709,0.273605 L 2.255781,0.261253 L 2.263322,0.249203 L 2.271321,0.237470 L 2.279764,0.226066 L 2.288640,0.215005 L 2.297936,0.204301 L 2.307637,0.193967 L 2.317732,0.184018 L 2.328206,0.174466 L 2.339045,0.165325 L 2.350236,0.156609 L 2.361766,0.148329 L 2.373620,0.140499 L 2.385785,0.133130 L 2.398249,0.126235 L 2.410998,0.119826 L 2.424022,0.113912 L 2.437308,0.108507 L 2.450847,0.103620 L 2.464627,0.099263 L 2.478641,0.095447 L 2.492881,0.092183 L 2.507339,0.089483 L 2.522009,0.087360 L 2.536887,0.085825 L 2.551967,0.084894 L 2.568482,0.084554 A 0.362834,0.362834 0 0,1 2.930084,0.446266 L 2.929813,0.461034 L 2.929069,0.474520 L 2.927844,0.487846 L 2.926145,0.501007 L 2.923984,0.514001 L 2.921368,0.526824 L 2.918306,0.539472 L 2.914807,0.551938 L 2.910878,0.564217 L 2.906527,0.576303 L 2.901763,0.588189 L 2.896593,0.599867 L 2.891025,0.611330 L 2.885067,0.622569 L 2.878727,0.633575 L 2.872014,0.644340 L 2.864935,0.654854 L 2.858137,0.664229 L 2.841554,0.684759 L 2.824341,0.703284 L 2.805888,0.720573 L 2.785429,0.737239 L 2.776083,0.744075 L 2.765600,0.751195 L 2.754866,0.757952 L 2.743889,0.764336 L 2.732678,0.770339 L 2.719256,0.776928 L 2.719256,0.973072 L 2.732678,0.979661 L 2.743889,0.985664 L 2.754866,0.992048 L 2.765600,0.998805 L 2.776083,1.005925 L 2.785429,1.012761 L 2.805888,1.029427 L 2.824341,1.046716 L 2.841554,1.065241 L 2.858137,1.085771 L 2.864935,1.095146 L 2.872014,1.105660 L 2.878727,1.116425 L 2.885067,1.127431 L 2.891025,1.138670 L 2.896593,1.150133 L 2.901763,1.161811 L 2.906527,1.173697 L 2.910878,1.185783 L 2.914807,1.198062 L 2.918306,1.210528 L 2.921368,1.223176 L 2.923984,1.235999 L 2.926145,1.248993 L 2.927844,1.262154 L 2.929069,1.275480 L 2.929813,1.288966 L 2.930084,1.303734 A 0.362834,0.362834 0 0,1 2.568469,1.665446 L 2.552157,1.665115 L 2.537262,1.664206 L 2.522564,1.662709 L 2.508068,1.660637 L 2.493779,1.658003 L 2.479702,1.654818 L 2.465845,1.651094 L 2.452214,1.646841 L 2.438819,1.642070 L 2.425669,1.636792 L 2.412774,1.631018 L 2.400144,1.624758 L 2.387791,1.618024 L 2.375728,1.610825 L 2.363965,1.603175 L 2.352517,1.595084 L 2.341396,1.586564 L 2.330615,1.577628 L 2.320187,1.568289 L 2.310127,1.558558 L 2.300446,1.548450 L 2.291157,1.537977 L 2.282275,1.527152 L 2.273810,1.515989 L 2.265776,1.504500 L 2.258184,1.492699 L 2.251045,1.480599 L 2.244372,1.468211 L 2.238176,1.455548 L 2.232466,1.442621 L 2.227255,1.429440 L 2.221731,1.413672 "/>
    </g>
    <g inkscape:groupmode="layer" id="0518f62a-d88d-4ff0-afe2-97a7ec3a86f7" inkscape:label="text"/>
    <g inkscape:groupmode="layer" id="9ea7a6b5-3b92-4394-99ba-ee167f0c7663" inkscape:label="box">
        <path style="fill:none;stroke-width:0.010000;stroke-linecap:round;stroke-linejoin:round;stroke-opacity:1;stroke:#e9e9e9;" d="M 0.000000,1.750000 L 3.000000,1.750000 L 3.000000,0.000000 L 0.000000,0.000000 L 0.000000,1.750000 "/>
    </g>
</svg>
