<?xml version="1.0" encoding="UTF-8"?>
<!-- Created by Vectric (http://www.vectric.com/) -->
<svg width="3.00000000in" height="3.05643309in" viewBox="0 0 3.00000000 3.05643309" id="svg2" version="1.1" xmlns="http://www.w3.org/2000/svg" xmlns:xlink="http://www.w3.org/1999/xlink" xmlns:inkscape="http://www.inkscape.org/namespaces/inkscape">
    <g inkscape:groupmode="layer" id="85667243-1302-4a85-b3ac-c7bf39b332ec" inkscape:label="Toolpath Previews"/>
    <g inkscape:groupmode="layer" id="b5fceb5f-51f0-451e-b29e-bd900a763730" inkscape:label="LAYER_1">
        <path style="fill:none;stroke-width:0.010000;stroke-linecap:round;stroke-linejoin:round;stroke-opacity:1;stroke:#4c0000;" d="M 1.576406,2.181575 L 1.598548,2.178306 L 1.624946,2.173284 L 1.652289,2.167192 L 1.677268,2.160716 L 1.696344,2.154983 L 1.715198,2.148678 L 1.733817,2.141813 L 1.752190,2.134399 L 1.770306,2.126445 L 1.788152,2.117965 L 1.805717,2.108968 L 1.822988,2.099465 L 1.839955,2.089468 L 1.856606,2.078987 L 1.872928,2.068033 L 1.888910,2.056618 L 1.904540,2.044752 L 1.919806,2.032447 L 1.934697,2.019712 L 1.949201,2.006561 L 1.963306,1.993002 L 1.977001,1.979047 L 1.990273,1.964708 L 2.003110,1.949995 L 2.015502,1.934920 L 2.027437,1.919492 L 2.038901,1.903723 L 2.049885,1.887625 L 2.060375,1.871208 L 2.070361,1.854482 L 2.079831,1.837460 L 2.088772,1.820152 L 2.097173,1.802569 L 2.105022,1.784722 L 2.112308,1.766622 L 2.119018,1.748280 L 2.128381,1.719998 L 2.136039,1.693581 L 2.139271,1.680799 L 2.142128,1.668154 L 2.144628,1.655537 L 2.146787,1.642838 L 2.148622,1.629948 L 2.150151,1.616758 L 2.151390,1.603157 L 2.152358,1.589036 L 2.153544,1.558796 L 2.153846,1.525160 L 2.153621,1.439580 L 2.145837,1.402903 L 2.140866,1.381101 L 2.135278,1.359625 L 2.129083,1.338484 L 2.122286,1.317685 L 2.114895,1.297236 L 2.106917,1.277147 L 2.098359,1.257425 L 2.089228,1.238079 L 2.079533,1.219117 L 2.069279,1.200547 L 2.058474,1.182377 L 2.047125,1.164617 L 2.035239,1.147273 L 2.022824,1.130355 L 2.009887,1.113870 L 1.996434,1.097828 L 1.982474,1.082235 L 1.968013,1.067102 L 1.953058,1.052435 L 1.937617,1.038243 L 1.921697,1.024535 L 1.905304,1.011318 L 1.888447,0.998602 L 1.871132,0.986394 L 1.853367,0.974702 L 1.835159,0.963535 L 1.816514,0.952902 L 1.797441,0.942810 L 1.777946,0.933267 L 1.758036,0.924283 L 1.737719,0.915865 L 1.717002,0.908022 L 1.691251,0.899325 L 1.665318,0.891764 L 1.639219,0.885340 L 1.612970,0.880052 L 1.586589,0.875900 L 1.560092,0.872885 L 1.533496,0.871007 L 1.506817,0.870265 L 1.480073,0.870660 L 1.453279,0.872192 L 1.426453,0.874861 L 1.399611,0.878668 L 1.372770,0.883611 L 1.345947,0.889692 L 1.319157,0.896911 L 1.292419,0.905267 L 1.275430,0.911218 L 1.258617,0.917655 L 1.241991,0.924566 L 1.225562,0.931943 L 1.209340,0.939775 L 1.193337,0.948052 L 1.177563,0.956765 L 1.162029,0.965902 L 1.146745,0.975455 L 1.131721,0.985412 L 1.116969,0.995765 L 1.102498,1.006503 L 1.088320,1.017617 L 1.074445,1.029095 L 1.060884,1.040929 L 1.047646,1.053107 L 1.034744,1.065621 L 1.022187,1.078461 L 1.009986,1.091615 L 0.998151,1.105075 L 0.986693,1.118830 L 0.975623,1.132870 L 0.964952,1.147185 L 0.954689,1.161765 L 0.944845,1.176601 L 0.935432,1.191682 L 0.926459,1.206998 L 0.917937,1.222540 L 0.909877,1.238297 L 0.902290,1.254259 L 0.895185,1.270416 L 0.888574,1.286758 L 0.881513,1.305822 L 0.875068,1.324927 L 0.869233,1.344063 L 0.864003,1.363220 L 0.859371,1.382388 L 0.855331,1.401558 L 0.851878,1.420719 L 0.849005,1.439863 L 0.846707,1.458979 L 0.844977,1.478057 L 0.843811,1.497089 L 0.843201,1.516063 L 0.843142,1.534970 L 0.843627,1.553801 L 0.844652,1.572546 L 0.846210,1.591194 L 0.848296,1.609737 L 0.850902,1.628164 L 0.854024,1.646465 L 0.857655,1.664632 L 0.861789,1.682653 L 0.866421,1.700520 L 0.871545,1.718223 L 0.877155,1.735751 L 0.883244,1.753095 L 0.889807,1.770245 L 0.896838,1.787192 L 0.904330,1.803926 L 0.912279,1.820436 L 0.920678,1.836714 L 0.929522,1.852749 L 0.938803,1.868532 L 0.948517,1.884052 L 0.958657,1.899301 L 0.969218,1.914268 L 0.980193,1.928943 L 0.991577,1.943318 L 1.003363,1.957381 L 1.015547,1.971123 L 1.028121,1.984536 L 1.041080,1.997607 L 1.054418,2.010329 L 1.068129,2.022691 L 1.082207,2.034683 L 1.096647,2.046296 L 1.111441,2.057520 L 1.126585,2.068345 L 1.142073,2.078761 L 1.157898,2.088759 L 1.174054,2.098328 L 1.190536,2.107460 L 1.207338,2.116144 L 1.224454,2.124370 L 1.241878,2.132129 L 1.259603,2.139411 L 1.277624,2.146207 L 1.295936,2.152505 L 1.314532,2.158298 L 1.333406,2.163574 L 1.352552,2.168324 L 1.371964,2.172539 L 1.391637,2.176208 L 1.411565,2.179322 L 1.431741,2.181871 L 1.453984,2.184257 L 1.472596,2.185955 L 1.488798,2.186964 L 1.503812,2.187280 L 1.518859,2.186902 L 1.535159,2.185827 L 1.576406,2.181575 "/>
        <path style="fill:none;stroke-width:0.010000;stroke-linecap:round;stroke-linejoin:round;stroke-opacity:1;stroke:#4c0000;" d="M 1.345046,3.039515 L 1.351538,3.056433 L 1.648936,3.056433 L 1.655457,3.035038 L 1.710331,2.656040 L 1.724540,2.552121 L 1.780371,2.536106 L 1.805292,2.528646 L 1.831874,2.520172 L 1.856937,2.511726 L 1.877300,2.504350 L 1.918398,2.488608 L 2.274691,2.853490 L 2.351921,2.797919 L 2.419483,2.749066 L 2.473469,2.709650 L 2.517787,2.676954 L 2.517787,2.669629 L 2.412025,2.466542 L 2.389417,2.423751 L 2.325738,2.303110 L 2.284669,2.225258 L 2.289386,2.217529 L 2.293336,2.211920 L 2.300607,2.202359 L 2.320961,2.176739 L 2.333589,2.160594 L 2.348117,2.141075 L 2.362750,2.120644 L 2.375692,2.101760 L 2.384477,2.088691 L 2.391532,2.078710 L 2.397302,2.071448 L 2.402233,2.066535 L 2.404523,2.064844 L 2.406771,2.063602 L 2.409031,2.062763 L 2.411359,2.062281 L 2.416444,2.062203 L 2.422470,2.062999 L 2.441376,2.066155 L 2.838712,2.133077 L 2.871794,2.139376 L 2.895524,2.143367 L 2.903026,2.144225 L 2.905194,2.144302 L 2.906119,2.144117 L 2.907362,2.142560 L 2.999056,1.858441 L 2.985421,1.847904 L 2.544740,1.631133 L 2.544624,1.425321 L 2.997647,1.202164 L 3.000000,1.200863 L 2.907184,0.913873 L 2.905905,0.911787 L 2.453602,0.988973 L 2.403897,0.997091 L 2.375858,0.954924 L 2.362852,0.935942 L 2.348166,0.915431 L 2.333602,0.895859 L 2.320961,0.879694 L 2.300583,0.854036 L 2.293288,0.844434 L 2.289306,0.838775 L 2.284509,0.830918 L 2.351474,0.704292 L 2.413577,0.586414 L 2.468855,0.480821 L 2.519272,0.383975 L 2.502505,0.367485 L 2.276329,0.202331 L 1.915670,0.569054 L 1.876494,0.552858 L 1.856908,0.545267 L 1.832538,0.536571 L 1.806489,0.527843 L 1.781867,0.520156 L 1.726415,0.503648 L 1.711812,0.412618 L 1.655473,0.021395 L 1.648936,0.000000 L 1.351053,0.000000 L 1.344397,0.021395 L 1.275933,0.498199 L 1.267706,0.505365 L 1.120997,0.551532 L 1.084338,0.570382 L 0.723661,0.202331 L 0.497485,0.367485 L 0.480721,0.383972 L 0.534308,0.486932 L 0.651704,0.710947 L 0.715514,0.832002 L 0.679268,0.879051 L 0.663345,0.900120 L 0.646784,0.922707 L 0.631545,0.944103 L 0.619585,0.961600 L 0.596149,0.997100 L 0.546388,0.988973 L 0.094085,0.911787 L 0.092806,0.913873 L 0.000925,1.197985 L 0.014568,1.208516 L 0.455000,1.425535 L 0.454862,1.631127 L 0.002343,1.853904 L 0.000000,1.855560 L 0.092627,2.142560 L 0.094321,2.144883 L 0.588772,2.060036 L 0.596553,2.060036 L 0.624362,2.101856 L 0.637279,2.120703 L 0.651891,2.141104 L 0.666406,2.160601 L 0.679029,2.176739 L 0.699297,2.202220 L 0.706474,2.211630 L 0.710311,2.217056 L 0.714735,2.224311 L 0.480535,2.672275 L 0.497485,2.688815 L 0.723661,2.854007 L 1.080609,2.489672 L 1.255480,2.549027 L 1.274631,2.549065 L 1.345046,3.039515 "/>
        <path style="fill:none;stroke-width:0.010000;stroke-linecap:round;stroke-linejoin:round;stroke-opacity:1;stroke:#4c0000;" d="M 0.817916,1.306576 L 0.805871,1.348260 L 0.796420,1.390041 L 0.789520,1.431822 L 0.785125,1.473506 L 0.783185,1.515000 L 0.783651,1.556210 L 0.786471,1.597043 L 0.791594,1.637410 L 0.798966,1.677223 L 0.808535,1.716395 L 0.820247,1.754839 L 0.834051,1.792472 L 0.849893,1.829211 L 0.867723,1.864971 L 0.887489,1.899670 L 0.909141,1.933226 L 0.932628,1.965554 L 0.957902,1.996573 L 0.984911,2.026197 L 1.013606,2.054343 L 1.043936,2.080923 L 1.075849,2.105853 L 1.109294,2.129045 L 1.144215,2.150411 L 1.180558,2.169864 L 1.218264,2.187315 L 1.257275,2.202678 L 1.297527,2.215865 L 1.338958,2.226791 L 1.381502,2.235372 L 1.424559,2.241453 L 1.468336,2.245828 L 1.503930,2.247339 L 1.539629,2.245684 L 1.583867,2.241123 L 1.608540,2.237481 L 1.637079,2.232052 L 1.666345,2.225532 L 1.693884,2.218392 L 1.735095,2.205313 L 1.775484,2.189722 L 1.814715,2.171794 L 1.852692,2.151627 L 1.889319,2.129315 L 1.924504,2.104951 L 1.958150,2.078628 L 1.990166,2.050435 L 2.020454,2.020459 L 2.048918,1.988787 L 2.075459,1.955506 L 2.099978,1.920700 L 2.122370,1.884457 L 2.142531,1.846863 L 2.160352,1.808008 L 2.175535,1.768475 L 2.185695,1.737784 L 2.194060,1.708929 L 2.200849,1.680579 L 2.206088,1.652112 L 2.209845,1.622980 L 2.212264,1.592594 L 2.213533,1.560242 L 2.213847,1.525351 L 2.213605,1.433205 L 2.204342,1.389561 L 2.193134,1.343622 L 2.179048,1.298153 L 2.162352,1.254116 L 2.143102,1.211598 L 2.121358,1.170690 L 2.097183,1.131481 L 2.070641,1.094060 L 2.041802,1.058514 L 2.010736,1.024930 L 1.977519,0.993393 L 1.942226,0.963984 L 1.904935,0.936784 L 1.865726,0.911870 L 1.824679,0.889315 L 1.781876,0.869191 L 1.737667,0.851671 L 1.709255,0.842076 L 1.680892,0.833807 L 1.652320,0.826774 L 1.623563,0.820981 L 1.594648,0.816430 L 1.565600,0.813125 L 1.536445,0.811066 L 1.507208,0.810253 L 1.477916,0.810686 L 1.448594,0.812362 L 1.419268,0.815280 L 1.389961,0.819436 L 1.360698,0.824825 L 1.331503,0.831444 L 1.302397,0.839287 L 1.273136,0.848431 L 1.236373,0.861905 L 1.200224,0.877530 L 1.165043,0.895117 L 1.130910,0.914578 L 1.097902,0.935826 L 1.066099,0.958779 L 1.035582,0.983355 L 1.006429,1.009477 L 0.978723,1.037067 L 0.952548,1.066050 L 0.927988,1.096352 L 0.905131,1.127901 L 0.884068,1.160624 L 0.864892,1.194448 L 0.847699,1.229300 L 0.832603,1.265067 L 0.817916,1.306576 "/>
        <path style="fill:none;stroke-width:0.010000;stroke-linecap:round;stroke-linejoin:round;stroke-opacity:1;stroke:#4c0000;" d="M 1.500000,0.265617 A 0.062500,0.062500 0 0,0 1.437500,0.328117 A 0.062500,0.062500 0 0,0 1.500000,0.390617 A 0.062500,0.062500 0 0,0 1.562500,0.328117 A 0.062500,0.062500 0 0,0 1.500000,0.265617 "/>
    </g>
</svg>
