<?xml version="1.0" encoding="UTF-8"?>
<!-- Created by Vectric (http://www.vectric.com/) -->
<svg width="3.50000000in" height="3.50000000in" viewBox="0 0 3.50000000 3.50000000" id="svg2" version="1.1" xmlns="http://www.w3.org/2000/svg" xmlns:xlink="http://www.w3.org/1999/xlink" xmlns:inkscape="http://www.inkscape.org/namespaces/inkscape">
    <g inkscape:groupmode="layer" id="c687df8d-fa56-40a1-aaa4-740a77a7dea9" inkscape:label="0"/>
    <g inkscape:groupmode="layer" id="dcc686b4-5571-4995-a1d5-229b1aa1ba4f" inkscape:label="bounding box">
        <path style="fill:none;stroke-width:0.010000;stroke-linecap:round;stroke-linejoin:round;stroke-opacity:1;stroke:#e9e9e9;" d="M 0.000000,3.500000 L 3.500000,3.500000 L 3.500000,0.000000 L 0.000000,0.000000 L 0.000000,3.500000 "/>
    </g>
    <g inkscape:groupmode="layer" id="83ee436b-9a36-4881-b704-17bef1bfb616" inkscape:label="LAYER_1">
        <path style="fill:none;stroke-width:0.010000;stroke-linecap:round;stroke-linejoin:round;stroke-opacity:1;stroke:#000000;" d="M 1.595046,3.261299 L 1.601538,3.278217 L 1.898936,3.278217 L 1.905457,3.256822 L 1.960331,2.877824 L 1.974540,2.773904 L 2.030371,2.757890 L 2.055292,2.750430 L 2.081874,2.741956 L 2.106937,2.733510 L 2.127300,2.726134 L 2.168398,2.710391 L 2.524691,3.075274 L 2.601921,3.019702 L 2.669483,2.970850 L 2.723469,2.931434 L 2.767787,2.898738 L 2.767787,2.891413 L 2.662025,2.688325 L 2.639417,2.645535 L 2.575738,2.524893 L 2.534669,2.447041 L 2.539386,2.439313 L 2.543336,2.433703 L 2.550607,2.424143 L 2.570961,2.398522 L 2.583589,2.382377 L 2.598117,2.362859 L 2.612750,2.342427 L 2.625692,2.323543 L 2.634477,2.310475 L 2.641532,2.300494 L 2.647302,2.293231 L 2.652233,2.288318 L 2.654523,2.286627 L 2.656771,2.285386 L 2.659031,2.284547 L 2.661359,2.284065 L 2.666444,2.283987 L 2.672470,2.284782 L 2.691376,2.287938 L 3.088712,2.354860 L 3.121794,2.361159 L 3.145524,2.365150 L 3.153026,2.366008 L 3.155194,2.366085 L 3.156119,2.365901 L 3.157362,2.364343 L 3.249056,2.080225 L 3.235421,2.069688 L 2.794740,1.852916 L 2.794624,1.647104 L 3.247647,1.423948 L 3.250000,1.422646 L 3.157184,1.135657 L 3.155905,1.133570 L 2.703602,1.210756 L 2.653897,1.218874 L 2.625858,1.176707 L 2.612852,1.157726 L 2.598166,1.137215 L 2.583602,1.117642 L 2.570961,1.101478 L 2.550583,1.075819 L 2.543288,1.066218 L 2.539306,1.060558 L 2.534509,1.052701 L 2.601474,0.926075 L 2.663577,0.808197 L 2.718855,0.702604 L 2.769272,0.605759 L 2.752505,0.589269 L 2.526329,0.424115 L 2.165670,0.790837 L 2.126494,0.774642 L 2.106908,0.767051 L 2.082538,0.758355 L 2.056489,0.749626 L 2.031867,0.741939 L 1.976415,0.725432 L 1.961812,0.634402 L 1.905473,0.243178 L 1.898936,0.221783 L 1.601053,0.221783 L 1.594397,0.243178 L 1.525933,0.719982 L 1.517706,0.727148 L 1.370997,0.773316 L 1.334338,0.792165 L 0.973661,0.424115 L 0.747485,0.589269 L 0.730721,0.605755 L 0.784308,0.708715 L 0.901704,0.932730 L 0.965514,1.053786 L 0.929268,1.100834 L 0.913345,1.121903 L 0.896784,1.144490 L 0.881545,1.165887 L 0.869585,1.183383 L 0.846149,1.218884 L 0.796388,1.210756 L 0.344085,1.133570 L 0.342806,1.135657 L 0.250925,1.419768 L 0.264568,1.430299 L 0.705000,1.647319 L 0.704862,1.852910 L 0.252343,2.075687 L 0.250000,2.077343 L 0.342627,2.364343 L 0.344321,2.366666 L 0.838772,2.281819 L 0.846553,2.281819 L 0.874362,2.323640 L 0.887279,2.342487 L 0.901891,2.362887 L 0.916406,2.382385 L 0.929029,2.398522 L 0.949297,2.424004 L 0.956474,2.433414 L 0.960311,2.438839 L 0.964735,2.446094 L 0.730535,2.894058 L 0.747485,2.910598 L 0.973661,3.075790 L 1.330609,2.711455 L 1.505480,2.770810 L 1.524631,2.770849 L 1.595046,3.261299 "/>
        <path style="fill:none;stroke-width:0.010000;stroke-linecap:round;stroke-linejoin:round;stroke-opacity:1;stroke:#000000;" d="M 1.750000,0.487400 A 0.062500,0.062500 0 0,0 1.687500,0.549900 A 0.062500,0.062500 0 0,0 1.750000,0.612400 A 0.062500,0.062500 0 0,0 1.812500,0.549900 A 0.062500,0.062500 0 0,0 1.750000,0.487400 "/>
        <path style="fill:none;stroke-width:0.010000;stroke-linecap:round;stroke-linejoin:round;stroke-opacity:1;stroke:#000000;" d="M 1.826406,2.403358 L 1.848548,2.400089 L 1.874946,2.395067 L 1.902289,2.388976 L 1.927268,2.382500 L 1.946344,2.376767 L 1.965198,2.370462 L 1.983817,2.363597 L 2.002190,2.356182 L 2.020306,2.348229 L 2.038152,2.339748 L 2.055717,2.330751 L 2.072988,2.321248 L 2.089955,2.311251 L 2.106606,2.300770 L 2.122928,2.289817 L 2.138910,2.278401 L 2.154540,2.266536 L 2.169806,2.254230 L 2.184697,2.241496 L 2.199201,2.228344 L 2.213306,2.214785 L 2.227001,2.200831 L 2.240273,2.186492 L 2.253110,2.171779 L 2.265502,2.156703 L 2.277437,2.141275 L 2.288901,2.125507 L 2.299885,2.109408 L 2.310375,2.092991 L 2.320361,2.076266 L 2.329831,2.059244 L 2.338772,2.041936 L 2.347173,2.024353 L 2.355022,2.006505 L 2.362308,1.988405 L 2.369018,1.970063 L 2.378381,1.941781 L 2.386039,1.915365 L 2.389271,1.902582 L 2.392128,1.889937 L 2.394628,1.877320 L 2.396787,1.864622 L 2.398622,1.851732 L 2.400151,1.838541 L 2.401390,1.824940 L 2.402358,1.810819 L 2.403544,1.780579 L 2.403846,1.746944 L 2.403621,1.661363 L 2.395837,1.624686 L 2.390866,1.602885 L 2.385278,1.581409 L 2.379083,1.560267 L 2.372286,1.539468 L 2.364895,1.519020 L 2.356917,1.498931 L 2.348359,1.479209 L 2.339228,1.459862 L 2.329533,1.440900 L 2.319279,1.422330 L 2.308474,1.404161 L 2.297125,1.386400 L 2.285239,1.369056 L 2.272824,1.352138 L 2.259887,1.335654 L 2.246434,1.319611 L 2.232474,1.304019 L 2.218013,1.288885 L 2.203058,1.274218 L 2.187617,1.260027 L 2.171697,1.246318 L 2.155304,1.233102 L 2.138447,1.220385 L 2.121132,1.208177 L 2.103367,1.196485 L 2.085159,1.185319 L 2.066514,1.174685 L 2.047441,1.164593 L 2.027946,1.155051 L 2.008036,1.146066 L 1.987719,1.137648 L 1.967002,1.129805 L 1.941251,1.121108 L 1.915318,1.113548 L 1.889219,1.107124 L 1.862970,1.101835 L 1.836589,1.097684 L 1.810092,1.094669 L 1.783496,1.092790 L 1.756817,1.092049 L 1.730073,1.092444 L 1.703279,1.093976 L 1.676453,1.096645 L 1.649611,1.100451 L 1.622770,1.105395 L 1.595947,1.111476 L 1.569157,1.118694 L 1.542419,1.127050 L 1.525430,1.133002 L 1.508617,1.139438 L 1.491991,1.146350 L 1.475562,1.153727 L 1.459340,1.161559 L 1.443337,1.169836 L 1.427563,1.178548 L 1.412029,1.187686 L 1.396745,1.197238 L 1.381721,1.207196 L 1.366969,1.217549 L 1.352498,1.228287 L 1.338320,1.239400 L 1.324445,1.250878 L 1.310884,1.262712 L 1.297646,1.274891 L 1.284744,1.287405 L 1.272187,1.300244 L 1.259986,1.313399 L 1.248151,1.326858 L 1.236693,1.340613 L 1.225623,1.354653 L 1.214952,1.368968 L 1.204689,1.383549 L 1.194845,1.398385 L 1.185432,1.413466 L 1.176459,1.428782 L 1.167937,1.444323 L 1.159877,1.460080 L 1.152290,1.476042 L 1.145185,1.492199 L 1.138574,1.508542 L 1.131513,1.527606 L 1.125068,1.546711 L 1.119233,1.565846 L 1.114003,1.585003 L 1.109371,1.604171 L 1.105331,1.623341 L 1.101878,1.642503 L 1.099005,1.661646 L 1.096707,1.680762 L 1.094977,1.699841 L 1.093811,1.718872 L 1.093201,1.737846 L 1.093142,1.756754 L 1.093627,1.775585 L 1.094652,1.794329 L 1.096210,1.812978 L 1.098296,1.831520 L 1.100902,1.849947 L 1.104024,1.868249 L 1.107655,1.886415 L 1.111789,1.904437 L 1.116421,1.922304 L 1.121545,1.940006 L 1.127155,1.957534 L 1.133244,1.974878 L 1.139807,1.992029 L 1.146838,2.008976 L 1.154330,2.025709 L 1.162279,2.042220 L 1.170678,2.058497 L 1.179522,2.074533 L 1.188803,2.090315 L 1.198517,2.105836 L 1.208657,2.121084 L 1.219218,2.136051 L 1.230193,2.150727 L 1.241577,2.165101 L 1.253363,2.179164 L 1.265547,2.192907 L 1.278121,2.206319 L 1.291080,2.219391 L 1.304418,2.232112 L 1.318129,2.244474 L 1.332207,2.256467 L 1.346647,2.268079 L 1.361441,2.279303 L 1.376585,2.290128 L 1.392073,2.300544 L 1.407898,2.310542 L 1.424054,2.320112 L 1.440536,2.329243 L 1.457338,2.337927 L 1.474454,2.346154 L 1.491878,2.353913 L 1.509603,2.361195 L 1.527624,2.367990 L 1.545936,2.374289 L 1.564532,2.380081 L 1.583406,2.385357 L 1.602552,2.390108 L 1.621964,2.394322 L 1.641637,2.397992 L 1.661565,2.401106 L 1.681741,2.403655 L 1.703984,2.406040 L 1.722596,2.407738 L 1.738798,2.408747 L 1.753812,2.409063 L 1.768859,2.408685 L 1.785159,2.407610 L 1.826406,2.403358 "/>
        <path style="fill:none;stroke-width:0.010000;stroke-linecap:round;stroke-linejoin:round;stroke-opacity:1;stroke:#000000;" d="M 1.067916,1.528360 L 1.055871,1.570043 L 1.046420,1.611824 L 1.039520,1.653605 L 1.035125,1.695290 L 1.033185,1.736784 L 1.033651,1.777993 L 1.036471,1.818826 L 1.041594,1.859194 L 1.048966,1.899007 L 1.058535,1.938178 L 1.070247,1.976623 L 1.084051,2.014256 L 1.099893,2.050994 L 1.117723,2.086754 L 1.137489,2.121453 L 1.159141,2.155009 L 1.182628,2.187338 L 1.207902,2.218356 L 1.234911,2.247981 L 1.263606,2.276126 L 1.293936,2.302707 L 1.325849,2.327637 L 1.359294,2.350828 L 1.394215,2.372195 L 1.430558,2.391647 L 1.468264,2.409099 L 1.507275,2.424461 L 1.547527,2.437648 L 1.588958,2.448574 L 1.631502,2.457156 L 1.674559,2.463236 L 1.718336,2.467612 L 1.753930,2.469122 L 1.789629,2.467467 L 1.833867,2.462907 L 1.858540,2.459264 L 1.887079,2.453835 L 1.916345,2.447315 L 1.943884,2.440176 L 1.985095,2.427096 L 2.025484,2.411505 L 2.064715,2.393577 L 2.102692,2.373410 L 2.139319,2.351098 L 2.174504,2.326735 L 2.208150,2.300412 L 2.240166,2.272218 L 2.270454,2.242242 L 2.298918,2.210570 L 2.325459,2.177289 L 2.349978,2.142484 L 2.372370,2.106240 L 2.392531,2.068647 L 2.410352,2.029792 L 2.425535,1.990258 L 2.435695,1.959568 L 2.444060,1.930713 L 2.450849,1.902362 L 2.456088,1.873896 L 2.459845,1.844764 L 2.462264,1.814377 L 2.463533,1.782025 L 2.463847,1.747134 L 2.463605,1.654988 L 2.454342,1.611344 L 2.443134,1.565406 L 2.429048,1.519937 L 2.412352,1.475899 L 2.393102,1.433382 L 2.371358,1.392474 L 2.347183,1.353265 L 2.320641,1.315843 L 2.291802,1.280297 L 2.260736,1.246713 L 2.227519,1.215176 L 2.192226,1.185768 L 2.154935,1.158568 L 2.115726,1.133654 L 2.074679,1.111099 L 2.031876,1.090974 L 1.987667,1.073455 L 1.959255,1.063859 L 1.930892,1.055590 L 1.902320,1.048557 L 1.873563,1.042764 L 1.844648,1.038214 L 1.815600,1.034908 L 1.786445,1.032849 L 1.757208,1.032036 L 1.727916,1.032469 L 1.698594,1.034146 L 1.669268,1.037064 L 1.639961,1.041219 L 1.610698,1.046609 L 1.581503,1.053228 L 1.552397,1.061070 L 1.523136,1.070215 L 1.486373,1.083688 L 1.450224,1.099313 L 1.415043,1.116901 L 1.380910,1.136361 L 1.347902,1.157609 L 1.316099,1.180562 L 1.285582,1.205139 L 1.256429,1.231260 L 1.228723,1.258850 L 1.202548,1.287833 L 1.177988,1.318136 L 1.155131,1.349685 L 1.134068,1.382408 L 1.114892,1.416232 L 1.097699,1.451083 L 1.082603,1.486851 L 1.067916,1.528360 "/>
    </g>
</svg>
