<?xml version="1.0" encoding="UTF-8"?>
<!-- Created by Vectric (http://www.vectric.com/) -->
<svg width="3.50000000in" height="3.50000000in" viewBox="0 0 3.50000000 3.50000000" id="svg2" version="1.1" xmlns="http://www.w3.org/2000/svg" xmlns:xlink="http://www.w3.org/1999/xlink" xmlns:inkscape="http://www.inkscape.org/namespaces/inkscape">
    <g inkscape:groupmode="layer" id="c687df8d-fa56-40a1-aaa4-740a77a7dea9" inkscape:label="0"/>
    <g inkscape:groupmode="layer" id="dcc686b4-5571-4995-a1d5-229b1aa1ba4f" inkscape:label="bounding box">
        <path style="fill:none;stroke-width:0.010000;stroke-linecap:round;stroke-linejoin:round;stroke-opacity:1;stroke:#e9e9e9;" d="M 0.000000,3.500000 L 3.500000,3.500000 L 3.500000,0.000000 L 0.000000,0.000000 L 0.000000,3.500000 "/>
    </g>
    <g inkscape:groupmode="layer" id="83ee436b-9a36-4881-b704-17bef1bfb616" inkscape:label="LAYER_1">
        <path style="fill:none;stroke-width:0.010000;stroke-linecap:round;stroke-linejoin:round;stroke-opacity:1;stroke:#4c0000;" d="M 1.595046,3.261299 L 1.601538,3.278217 L 1.898936,3.278217 L 1.905457,3.256822 L 1.960331,2.877824 L 1.974540,2.773904 L 2.030371,2.757890 L 2.055292,2.750430 L 2.081874,2.741956 L 2.106937,2.733510 L 2.127300,2.726134 L 2.168398,2.710391 L 2.524691,3.075274 L 2.601921,3.019702 L 2.669483,2.970850 L 2.723469,2.931434 L 2.767787,2.898738 L 2.767787,2.891413 L 2.662025,2.688325 L 2.639417,2.645535 L 2.575738,2.524893 L 2.534669,2.447041 L 2.539386,2.439313 L 2.543336,2.433703 L 2.550607,2.424143 L 2.570961,2.398522 L 2.583589,2.382377 L 2.598117,2.362859 L 2.612750,2.342427 L 2.625692,2.323543 L 2.634477,2.310475 L 2.641532,2.300494 L 2.647302,2.293231 L 2.652233,2.288318 L 2.654523,2.286627 L 2.656771,2.285386 L 2.659031,2.284547 L 2.661359,2.284065 L 2.666444,2.283987 L 2.672470,2.284782 L 2.691376,2.287938 L 3.088712,2.354860 L 3.121794,2.361159 L 3.145524,2.365150 L 3.153026,2.366008 L 3.155194,2.366085 L 3.156119,2.365901 L 3.157362,2.364343 L 3.249056,2.080225 L 3.235421,2.069688 L 2.794740,1.852916 L 2.794624,1.647104 L 3.247647,1.423948 L 3.250000,1.422646 L 3.157184,1.135657 L 3.155905,1.133570 L 2.703602,1.210756 L 2.653897,1.218874 L 2.625858,1.176707 L 2.612852,1.157726 L 2.598166,1.137215 L 2.583602,1.117642 L 2.570961,1.101478 L 2.550583,1.075819 L 2.543288,1.066218 L 2.539306,1.060558 L 2.534509,1.052701 L 2.601474,0.926075 L 2.663577,0.808197 L 2.718855,0.702604 L 2.769272,0.605759 L 2.752505,0.589269 L 2.526329,0.424115 L 2.165670,0.790837 L 2.126494,0.774642 L 2.106908,0.767051 L 2.082538,0.758355 L 2.056489,0.749626 L 2.031867,0.741939 L 1.976415,0.725432 L 1.961812,0.634402 L 1.905473,0.243178 L 1.898936,0.221783 L 1.601053,0.221783 L 1.594397,0.243178 L 1.525933,0.719982 L 1.517706,0.727148 L 1.370997,0.773316 L 1.334338,0.792165 L 0.973661,0.424115 L 0.747485,0.589269 L 0.730721,0.605755 L 0.784308,0.708715 L 0.901704,0.932730 L 0.965514,1.053786 L 0.929268,1.100834 L 0.913345,1.121903 L 0.896784,1.144490 L 0.881545,1.165887 L 0.869585,1.183383 L 0.846149,1.218884 L 0.796388,1.210756 L 0.344085,1.133570 L 0.342806,1.135657 L 0.250925,1.419768 L 0.264568,1.430299 L 0.705000,1.647319 L 0.704862,1.852910 L 0.252343,2.075687 L 0.250000,2.077343 L 0.342627,2.364343 L 0.344321,2.366666 L 0.838772,2.281819 L 0.846553,2.281819 L 0.874362,2.323640 L 0.887279,2.342487 L 0.901891,2.362887 L 0.916406,2.382385 L 0.929029,2.398522 L 0.949297,2.424004 L 0.956474,2.433414 L 0.960311,2.438839 L 0.964735,2.446094 L 0.730535,2.894058 L 0.747485,2.910598 L 0.973661,3.075790 L 1.330609,2.711455 L 1.505480,2.770810 L 1.524631,2.770849 L 1.595046,3.261299 "/>
        <path style="fill:none;stroke-width:0.010000;stroke-linecap:round;stroke-linejoin:round;stroke-opacity:1;stroke:#4c0000;" d="M 1.750000,0.487400 A 0.062500,0.062500 0 0,0 1.687500,0.549900 A 0.062500,0.062500 0 0,0 1.750000,0.612400 A 0.062500,0.062500 0 0,0 1.812500,0.549900 A 0.062500,0.062500 0 0,0 1.750000,0.487400 "/>
    </g>
</svg>
